<?xml version="1.0" encoding="utf-8"?>
<!-- Generator: Adobe Illustrator 27.5.0, SVG Export Plug-In . SVG Version: 6.00 Build 0)  -->
<svg version="1.1" id="Dual_Logos" xmlns="http://www.w3.org/2000/svg" xmlns:xlink="http://www.w3.org/1999/xlink" x="0px" y="0px"
	 viewBox="0 0 179.1 37.5" style="enable-background:new 0 0 179.1 37.5;" xml:space="preserve">
<style type="text/css">
	.st0{fill:#FFC20E;}
	.st1{fill:#1C5839;}
	.st2{fill:#AF1E23;}
	.st3{fill:none;stroke:#FFC20E;stroke-width:0.3079;}
	.st4{fill:#0E3C24;}
	.st5{fill:#75C594;}
	.st6{fill:#FFFFFF;}
	.st7{fill:#B2CFD2;}
	.st8{fill:#A1DBE0;}
	.st9{fill:#99D0D5;}
	.st10{fill:#0F6E29;}
	.st11{fill:url(#SVGID_1_);}
	.st12{clip-path:url(#SVGID_00000170971094255269367810000015679611198625800373_);}
	.st13{fill:#0E3C24;stroke:#FFFFFF;stroke-width:7.701500e-02;}
	.st14{fill:#CAAF81;}
</style>
<g>
	<path class="st0" d="M121.9,19.2c0-10.2,12.8-18.4,28.5-18.4c15.7,0,28.5,8.2,28.5,18.4c0,10.2-12.8,18.4-28.5,18.4
		C134.7,37.7,121.9,29.4,121.9,19.2z"/>
	<path class="st1" d="M122.5,19.2c0-10,12.5-18,27.9-18s27.9,8.1,27.9,18c0,10-12.5,18-27.9,18S122.5,29.2,122.5,19.2z"/>
	<g>
		<path class="st0" d="M138.2,6.9c-0.3-0.5-0.7-0.6-1.2-0.4c-0.5,0.2-0.6,0.8-0.2,1.7c0.3,0.6,0.7,1.2,1.5,0.8
			c0.5-0.2,0.6-0.7,0.4-1.1l1.4-0.7c0.4,1.3-0.1,2.4-1.3,2.9c-1.5,0.7-2.9,0.2-3.6-1.3c-0.7-1.5-0.1-2.9,1.2-3.5
			c1.4-0.7,2.5-0.3,3.2,0.8L138.2,6.9z"/>
		<path class="st0" d="M141.2,9l0.7-5.3l1.7-0.4l2.8,4.6l-1.6,0.3l-0.3-0.6L142.9,8l0,0.7L141.2,9z M143.1,5L143,6.9l1-0.2L143.1,5z
			"/>
		<path class="st0" d="M149.5,4.2c0-0.2-0.1-0.3-0.3-0.3c-0.1-0.1-0.3-0.1-0.4-0.1c-0.4,0-0.5,0.1-0.5,0.3c0,0.8,2.9,0.2,3,2
			c0,1.2-0.9,1.8-2.3,1.8c-1.3,0.1-2.2-0.7-2.3-1.6l1.6-0.1c0,0.2,0.1,0.3,0.3,0.4c0.1,0.1,0.3,0.1,0.5,0.1c0.4,0,0.7-0.2,0.7-0.4
			c0-0.8-2.9-0.1-3-2.1c0-1.1,0.9-1.7,2.1-1.7c1.4-0.1,2.1,0.6,2.2,1.5L149.5,4.2z"/>
		<path class="st0" d="M152.1,7.8l0.4-5l1.7,0.1l-0.4,5L152.1,7.8z"/>
		<path class="st0" d="M158.6,6.5l0.2-1.1l0.3-1.6l1.5,0.3L159.6,9l-1.5-0.3l-1.2-3.1l-0.2,1.1l-0.3,1.6L154.8,8l1.1-4.9l1.5,0.3
			L158.6,6.5z"/>
		<path class="st0" d="M166.2,9.3c-0.8,1.5-2.2,1.9-3.6,1.2c-1.4-0.7-1.9-2.1-1.2-3.6c0.7-1.4,2.1-1.9,3.5-1.2
			C166.7,6.6,166.8,8.1,166.2,9.3z M163,7.7c-0.3,0.6-0.5,1.4,0.2,1.7c0.6,0.3,1.2-0.1,1.5-0.9c0.3-0.6,0.4-1.4-0.3-1.7
			C163.8,6.5,163.3,7.1,163,7.7z"/>
	</g>
	<g>
		<path class="st0" d="M136.8,30.7l0.4-1.1l0.6-1.5l1.5,0.6l-1.9,4.7l-1.4-0.6l-0.6-3.2l-0.4,1.1l-0.6,1.5l-1.5-0.6l1.9-4.7l1.4,0.6
			L136.8,30.7z"/>
		<path class="st0" d="M138.9,33.7l1.3-4.9l1.6,0.4l-1.3,4.9L138.9,33.7z"/>
		<path class="st0" d="M141.6,34.5l2.5-4.8l1.7,0.2l1.1,5.3l-1.6-0.2l-0.1-0.7l-1.6-0.2l-0.3,0.6L141.6,34.5z M144.7,31.4l-0.8,1.7
			l1,0.1L144.7,31.4z"/>
		<path class="st0" d="M152.8,35.3l-1.1,0l-0.1-0.5c-0.3,0.3-0.7,0.6-1.5,0.6c-1.3,0-2.4-0.9-2.4-2.6c0-1.6,1-2.7,2.7-2.7
			c1.2,0,2.2,0.6,2.4,1.9l-1.6,0c-0.1-0.4-0.4-0.6-0.8-0.6c-0.7,0-1,0.6-1,1.5c0,0.7,0.2,1.4,1.1,1.4c0.3,0,0.8-0.2,0.8-0.6l-0.7,0
			l0-1.1l2.3,0L152.8,35.3z"/>
		<path class="st0" d="M153.9,35.3L155,30l1.7-0.2l2.5,4.8l-1.6,0.2l-0.3-0.6l-1.6,0.2l-0.1,0.7L153.9,35.3z M156,31.4l-0.3,1.9
			l1-0.1L156,31.4z"/>
		<path class="st0" d="M161.3,32.1l0.5,1.7l-1.6,0.5l-1.4-4.8l2.3-0.7c1.6-0.5,2.3-0.2,2.6,0.7c0.2,0.6,0.1,1.1-0.5,1.4
			c0.6,0,0.9,0.1,1.2,1c0.2,0.6,0.2,0.9,0.4,0.8l0,0.1l-1.6,0.5c-0.1-0.1-0.2-0.4-0.3-0.8c-0.2-0.6-0.4-0.8-1.1-0.6L161.3,32.1z
			 M160.9,31.1l0.6-0.2c0.5-0.1,0.7-0.4,0.6-0.7c-0.1-0.3-0.4-0.4-0.8-0.3l-0.7,0.2L160.9,31.1z"/>
		<path class="st0" d="M165.6,32.6l-0.7-5.3l1.5-0.8l3.9,3.7l-1.5,0.7l-0.5-0.5l-1.5,0.7l0.1,0.7L165.6,32.6z M166.3,28.3l0.4,1.8
			l0.9-0.5L166.3,28.3z"/>
	</g>
	<g>
		<polygon class="st2" points="127.4,22.1 125.4,19.2 127.4,16.4 129.3,19.2 		"/>
	</g>
	<g>
		<polygon class="st2" points="173.5,22.1 171.6,19.2 173.5,16.4 175.5,19.2 		"/>
	</g>
	<path class="st3" d="M132.3,19.2c0-5.4,8.1-9.9,18.1-9.9c10,0,18.1,4.4,18.1,9.9s-8.1,9.9-18.1,9.9C140.4,29,132.3,24.6,132.3,19.2
		z"/>
	<g>
		<path class="st4" d="M156.5,12.1c0,0,0.7-0.4,1.4-0.3c0.7,0.1,1,0.3,1.4,0.3c0.4,0,0.8-0.3,1.4-0.3c0.6,0,1.6,0.2,1.9,0.4
			c0.3,0.2,0.9,0.4,1.3,0.6c0.4,0.2,1.3,0.6,1.3,0.6l2.7,3l-5.7-1.5L156.5,12.1z"/>
		<path class="st4" d="M146.2,12c0,0-1.2-0.5-1.8-0.4c-0.6,0.1-2.1,0.2-2.5,0.2c-0.4,0-0.7-0.2-1.2-0.2c-0.5,0-0.7,0.8-1.2,0.8
			c-0.6,0.1-1.1-0.4-1.6-0.3c-0.4,0.1-2.9,1.4-4.4,3.4C133.6,15.6,138.7,12.7,146.2,12z"/>
		<path class="st5" d="M161.5,23l2.6,0.1c0,0,0.8-4,1.6-4.2c0.6-0.2,1.7,0.2,2.2-0.3c0.6-0.5,0.4-1.5,0-2.1
			c-0.9-1.3-2.9-2.1-4.4-2.6c-1.9-0.6-3.1-0.7-5.7-1.5c-1.6-0.5-3.5-0.6-5.2-0.7c-1.9-0.1-3.7,0.2-5.6,0.2c-1.5,0-4.3,0.3-6.9,1
			c-1,0.3-1.7,0.3-2.6,0.8c-0.3,0.2-0.6,0.4-0.9,0.5c-0.4,0.3-1.4,0.5-1.9,0.7c-0.2,0.1-1.1,0.7-1.3,0.9c-0.7,0.7-0.5,3.4,0.7,3.4
			c0,0.7,4.2,4.7,4.2,4.7L161.5,23z"/>
		<path class="st6" d="M162.9,19.6c-0.5-0.3-0.5-0.5-0.8-0.9c-0.4-0.5-0.7,0.1-1.2-0.6c-0.1-0.2,0.6-0.3,0.7-0.6
			c-0.4-0.1-0.9,0.6-1.2,0.4c-0.4-0.2,0.9-0.8,0.8-0.8c-0.1,0-0.8,0.4-1.2,0.5c-0.3,0.1-0.3,0-0.6,0c0-0.5,1.2-0.9,1.7-1
			c-0.5,0.1-1.8,0.3-2,0.8c-0.4,0.1-0.3-0.3-0.5-0.5c-0.3-0.4-1.3-0.1-1.2-0.5c0.1-0.5-0.7-0.3-1.1-0.4c-0.4-0.1-1,0-1.4-0.2
			c0.2-0.4,0.8-0.5,1-0.9c-0.6,0.1-1.1,0.7-1.7,0.8c-0.3,0-0.4-0.2-0.7-0.2c-0.2,0-0.4,0-0.6,0c0-0.3,0.4-0.5,0.6-0.7
			c-0.3-0.2-0.8,0.2-1.1,0.4c-0.4,0.2-0.7,0.1-0.8,0.1c-0.1,0,0.4-0.3,0.6-0.5c0.3-0.2,0.8-0.7,0.7-0.7c-0.1,0-1.2,0.7-1.8,1
			c-0.5,0.3-1.1,0.2-1.6,0.1c-0.2,0-0.7-0.8-0.9-0.8c-0.2,0,0.6,0.8,0.6,0.8c-0.1,0-0.4,0-0.6,0c-0.2,0-0.3,0-0.4,0.1
			c-0.4-0.1-0.8-0.5-1.3-0.4c0.2,0.1,0.5,0.2,0.7,0.3c0.2,0.1,0.3,0.1,0.3,0.2c-0.1,0-0.2,0.1-0.2,0.2c-0.5,0.5-1-0.2-1.1-0.2
			c-0.2,0.1,0.6,0.6,0.3,0.9c-0.1,0.1-0.6,0-0.9,0c-0.2,0,0.4,0.4-0.6,0.3c-0.2,0-0.3-0.2-0.5-0.2c-0.6-0.1-0.1,0.4-0.5,0.5
			c-0.3,0.1-0.4-0.3-0.7-0.3c-0.5,0.1-1.4-0.7-1.6-0.6c-0.2,0.1,1.1,0.6,1.2,1c-0.4,0-0.6-0.2-1-0.3c-0.4-0.1-1.4-0.8-1.4-0.6
			c0,0.2,1.5,0.5,1.5,1c-0.5,0.1-0.4,0-0.8,0.4c-0.2,0.2,0.5,0.5,0.3,0.6c-0.1,0-1-0.3-1.2-0.3c-0.2,0,0.5,0.5,0.2,0.6
			c-0.3,0-1.3-0.2-1.6-0.2c-0.3,0,0.8,0.5,0.2,0.6c-0.5,0-1.4-0.7-1.7-0.5c-0.2,0.1,1,0.5,0.8,0.8c-0.3,0.4-0.4,0.4-0.6,0.7
			c-0.1,0.2-0.1,0.4-0.1,0.6c0.1,0.6-0.9,1.3-0.8,2c0.1,0.7,1.6,1.3,1.8,2c0.1,0.4,0.3,0.7,0.4,1.1c0.1,0.5,0,1,0.6,1.3
			c0,0.5,0.9,0.5,1.3,0.6c0.9,0.3,1.5,0.9,2.4,1.1c1.8,0.3,4.1,0.6,6,0.6c1.3,0,3,0,4.2-0.1c0.6-0.1,2.3-0.5,2.9-0.5
			c0.5,0,0.6-0.1,1.1-0.2c0.5-0.1,0.1-0.5,0.2-1c0.1-0.5,0.1-1,0.5-1.5c0.2-0.2,2.7-2.1,3.1-2.8c0.4-0.7,1.1-0.9,1.3-1.7
			c0-0.2,0.2-0.5,0.2-0.7C163.4,20,163.4,19.8,162.9,19.6z"/>
		<path class="st7" d="M149.1,27c0,0-0.3,0-0.3,0.1c0,0,0.2,0.1,0.2,0.1c0,0,0.1,0,0.2,0.1c0,0,0,0,0,0.1c-0.1,0.1,0,0.1-0.1,0.1
			c-0.1,0-0.3,0.1-0.4,0.1c-0.1,0-0.2,0.1-0.3,0.2c-0.1,0.1-0.2,0.2-0.5,0.2c-0.2,0-0.3,0.1-0.3,0.2c0,0.1,0.1,0.1,0.2,0.2
			c0,0,0.7,0.2,0.6,0.3c0,0-0.8,0-0.9,0c-0.2,0-0.4,0.2-0.6,0.2c-0.1,0-0.3,0-0.4,0c-0.1,0-0.1-0.1-0.2-0.1c-0.1,0-0.1,0-0.2-0.1
			c-0.1-0.1-0.1-0.2-0.1-0.3c0-0.1,0.1-0.2,0.2-0.3c0.1-0.1,0.2-0.1,0.3-0.2c0.1,0,0.1,0,0.2-0.1c0.1,0,0.1-0.1,0.2-0.1
			c0.1,0,0.2,0,0.4,0c0.3,0,0.5-0.2,0.8-0.3c0.1,0,0.3-0.1,0.3-0.1c0.1-0.1,0-0.1,0-0.2c0,0,0.1-0.1,0.1-0.1c0.1,0,0.2-0.1,0.2-0.1
			C148.8,26.8,149,26.9,149.1,27c0.1-0.1,0.2-0.1,0.3-0.1c0,0,0.1,0,0.1,0c0,0-0.2,0-0.2,0C149.3,26.9,149.2,26.9,149.1,27L149.1,27
			z"/>
		<g>
			<path class="st8" d="M140,22.6c-0.1-1.8-0.9-2.8-0.9-2.9c-0.4-0.4-0.7-0.3-0.7-0.3l0,0c-0.1,0-0.1,0.1-0.1,0.2
				c0,0.1,0.1,0.1,0.2,0.1l0,0h0c0,0,0.2,0,0.4,0.2c0,0,0.7,1,0.8,2.7l0,0c0,0.1,0.1,0.1,0.2,0.1C140,22.8,140,22.7,140,22.6
				L140,22.6z"/>
		</g>
		<g>
			<path class="st8" d="M141.3,25.3c-0.1-0.1-0.1-0.1-0.2-0.1c0,0,0,0,0,0c0,0,0,0,0,0c-0.1-0.1-0.2-1.2-0.2-1.7
				c-0.2-2.3-1.1-3.9-1.1-3.9l0,0l0,0c-0.4-0.3-0.8-0.4-0.8-0.5l0,0c-0.1,0-0.2,0-0.2,0.1c0,0.1,0,0.2,0.1,0.2l0,0l0,0
				c0,0,0.4,0.2,0.8,0.4l0,0c0,0,0.9,1.6,1.1,3.8c0.2,1.9,0.2,1.9,0.4,2c0,0,0,0,0,0l0,0c0,0,0,0,0,0l0,0c0,0.1,0.1,0.1,0.2,0
				C141.4,25.4,141.4,25.3,141.3,25.3L141.3,25.3z"/>
		</g>
		<path class="st8" d="M141.5,21.6c-0.3,0.1-0.5-2.4-0.8-2.6c-0.3-0.2,0-0.4,0.2-0.3c0.2,0.1,0.3,0.2,0.6,0c0.3-0.1,0.3-0.1,0.6-0.3
			c0.6-0.3,0-0.6,0.4-0.8c0.4-0.2,0.9,0,1,0.2c0.1,0.2,0.3,1.3,0,1.3c-0.3,0,0,0-0.3-0.5c-0.3-0.4-0.1,0.1-0.3,0.3
			c-0.2,0.2-0.3,0.2-0.6,0c-0.2-0.2-0.6-0.2-0.6,0c0,0.2,0.3,0.8-0.1,0.6c-0.4-0.2-0.3,0.2-0.3,0.6
			C141.4,20.6,141.7,21.5,141.5,21.6z"/>
		<path class="st8" d="M144.6,16.9c-0.6-0.1-0.3,0.3,0,0.5c0.3,0.2,0.6,0.2,0.7,0.5c0,0.3,0,0.8,0.1,1.2c0,0.3,0.3,0.4,0.3,0
			c0-0.4,0.1-1.4-0.2-1.7c-0.3-0.3,0.1-0.6,0.2-0.4c0.1,0.2,0.3,0.4,0.3,0.8c0.1,0.4,0,0.6,0.2,0.6c0.3,0,0.2-0.2,0.4-0.4
			c0.2-0.1,0.3-0.3,0.4,0c0.1,0.3-0.2,0.6-0.1,0.9c0.1,0.2,0.4,0.6,0.4,0.3c0-0.2-0.1-0.3-0.1-0.6c0-0.2,0.1-0.2,0.2-0.6
			c0-0.4,0.1-0.7-0.3-0.7c-0.5,0-0.4,0.2-0.7-0.1c-0.2-0.3-0.1-0.6-0.5-0.6C145.5,16.5,145.2,17,144.6,16.9z"/>
		<g>
			<path class="st8" d="M148.2,19.8c0-1.2-0.1-2.2-0.3-2.8c-0.2-0.4-0.3-0.6-0.4-0.6l0.1,0.1c-0.2-0.4-0.7-0.5-0.7-0.5l0,0
				c-0.1,0-0.1,0-0.2,0.1c0,0.1,0,0.2,0.1,0.2l0,0l0,0c0,0,0.3,0,0.5,0.3l0,0l0.1,0c0,0,0,0,0,0c0,0,0.5,0.3,0.5,3l0,0
				c0,0.1,0.1,0.1,0.2,0.1C148.2,20,148.2,19.9,148.2,19.8L148.2,19.8z"/>
		</g>
		<g>
			<path class="st8" d="M154.9,16.3c-0.1,0-1,0.4-1,4.5l0,0c0,0.1,0.1,0.1,0.1,0.1c0.1,0,0.1-0.1,0.1-0.1l0,0c0-3.8,0.8-4.2,0.8-4.2
				l0,0c0,0,0,0,0,0l0,0c0.1,0,0.1-0.1,0.1-0.2C155.1,16.3,155,16.3,154.9,16.3L154.9,16.3z"/>
		</g>
		<g>
			<path class="st8" d="M154.7,19.1c0.1-2.2,0.8-2.4,0.8-2.4l-0.1,0l0.1,0c0.1,0,0.1-0.1,0.1-0.2c0-0.1-0.1-0.1-0.2-0.1l0,0
				c-0.1,0-0.9,0.2-1.1,2.7l0,0c0,0.1,0.1,0.1,0.1,0.1C154.6,19.3,154.7,19.2,154.7,19.1L154.7,19.1z"/>
		</g>
		<g>
			<path class="st8" d="M157.2,16.8c-0.1,0-0.6,0.3-0.7,2.6l0,0c0,0.1,0.1,0.1,0.1,0.2c0.1,0,0.1-0.1,0.2-0.1l0,0
				c0.1-2.1,0.5-2.4,0.5-2.4c0,0,0,0,0,0l0,0c0.1,0,0.1-0.1,0.1-0.2C157.3,16.9,157.3,16.8,157.2,16.8L157.2,16.8z"/>
		</g>
		<g>
			<path class="st8" d="M157.6,17.1c0,0-0.6,0.7-0.6,1.5l0,0c0,0.1,0.1,0.1,0.2,0.1c0.1,0,0.1-0.1,0.1-0.2l0,0
				c0-0.7,0.5-1.3,0.5-1.3v0c0.1-0.1,0.1-0.2,0-0.2C157.7,17,157.6,17,157.6,17.1L157.6,17.1z"/>
		</g>
		<g>
			<path class="st8" d="M157.9,19.4c0-0.5,0.2-0.7,0.4-0.8c0.1,0,0.1-0.1,0.2-0.1c0.5-0.3,0.7-0.4,0.7-0.6l0,0c0-0.1,0-0.2-0.1-0.2
				c-0.1,0-0.2,0.1-0.2,0.1c0,0,0,0,0,0c0,0.1-0.8,0.5-0.8,0.6c-0.4,0.3-0.5,0.4-0.6,2.4c0,0.8,0,1.9-0.1,2.1l0,0c0,0.1,0,0.2,0,0.2
				c0.1,0,0.2,0,0.2,0C157.7,23,157.9,19.7,157.9,19.4z"/>
		</g>
		<g>
			<path class="st8" d="M158.5,21.4c0-2.3,0-2.3,0.3-2.5c0.1-0.1,0.3-0.2,0.5-0.3c0.2-0.1,0.5-0.2,0.6-0.4l0,0c0-0.1,0-0.2-0.1-0.2
				c-0.1,0-0.2,0-0.2,0.1l0,0c-0.1,0.1-0.2,0.3-0.4,0.4c-0.2,0.1-0.4,0.2-0.6,0.4c-0.3,0.4-0.3,3-0.2,3
				C158.5,21.8,158.5,21.5,158.5,21.4L158.5,21.4z"/>
		</g>
		<g>
			<path class="st8" d="M160,18.6c-0.1,0.1-0.2,0.2-0.3,0.3c-0.3,0.2-0.6,0.4-0.7,1.2c0,0.2,0,0.5,0,0.7c0,0.2,0,0.5,0,0.6l0,0
				c0,0.1,0,0.2,0.1,0.2c0.1,0,0.2,0,0.2-0.1l0,0c0.1-0.2,0.1-0.4,0-0.7c0-0.2,0-0.4,0-0.6c0.1-0.7,0.3-0.8,0.5-1
				c0.1-0.1,0.3-0.2,0.4-0.3l0,0c0-0.1,0-0.2,0-0.2C160.1,18.5,160,18.5,160,18.6L160,18.6z"/>
		</g>
		<g>
			<path class="st8" d="M161.1,19c0,0-1,0.4-1,1.6c0,0-0.1,0.4,0,0.4c0.1,0,0.1-0.1,0.1-0.2l0,0c0-1,1-1.6,1-1.6l0,0
				c0.1,0,0.1-0.1,0.1-0.2C161.3,19,161.2,19,161.1,19L161.1,19z"/>
		</g>
		<g>
			<path class="st8" d="M161.6,19.4c-0.7,0.1-1.1,1-1.2,2.3l0,0c0,0.1,0.1,0.2,0.1,0.2c0.1,0,0.2-0.7,0.2-0.7
				c0.1-1.1,0.4-1.3,0.9-1.4l0,0c0.1,0,0.1-0.1,0.1-0.2C161.8,19.4,161.7,19.4,161.6,19.4L161.6,19.4z"/>
		</g>
		<g>
			<path class="st8" d="M156.1,16.5c0,0-0.8,0.6-0.8,2.8l0,0c0,0.1,0.1,0.1,0.1,0.1c0.1,0,0.1-0.1,0.2-0.1l0,0c0-2,0.7-2.5,0.7-2.5
				l0,0c0.1,0,0.1-0.1,0-0.2C156.2,16.5,156.1,16.5,156.1,16.5L156.1,16.5z"/>
		</g>
		<g>
			<path class="st8" d="M141.3,22.5c-0.4-2.7-1.1-3.4-1.2-3.4l0,0l0,0c-0.6-0.4-0.9-0.3-0.9-0.3l0,0c-0.1,0-0.1,0.1-0.1,0.2
				c0,0.1,0.1,0.1,0.2,0.1l0,0h0c0,0,0.2-0.1,0.6,0.2l0,0c0,0,0.7,0.7,1.1,3.3l0,0c0,0.1,0.1,0.1,0.2,0.1
				C141.2,22.6,141.3,22.5,141.3,22.5L141.3,22.5z"/>
		</g>
		<g>
			<path class="st8" d="M141.5,19.4L141.5,19.4c0,0,0.8,1.7,0.8,2.8c0,0,0.2,3.1,0.4,3.2l0,0c0.1,0,0.2,0,0.2-0.1
				c0-0.1,0-0.2-0.1-0.2l0,0c0,0,0,0,0,0c-0.1-0.2-0.2-1.8-0.2-2.8c0-1-0.8-3.1-0.9-3.2l0,0c0-0.1-0.1-0.1-0.2-0.1
				C141.5,19.3,141.4,19.4,141.5,19.4L141.5,19.4z"/>
		</g>
		<g>
			<path class="st8" d="M143.4,18L143.4,18c0,0,0.7,0.5,0.7,1.2l0,0.9c0,2.2,0,3.4,0.1,3.6l0,0c0,0.1,0.1,0.1,0.2,0.1
				c0.1,0,0.1-0.1,0.1-0.2l0,0c-0.1-0.2-0.2-2.5-0.1-3.6l0-1c0-0.9-0.7-1.3-0.7-1.3l0,0c-0.1,0-0.2,0-0.2,0
				C143.3,17.8,143.3,17.9,143.4,18L143.4,18z"/>
		</g>
		<g>
			<path class="st8" d="M148.1,16.4c0.2,0.1,0.6,2,0.4,3.6c-0.2,1.5-0.1,3.3-0.1,3.3l0,0c0,0.1,0.1,0.1,0.2,0.1
				c0.1,0-0.1-2.1,0.1-3.6c0.2-1.3,0.1-3.5-0.4-3.8l0,0c-0.1,0-0.2,0-0.2,0.1C148,16.2,148,16.3,148.1,16.4L148.1,16.4z"/>
		</g>
		<path class="st6" d="M137,17.5c-0.4,0-0.9-0.2-1.3,0c0.5,0,1.1,0.1,1.5,0.3C137.1,17.7,137,17.6,137,17.5"/>
		<path class="st6" d="M141.1,17c-0.3-0.1-0.8-0.3-1.2-0.2C140.2,16.8,140.6,17,141.1,17"/>
		<path class="st6" d="M141.4,15.6c-0.2-0.2-0.7-0.5-1-0.6C140.7,15.2,141,15.5,141.4,15.6"/>
		<path class="st6" d="M162.1,16.5c-0.3,0-0.9,0.1-1.2,0.2C161.3,16.7,161.7,16.7,162.1,16.5"/>
		<path class="st6" d="M159.9,16.5c-0.3,0-0.9,0.1-1.2,0.2C159.1,16.7,159.5,16.7,159.9,16.5"/>
		<path class="st6" d="M163.4,16.9c-0.4,0.1-2,0.4-2,0.4c0,0,1.3-0.3,1.5-0.4C163.1,16.9,163.7,16.8,163.4,16.9z"/>
		<path class="st6" d="M151.6,12.1c1.1,0.1,2.2-0.2,3.2,0.2c-0.5,0-1.1-0.1-1.6-0.1c-0.3,0-0.6,0-0.9,0
			C152,12.2,151.8,12.1,151.6,12.1"/>
		<path class="st6" d="M157.4,12.6c0.3,0,0.6,0.2,0.8,0.3c0.2,0.1,0.4,0.1,0.6,0.2c0.3,0.1,0.6,0.4,0.9,0.6c-0.1,0-0.2-0.1-0.3-0.1
			c-0.1,0-0.2-0.1-0.3-0.1c-0.2-0.1-0.3-0.2-0.6-0.3c-0.2,0-0.4-0.1-0.6-0.2C157.6,12.7,157.4,12.7,157.4,12.6
			C157.2,12.6,157.4,12.6,157.4,12.6z"/>
		<path class="st6" d="M164.9,17.5c-0.5,0-0.9-0.1-1.4-0.1c-0.3,0-0.6,0.2-0.8,0.2c0.4,0,0.7,0,1.1-0.1c0.3,0,0.7,0,0.9-0.1"/>
		<path class="st6" d="M162.8,15.1c-0.5,0-1-0.1-1.5-0.1c-0.6,0-1.2,0.1-1.7,0.2c0.5,0,1-0.1,1.6-0.1c0.5,0,1.5,0.2,1.5,0.1"/>
		<path class="st6" d="M161.3,15.6c0-0.1-2,0-2.9,0.3c-0.4,0.1-1.1,0.4-1.1,0.5c0.1,0.1,0.7-0.4,1-0.4c0.3-0.1,0.6-0.1,1-0.1
			c0.4-0.1,0.7-0.1,1.1-0.1C160.6,15.8,160.9,15.6,161.3,15.6"/>
		<path class="st6" d="M148.5,12.3c-0.9,0-1.9-0.1-2.8,0.1c0.4,0,0.9,0,1.4,0c0.4,0,0.9-0.1,1.3-0.1"/>
		<path class="st6" d="M145.5,13.4c-0.6,0.1-1.4,0-2,0.2c-0.2,0.1-0.6,0.3-0.7,0.4c0.5,0,1.1-0.3,1.5-0.3c0.2,0,0.5,0,0.7,0
			C145.1,13.6,145.3,13.5,145.5,13.4L145.5,13.4z"/>
		<path class="st6" d="M158.9,14.6c0.2-0.2-1.4,0-2,0.2c-0.2,0.1-0.6,0.2-0.7,0.3c0.5,0,1-0.3,1.5-0.3c0.2,0,0.5,0,0.7-0.1
			C158.5,14.8,158.7,14.6,158.9,14.6"/>
		<path class="st6" d="M144.2,14.6c0.6,0.3,1.4,0.2,1.7,0.9c-0.1-0.1-0.2-0.3-0.4-0.4c-0.2-0.1-0.3,0-0.5-0.1
			C144.6,15,144.3,14.7,144.2,14.6C143.9,14.5,144.2,14.6,144.2,14.6z"/>
		<g>
			<path class="st8" d="M145.4,19.8c0,0-0.1,1.1-0.1,2.3c0,2.4,0.3,2.5,0.4,2.5l0,0c0.1,0,0.2,0,0.2-0.1c0-0.1-0.3-0.8-0.3-0.8
				c-0.3-0.2-0.1-1.8,0-3.9l0,0c0-0.1-0.1-0.2-0.1-0.2C145.4,19.7,145.4,19.8,145.4,19.8L145.4,19.8z"/>
		</g>
		<g>
			<path class="st8" d="M144.9,22.5c-0.1-1.3,0.1-3.3,0.1-3.3c-0.1-1-0.3-1.6-0.8-1.8l0,0c-0.1,0-0.2,0-0.2,0.1c0,0.1,0,0.2,0.1,0.2
				l0,0c0.4,0.1,0.6,0.7,0.6,1.5c0,0,0,2.4,0,3.7c0.1,1,0.1,0.8,0.3,1.7l0.2,0.8c0,0.1,0.1,0.1,0.2,0.1c0.1,0-0.2-0.9-0.2-1
				C145.2,24.5,145,23.7,144.9,22.5z"/>
		</g>
		<g>
			<path class="st8" d="M141.8,19.1L141.8,19.1c0,0,0.8,0.5,0.9,1.8c0,1.3,0.3,3,0.3,3.3l0,0c0,0.1,0.1,0.1,0.2,0.1
				c0.1,0,0.1-0.1,0.1-0.2l0,0c-0.1-0.4-0.3-2-0.3-3.3c0-1.4-1-2-1-2l0,0c-0.1,0-0.2,0-0.2,0C141.7,19,141.7,19,141.8,19.1
				L141.8,19.1z"/>
		</g>
		<g>
			<path class="st8" d="M142.4,18.9L142.4,18.9c0.2,0.3,0.7,1,0.7,1.5c0,0.6,0.1,2.8,0.3,3.4l0,0c0,0.1,0.1,0.1,0.2,0.1
				c0.1,0-0.1-0.4-0.1-0.4c-0.2-0.5-0.2-2.3-0.2-3c0-0.7-0.7-1.8-0.7-1.9l0,0c0-0.1-0.1-0.1-0.2,0C142.4,18.7,142.4,18.8,142.4,18.9
				L142.4,18.9z"/>
		</g>
		<g>
			<path class="st8" d="M140.1,23c0,0.1,0.1,2.7,0.4,3.3l0,0c0,0.1,0.1,0.1,0.2,0.1c0.1,0,0.1-0.1,0.1-0.2l0,0
				c-0.3-0.5-0.4-2.5-0.4-3.2l0,0c0-0.1-0.1-0.1-0.2-0.1C140.2,22.9,140.1,22.9,140.1,23L140.1,23z"/>
		</g>
		<g>
			<path class="st8" d="M141.7,21.9c0,0.1,0.1,2.5,0.1,2.7c0,0.5,0.1,1.1,0.5,1.7l0,0c0,0.1,0.1,0.1,0.2,0c0.1,0,0.1-0.1,0-0.2l0,0
				c-0.3-0.5-0.5-1.6-0.5-1.8c-0.1-0.6,0-2.4,0-2.4l0,0c0-0.1-0.1-0.1-0.1-0.2C141.7,21.7,141.7,21.8,141.7,21.9L141.7,21.9z"/>
		</g>
		<g>
			<path class="st8" d="M148.2,15.7L148.2,15.7c0.2,0.2,0.6,0.6,0.6,0.9l0,0.1c0.2,2,0.2,2.7,0.1,3c-0.2,0.6-0.1,2.4,0,2.8l0,0
				c0,0.1,0.1,0.1,0.2,0.1c0.1,0,0.1-0.1,0.1-0.2l0,0c-0.1-0.4-0.1-2.1,0-2.7c0.1-0.4,0.1-1.4-0.1-3.1l0-0.1c-0.1-0.5-0.6-1-0.7-1.1
				l0,0c-0.1-0.1-0.2-0.1-0.2,0C148.1,15.6,148.1,15.6,148.2,15.7L148.2,15.7z"/>
		</g>
		<path class="st8" d="M149.7,21.9c-0.2-0.5-0.4-1.5-0.1-2.6c0.2-1.1-0.1-2.7-0.1-2.8c0-0.2-0.3-0.8-0.3-0.8s-0.4-0.3,0.2-0.3
			c0.6,0,0.7,0.1,1,0.2c0.3,0.1,0.6,0,0.9-0.1c0.3-0.1,0.6,0,0.7,0.2c0.4,0.4,0.1,0.4-0.1,0.5c-0.2,0-0.4,0-0.9,0
			c-0.5,0-0.7-0.2-0.9,0c-0.2,0.2-0.2,0.5-0.1,0.8c0.1,0.3,0.2,1.4,0.1,1.7c-0.1,0.2-0.3,1.2-0.3,1.8c0,0.5,0.2,1.6,0.2,1.8
			C149.9,22.2,149.7,22,149.7,21.9z"/>
		<g>
			<path class="st8" d="M160.7,18.7c-0.4,0.1-1,0.8-1.1,1.5c-0.1,0.3-0.1,0.5-0.1,0.7c0,0.2,0,0.4-0.1,0.7c-0.1,0.8-0.4,1.6-0.7,1.8
				l0,0c-0.1,0-0.1,0.1-0.1,0.2c0,0.1,0.1,0.1,0.2,0.1l0,0c0.6-0.3,1-3.2,1.1-3.5c0.1-0.6,0.7-1,0.9-1.1l0,0c0.1,0,0.1-0.1,0.1-0.2
				C160.9,18.7,160.8,18.7,160.7,18.7L160.7,18.7z"/>
		</g>
		<g>
			<path class="st8" d="M150.1,16.4L150.1,16.4c0,0,0.4,1.2,0.1,2.1c-0.1,0.4-0.1,1.1-0.1,1.6l0,0c0,0.1,0.1,0.2,0.1,0.2
				c0.1,0,0.1-0.1,0.1-0.1l0,0c0-0.7,0.1-1.3,0.1-1.6c0.3-1-0.1-2.2-0.1-2.3l0,0c0-0.1-0.1-0.1-0.2-0.1
				C150.2,16.3,150.1,16.3,150.1,16.4L150.1,16.4z"/>
		</g>
		<g>
			<path class="st8" d="M150.8,16.4L150.8,16.4c0,0,0.1,0.4,0.1,0.9c0,0.3,0,0.6,0,0.9c0,0.3,0,0.6,0,0.8c0,0.1,0,0.3,0,0.5l0,0
				c0,0.1,0.1,0.1,0.1,0.2c0.1,0,0.1-0.1,0.1-0.1l0,0c0-0.2,0-0.4,0-0.5c0-0.2,0-0.5,0-0.8c0-0.3,0-0.6,0-0.9c0.1-0.6-0.1-1-0.1-1
				l0,0c0-0.1-0.1-0.1-0.2-0.1C150.8,16.2,150.8,16.3,150.8,16.4L150.8,16.4z"/>
		</g>
		<g>
			<path class="st8" d="M151.2,16.4L151.2,16.4c0,0,0.2,1.5,0.1,2.2l0,0c0,0.1,0,0.2,0.1,0.2c0.1,0,0.2,0,0.2-0.1l0,0
				c0.1-0.8-0.1-2.3-0.1-2.3l0,0c0-0.1-0.1-0.1-0.2-0.1C151.3,16.2,151.2,16.3,151.2,16.4L151.2,16.4z"/>
		</g>
		<g>
			<path class="st8" d="M157,22L157,22c0,1-0.2,1.9-0.4,2l0,0c-0.1,0-0.1,0.1-0.1,0.2c0,0.1,0.1,0.1,0.2,0.1l0,0
				c0.4-0.2,0.5-1.6,0.6-2.2l0,0c0-0.1-0.1-0.1-0.1-0.2C157.1,21.9,157,21.9,157,22L157,22z"/>
		</g>
		<g>
			<path class="st8" d="M156.9,20.7c0,0-0.4,0.4-0.5,0.9c0,0.1,0,0.3,0,0.5c0,0.5,0,1.1-0.2,1.3l0,0c-0.1,0.1-0.1,0.2,0,0.2
				c0.1,0.1,0.2,0.1,0.2,0l0,0c0.3-0.3,0.3-1,0.3-1.5c0-0.2,0-0.4,0-0.5c0-0.4,0.4-0.7,0.4-0.7l0,0c0.1-0.1,0.1-0.1,0-0.2
				C157,20.6,156.9,20.6,156.9,20.7L156.9,20.7z"/>
		</g>
		<path class="st8" d="M157,16.2c-0.1-0.2-0.6-0.1-0.8-0.1c-0.2,0-0.4-0.1-0.8-0.2c-0.3-0.1-1-0.2-1.3,0.2c-0.3,0.4-0.3,0.6-0.5,1.4
			c-0.1,0.8-0.1,2.3-0.2,3.3c0,0.9-0.3,2.3-0.5,2.6c0,0-0.1,0.2,0.1,0.2c0.2,0,0.5-1.5,0.5-1.5s0.1-0.8,0.2-2.3
			c0.2-3.4,0.8-3.4,0.9-3.4c0.1,0,0,0.2,0.1,0.3c0.2,0.2,0.4,0.2,0.7,0.1c0.1,0.4-0.3,0.8-0.1,0.9c0.2,0.2,0.6-0.2,0.9-0.5
			c-0.1,0.1-0.1,0.2-0.2,0.3c-0.1,0.3-0.2,3-0.1,3.2c0.1,0.2,0.2-0.3,0.2-0.3c-0.1-3.3,0.8-3.7,0.8-3.7S157.2,16.4,157,16.2z"/>
		<g>
			<path class="st8" d="M162.2,19.6c-0.7,0.1-1,0.9-1.1,1.3c0,0.1,0,0.1-0.1,0.2c0,0.1-0.1,0.3-0.1,0.5c-0.1,0.4-0.2,1.1-0.5,1.2
				l0,0c-0.1,0-0.1,0.1-0.1,0.2c0,0.1,0.1,0.1,0.2,0.1l0,0c0.5-0.2,0.7-2.3,0.7-2.4c0,0,0-0.1,0.1-0.2c0.1-0.4,0.3-0.6,0.8-0.6l0,0
				c0.1,0,0.1-0.1,0.1-0.2C162.3,19.7,162.3,19.6,162.2,19.6L162.2,19.6z"/>
		</g>
		<g>
			<path class="st8" d="M155.4,20.7c0,0.3-0.1,0.7-0.2,1.6c-0.2,0.9-0.3,1.3-0.5,1.8c-0.2,0.5,0.2,0.3,0.7-1.6l0.1-0.3l0.1-0.4
				c0.1-0.3,0.1-0.7,0.2-1l0,0c0-0.1,0-0.1-0.1-0.2C155.5,20.6,155.4,20.6,155.4,20.7L155.4,20.7z"/>
		</g>
		<g>
			<path class="st8" d="M153.4,16.1c-0.1,0.3-0.2,0.7-0.3,1.1l-0.1,0.5c-0.1,0.8-0.4,3.5-0.4,3.6c0,0.1,0,0.3,0,0.4
				c0,0.1,0,0.1-0.1,0.2c0,0.1-0.1,0.1-0.1,0.2l0,0c0,0.1,0,0.2,0.1,0.2c0.1,0,0.3-0.4,0.4-0.5c0-0.2,0-0.7,0-0.7
				c0-0.3,0-0.6,0.1-0.9c0.1-0.8,0.2-2.1,0.4-2.9c0,0,0.3-0.8,0.4-1.1l0,0c0-0.1,0-0.2-0.1-0.2C153.5,16,153.4,16,153.4,16.1
				L153.4,16.1z"/>
		</g>
		<g>
			<path class="st8" d="M151.6,16.5c0,0.2,0,0.5,0.1,0.7c0,0.2,0.1,0.5,0.1,0.7c0,0.2,0,0.5-0.1,0.7c-0.2,0.5-0.3,1-0.4,1.7l0,0
				c0,0.1,0.1,0.2,0.1,0.2c0.1,0,0.2,0,0.2-0.1l0,0c0.1-0.7,0.2-1.2,0.3-1.6c0.1-0.3,0.1-0.5,0.1-0.8c0-0.3,0-0.5-0.1-0.7
				c0-0.2-0.1-0.5-0.1-0.7l0,0c0-0.1-0.1-0.1-0.1-0.1C151.7,16.3,151.6,16.4,151.6,16.5L151.6,16.5z"/>
		</g>
		<path class="st8" d="M146.6,27c0.3,0.1,0.5-0.1,0.8-0.2c0.3-0.1,0.5-0.1,0.8-0.2c0.2-0.1,0.4-0.1,0.6-0.2c0.3,0,0.8-0.1,1.1-0.2
			c0,0,0,0,0,0c-0.2,0-0.4,0-0.6-0.1c-0.1,0-0.2-0.1-0.3-0.1c-0.1,0-0.1,0-0.1,0.1c-0.2,0.1-0.4,0-0.6,0c0,0-0.1,0.1-0.2,0.1
			c-0.1,0-0.3,0-0.4,0c0.1,0.3-0.5,0.2-0.7,0.2c0,0-0.1,0-0.2,0c0,0,0,0.1,0,0.1c-0.1,0.1-0.2,0-0.3,0.1c-0.1,0-0.2,0-0.3,0.1
			c0,0,0,0.1,0,0.1c0,0-0.1,0-0.1,0c-0.1,0-0.3,0-0.4,0c0-0.1,0-0.1-0.1-0.1c-0.1,0,0,0.1,0,0.2c-0.1,0.1-0.2,0.1-0.3,0.2
			c-0.1,0.1,0,0.2,0.1,0.3c0,0,0,0.1,0.1,0.1c0,0,0.2,0,0.2,0C145.8,27.3,146.4,26.8,146.6,27z"/>
		<path class="st8" d="M153.1,25c0.2,0,0.3,0.2,0.5,0.2c0,0,0-0.1,0.2-0.1c0.2,0,0.2,0,0.4,0.1c0.2,0.1,0.3,0.1,0.5,0.1
			c0,0,0.1,0,0.1,0c0.2,0,0.4,0.1,0.6,0.2c0.3,0.2,0.5,0.3,0.6,0.3c0.2,0,0.3-0.1,0.5,0c0.2,0.1,0.6,0.4,0.5,0.5
			c-0.1,0.1-0.2-0.2-0.2-0.1c0,0.1-0.4,0-0.5,0c-0.2-0.1-0.4-0.1-0.7-0.2c-0.2,0-0.3,0-0.5,0c-0.1,0-0.2,0-0.2-0.1
			c0,0-0.1-0.1-0.1-0.1c-0.1-0.1-0.2-0.1-0.3-0.1c-0.3,0-0.8-0.2-0.8-0.2c-0.2,0-0.3,0-0.5,0c-0.2,0-0.5,0.1-0.6,0
			c-0.2-0.1-0.1-0.4,0.2-0.3C152.8,25,153,24.9,153.1,25z"/>
		<path class="st8" d="M147.3,25.6c0.1-0.1,0.1-0.3,0.4-0.3c0.1,0,0.2,0.1,0.3,0.1c0.1,0,0.2-0.2,0.4-0.2c0.1,0,0.1,0.2,0.3,0.1
			c0,0,0-0.1,0-0.2c0.1,0,0.3,0,0.4,0c0,0,0-0.1-0.1-0.1c0.2,0,0.3,0,0.5,0c0.3,0,0.4,0.1,0.6,0c0.1,0,0-0.1,0.2-0.1
			c0.1,0,0.2,0,0.2,0.1c0.1,0.1,0.4,0.2,0.6,0.2c0,0.4-0.6,0.1-0.8,0.1c-0.5-0.1-1,0-1.5,0c-0.2,0-0.4,0-0.6,0.1
			c-0.2,0-0.3,0.1-0.5,0.2C147.7,25.8,147.3,25.9,147.3,25.6L147.3,25.6z"/>
		<path class="st8" d="M144.9,26.2c-0.3,0.1-0.8-0.2-1,0c-0.2,0.2-0.8,0-0.8,0.2c0,0.1,0.3,0.2,0.4,0.2c0.1,0,0,0.2,0.2,0.2
			c0.2,0,0.1-0.2,0.2-0.2c0.2-0.1,0.8,0,0.9-0.1c0.1,0-0.2-0.2,0-0.2c0.2,0,0.4,0,0.4-0.1H144.9z"/>
		<path class="st8" d="M146.9,25.8c-0.2-0.1-0.2-0.3-0.4-0.3c0,0.1-0.1,0.1,0,0.2c-0.1,0-0.3-0.1-0.4,0.1c-0.1,0-0.5,0-0.5,0.1
			c-0.1,0-0.2,0-0.3,0c0,0.1,0.1,0.1,0.2,0.2c0,0,0,0,0,0.1c0.1,0.1,0.2,0,0.3,0c0.1,0,0.2,0.2,0.4,0.1c0-0.1,0-0.2-0.1-0.2
			c0.1-0.1,0.3-0.1,0.4,0c0,0,0.1-0.1,0.1-0.1c0.1,0,0.1,0,0.2,0c0,0.1,0.1,0.1,0.1,0.1L146.9,25.8z"/>
		<path class="st8" d="M151.3,25.7c0.1,0.1-0.1,0.2,0.2,0.2c0.1,0,0.3-0.1,0.3-0.1c0.2,0,0.4,0.1,0.6,0c0.2,0,0.7,0.1,0.9,0
			c0.1,0,0.3,0,0.4,0c0.2-0.1,0.1-0.1,0-0.1c0,0,0.1,0,0.1,0c0-0.1-0.3,0-0.5,0c-0.2,0,0-0.2-0.4-0.1c-0.1,0-0.2,0.1-0.2,0.1
			c-0.2,0-0.5,0-0.6-0.1c-0.1,0-0.2,0-0.3,0.1c-0.1,0-0.2,0-0.3,0c0,0,0,0-0.1,0L151.3,25.7z"/>
		<path class="st8" d="M147.2,27.2c-0.2,0-0.5,0.2-0.7,0.3c-0.1,0-0.4,0.1-0.5,0.3c0.1,0,0.3,0,0.4,0c0.2,0,0.3-0.1,0.5-0.1
			c0.3,0,0.4,0,0.6-0.2c0.1-0.1,0.4-0.2,0.4-0.2c-0.2,0-0.4,0.1-0.6,0.1L147.2,27.2z"/>
		<path class="st8" d="M157.1,27.1c-0.1,0-0.3,0-0.4,0c-0.1,0-0.1-0.1-0.2-0.1c0,0,0.1-0.1,0.1-0.1c0,0-0.1,0-0.1,0
			c0.2-0.3-0.3-0.3-0.5-0.3c-0.1,0-0.3-0.1-0.4-0.2c0,0,0,0,0,0c0.2,0,0.4,0,0.6,0c0.1,0,0.4,0,0.5,0.1c0.1,0,0.3,0.4,0.3,0.5
			c0.1,0,0.1,0,0.2,0L157.1,27.1z"/>
		<path class="st9" d="M151.1,27.1c1.3,0,1.3-0.1,2.6,0.1c0.4,0,0.8,0.1,1.2,0.2c-0.2,0.2-0.5,0.1-0.5,0.2c0,0.1,0.3,0.1,0.5,0.1
			c0.3,0,0.3,0,0.5,0.1c0.2,0.1,0,0.1,0.2,0.2c0.1,0,0.5,0.2,0.6,0.3c0.1,0,0.4,0.2,0.4,0.2l-3.1,0.4l-4.1,0.1c0,0-1.8-0.2-2-0.4
			c0.1-0.1,1.6-0.1,1.3-0.2c-0.3-0.1-0.9-0.3-0.9-0.5c0-0.1,0.4-0.1,0.4-0.2c0.2-0.1,0.5-0.2,0.8-0.3c0.1,0,0.4-0.2,0.4-0.2
			c0-0.1-0.3-0.2-0.4-0.3c0.2-0.1,0.3,0,0.7,0C150.2,27,151.1,27.1,151.1,27.1z"/>
		<polygon class="st10" points="147.5,28.4 146.7,27.9 146.3,27.5 145.6,27.5 145.1,27.2 144.4,26.7 143.5,26.9 143.1,27.1 
			143.8,28.2 145.7,28.5 146.9,28.5 		"/>
		<polygon class="st6" points="144.5,26.9 145.4,27.5 144.7,27.4 144.4,27.3 144.1,27.2 144,27.2 143.6,27 143.8,26.9 144.2,27 
			144.3,27 		"/>
		<polygon class="st6" points="146.1,27.7 146.3,27.7 146.4,27.8 146.7,28.1 147.3,28.3 146.9,28.3 146.6,28.3 146.5,28.2 146.3,28 
			146.2,27.8 146,27.7 145.7,27.6 		"/>
		<radialGradient id="SVGID_1_" cx="149.7287" cy="10.5736" r="24.227" gradientUnits="userSpaceOnUse">
			<stop  offset="0" style="stop-color:#FFC20E"/>
			<stop  offset="0.6" style="stop-color:#F26522"/>
		</radialGradient>
		<path class="st11" d="M165.5,13.7l2.3,2.6C167.3,15.4,166.5,14.5,165.5,13.7z M133.6,15.6c1.5-2.1,3.9-3.3,4.4-3.4
			c0.4-0.1,1,0.4,1.6,0.3c0.5-0.1,0.7-0.8,1.2-0.8c0.5,0,0.8,0.2,1.2,0.2c0.4,0,1.9-0.1,2.5-0.2c0.4-0.1,1.2,0.2,1.6,0.3
			c0.4,0,0.7,0,0.9,0c1.9,0,3.8-0.2,5.6-0.1c1.3,0.1,2.7,0.1,3.9,0.3c0.1-0.1,0.8-0.4,1.4-0.3c0.7,0.1,1,0.3,1.4,0.3
			c0.4,0,0.8-0.3,1.4-0.3c0.6,0,1.6,0.2,1.9,0.4c0.3,0.2,0.9,0.4,1.3,0.6c0.2,0.1,0.6,0.3,0.9,0.4c-3.3-2.4-8.6-3.9-14.5-3.9
			c-7.8,0-14.4,2.7-17,6.4c0.1-0.1,0.2-0.2,0.3-0.3C133.7,15.5,133.6,15.6,133.6,15.6z M133.4,15.8c-0.1,0.1-0.2,0.3-0.2,0.5
			C133.2,16.1,133.3,15.9,133.4,15.8C133.4,15.8,133.4,15.8,133.4,15.8z M165.3,13.4c0,0-0.2-0.1-0.4-0.2c0.2,0.1,0.4,0.3,0.6,0.5
			L165.3,13.4z M167.9,16.5l-0.2-0.2C167.8,16.3,167.8,16.4,167.9,16.5L167.9,16.5z"/>
		<path class="st7" d="M153.9,27.1c0.2,0,0.3,0.1,0.6,0.1c0.2,0,0.5,0,0.7,0.1c-0.1,0-0.2,0.1-0.2,0.2c0.2,0.1,0.4,0.1,0.6,0.2
			c0.2,0.1,0,0.1,0,0.1c0.1,0,0.3,0.1,0.4,0.2c0.1,0.1,0,0.1,0.1,0.2c0.1,0.2,0.5,0.2,0.7,0.1c0.1,0,0.2,0,0.2-0.1c0,0,0-0.1,0-0.1
			c0.1-0.1,0.2,0,0.3,0c0.1,0,0.4,0.1,0.3-0.1c-0.1-0.1-0.3-0.2-0.4-0.2c-0.2,0-0.3-0.1-0.5-0.1c-0.2,0-0.4-0.1-0.6-0.1
			c-0.2-0.1-0.3-0.2-0.5-0.3c-0.2-0.1-0.4-0.2-0.6-0.3c-0.3-0.1-0.5-0.2-0.8-0.2c-0.4,0-1.6,0.1-1.5,0.2c0.1,0.1,0.6,0.1,0.7,0.1
			C153.6,27.2,153.9,27.1,153.9,27.1z"/>
		<path class="st8" d="M154.8,26.6c-0.1-0.4-1-0.1-1.3-0.2c0,0,0-0.1,0-0.1c-0.2,0.1-0.3,0.1-0.5,0.1c0,0,0,0.1-0.1,0.1
			c0,0-0.1,0-0.2,0c-0.1,0-0.1,0-0.1,0.1c0.4,0,0.7,0,1.1,0c0.2,0,0.5,0,0.7,0C154.6,26.6,154.7,26.7,154.8,26.6L154.8,26.6z"/>
		<path class="st8" d="M149.8,25.9c0,0.1,0.3,0,0.4,0c0.2,0,0.3,0.1,0.5,0.1c0,0.1,0.1,0.1,0.3,0.2c-0.1,0-0.2,0-0.3,0.1
			c0,0,0.1,0,0.1,0.1c-0.2,0-0.3,0-0.5,0.1c0.2,0.2,0.8,0,1,0c0,0-0.1-0.1-0.2-0.1c0,0,0.1,0,0.1,0c0,0,0-0.1,0-0.1
			c0-0.1,0-0.1,0-0.1c-0.2-0.1-0.3-0.1-0.5-0.1c-0.2-0.1-0.3-0.1-0.5-0.1C150.2,25.8,149.8,25.8,149.8,25.9z"/>
		<path class="st4" d="M154.8,10.2l-1.1,1.1l1.4-1C155,10.3,154.9,10.2,154.8,10.2z M153.8,10.1l-0.9,1.2l1.3-1.2
			C154,10.1,153.9,10.1,153.8,10.1z M152.7,10l-0.6,1.3l1-1.3C153,10,152.8,10,152.7,10z M155.7,10.4l-1.2,0.9l1.5-0.9
			C155.9,10.4,155.8,10.4,155.7,10.4z M156.5,10.5l-1.2,0.8l1.4-0.7C156.6,10.6,156.6,10.6,156.5,10.5z M150.4,9.9l0.4,1.4l0.1-1.4
			C150.7,9.9,150.6,9.9,150.4,9.9C150.4,9.9,150.4,9.9,150.4,9.9z M157.7,11.3l0.8-0.2c-0.1,0-0.1,0-0.2-0.1L157.7,11.3z
			 M157.8,10.9l-0.9,0.4l1.1-0.4C157.9,10.9,157.9,10.9,157.8,10.9z M157.2,10.7l-1.1,0.6l1.3-0.5C157.3,10.8,157.2,10.7,157.2,10.7
			z M151.2,11.3l0.7-1.4c-0.1,0-0.3,0-0.4,0L151.2,11.3z M142.5,11.1l0.9,0.2l-0.7-0.3C142.7,11,142.6,11,142.5,11.1z M149.2,9.9
			l0.7,1.4l-0.3-1.4C149.5,9.9,149.3,9.9,149.2,9.9z M143.1,10.9l1.2,0.4l-1-0.5C143.2,10.9,143.1,10.9,143.1,10.9z M142.1,11.2
			l0.6,0.1l-0.4-0.2C142.2,11.2,142.1,11.2,142.1,11.2z M143.7,10.7l1.4,0.6l-1.2-0.6C143.8,10.7,143.7,10.7,143.7,10.7z M147,10.1
			l1.3,1.2l-0.9-1.2C147.2,10.1,147.1,10.1,147,10.1z M148.1,10l1.1,1.3l-0.6-1.3C148.3,10,148.2,10,148.1,10z M146,10.2l1.5,1.1
			l-1.1-1.1C146.2,10.2,146.1,10.2,146,10.2z M145.1,10.4l1.6,0.9l-1.2-1C145.3,10.4,145.2,10.4,145.1,10.4z M144.3,10.6l1.5,0.7
			l-1.2-0.8C144.5,10.5,144.4,10.5,144.3,10.6z"/>
		<g>
			<defs>
				<path id="SVGID_00000150821555784701363670000012231198782046380467_" d="M132.3,19.2c0-5.4,8.1-9.9,18.1-9.9
					c10,0,18.1,4.4,18.1,9.9s-8.1,9.9-18.1,9.9C140.4,29,132.3,24.6,132.3,19.2z"/>
			</defs>
			<clipPath id="SVGID_00000067234994210938623430000014747645589012256418_">
				<use xlink:href="#SVGID_00000150821555784701363670000012231198782046380467_"  style="overflow:visible;"/>
			</clipPath>
			<g style="clip-path:url(#SVGID_00000067234994210938623430000014747645589012256418_);">
				<path class="st13" d="M168.3,17.7l-4,0.8l-1,3.6l-2.6,1.1l-2.1,2l-1,0.3l-0.6,2.8c0,0,4,1.2,9.5-2.5
					C171.9,22.1,168.3,17.7,168.3,17.7z"/>
				<path class="st6" d="M167,18.5c0,0-0.7,0.1-1,0.3c-0.3,0.1-0.4,1.3-0.4,1.3s0.2-0.8,0.6-0.9C166.6,19.1,167,18.8,167,18.5z"/>
				<path class="st6" d="M164.8,18.8c0,0,0,0.4-0.3,0.8c-0.3,0.4-0.3,1.7-0.3,1.7l-0.1,0.9c0,0,0.8-1.6,0.9-2
					C165.1,19.8,164.8,18.8,164.8,18.8z"/>
				<path class="st6" d="M166.7,20.2c0,0-0.8,0-1.2,0.7c-0.4,0.7-0.8,1.2-0.8,1.2s0.8-0.7,1.2-1.2C166.2,20.4,166.7,20.2,166.7,20.2
					z"/>
				<path class="st6" d="M161.9,23.3l-1,0.3l-1,1.1c0,0,0.9-0.7,1.3-0.8C161.6,23.7,161.9,23.3,161.9,23.3z"/>
				<path class="st6" d="M159.5,25.1c0,0-1,0.8-1.5,0.8l-0.4,1.2l0.9-1C158.4,26.1,159.3,25.8,159.5,25.1z"/>
				<polygon class="st6" points="163,22.9 163.4,22.7 162.8,23.5 				"/>
				<path class="st6" d="M165,22.4c0,0,0.8-0.9,1.2-1.2c0.3-0.2,1-0.6,1-0.6s-0.6,0.7-1,1C165.8,21.8,165,22.4,165,22.4z"/>
				<path class="st6" d="M161.8,25.3c0,0,1.5-0.6,1.8-1c0.3-0.4,0.6-0.9,0.6-0.9l-0.3,1.1l-0.4,0.7l-0.9,0.1L161.8,25.3z"/>
			</g>
			<g style="clip-path:url(#SVGID_00000067234994210938623430000014747645589012256418_);">
				<path class="st13" d="M132,16.6c0,0,2.2-0.4,2.7,0.9c0.5,1.3,0.5,1,0.5,1l2.1,0.3c0,0,0.9-0.1,0.8,0.8c-0.2,1.5-0.3,3-0.3,3
					l2,2.4l0.5,2l2.8-0.2l2.4,1.2l1.5,1.1l-5.9,1.2l-8.2-5.5l-2.3-5.4L132,16.6z"/>
				<path class="st6" d="M137.8,19.8c0,0,0-0.9-0.3-0.2c-0.2,0.4-0.4,0.3-0.4,0.4c0,0.1,0.2,2.5,0.2,2.5l0.9,1l-0.6-0.9L137.8,19.8z
					"/>
				<polygon class="st6" points="134.9,18.6 133.9,18.2 133.5,16.9 134.1,17.9 				"/>
				<polygon class="st6" points="134.6,22.3 136.2,22 137.9,23.7 139.3,25.9 137.3,24.1 				"/>
				<polygon class="st6" points="135.7,21 134.1,21.2 133.2,19.9 134.6,20.5 136.1,20.6 136.5,21 				"/>
				<polygon class="st6" points="141.5,27.1 142.9,27 144.5,27.8 142.8,27.3 				"/>
				<path class="st6" d="M135.3,18.8L137,19l0.2,0.2c0,0-0.2,0.1-0.6,0.2l-1.1-0.2l0.8,0.5l-3.7-0.5l1.4-0.2L135.3,18.8z"/>
			</g>
		</g>
		<path class="st3" d="M132.3,19.2c0-5.4,8.1-9.9,18.1-9.9c10,0,18.1,4.4,18.1,9.9s-8.1,9.9-18.1,9.9
			C140.4,29,132.3,24.6,132.3,19.2z"/>
	</g>
</g>
<g>
	<g>
		<path class="st14" d="M7,4.2c1.8,0,3.3,2,3.9,5.3l0.3-0.2l-0.8-7.8C10,2,9.8,2.1,9.3,2.1H7H0.8H0.3v0.4c0,0,0.2,0,0.5,0.1
			c0.4,0.2,0.9,0.7,1,2c0,0.1,0,0.2,0,0.4v18v0c0,1.5-0.6,2.1-1,2.4c-0.3,0.1-0.5,0.2-0.5,0.2V26h0.5h5.9H7v-0.4c0,0-0.2,0-0.4-0.1
			c-0.4-0.2-1-0.8-1-2.4V11l0.9,0c1,0,1.8,1.3,2.1,3.8L9,14.6L8.4,6.1l-0.3,0c0,1.9-0.4,2.7-1.6,2.7H5.7V6.1C5.7,4.6,6,4.2,7,4.2z"
			/>
		<path class="st14" d="M22.6,25.6c-1.7,0-1.4-2.6-1.4-3.6l0-16.8c0-1.4,0.2-2.7,1.5-2.7c1.2,0,1.5,1.3,1.5,2.7V22
			C24.2,22.9,24.3,25.6,22.6,25.6z M17.5,13.4c-1.7,0.4-3.7,2.4-3.7,2.4c0.8-6,3.8-10.6,3.8-10.6S17.5,9.2,17.5,13.4 M33.4,16.4
			c-0.4,2.3-0.8,3.5-1.7,5.1c-0.8,1.6-1.7,2.4-2.5,2.4c-0.7,0-1.1-0.6-1.2-1.9V5.1c0-1.9,0.5-2.2,1-2.4c0,0,0.1,0,0.1-0.1l0.2-0.1
			V2.1H29H16c-1.6,1.6-5.8,11.5-5.8,21.4c0,1-0.4,2-1.3,2l0,0.4h4.8v-0.4c-0.7-0.4-1.1-1.3-1.1-2.7c0-0.9,0.3-1.6,0.3-1.6
			c0.2-0.7,0.4-1.3,0.7-1.8c1.2-2.6,2.9-3.5,4-3.8c0,3.7,0,7,0,7.5c0,2.4-1.4,2.4-1.4,2.4l0,0.4h13.2h1.8c0.6,0,0.8,0.1,1,0.5
			l1.4-10L33.4,16.4"/>
		<path class="st14" d="M44.1,16.4c-0.4,2.3-0.8,3.5-1.7,5.1c-0.8,1.6-1.7,2.4-2.5,2.4c-0.7,0-1.1-0.6-1.2-1.9V5.1
			c0-1.9,0.5-2.2,1-2.4c0,0,0.1,0,0.1-0.1l0.2-0.1V2.1h-0.3h-6h-0.4v0.4c0,0,0.2,0,0.4,0.1c0.5,0.2,1.1,0.8,1.1,2.4l0,0l0,0v18v0
			c0,0,0,0,0,0c0,0.1,0,0.3,0,0.4c0,0.1,0,0.2,0,0.3c-0.2,1-0.6,1.5-1,1.7c-0.3,0.1-0.5,0.2-0.5,0.2V26h0.5h6.2h1.8
			c0.6,0,0.8,0.1,1.1,0.5l1.4-10L44.1,16.4z"/>
		<path class="st14" d="M54.5,1.8l0.2,8.2l-0.3,0c-0.5-3.7-1.9-6-3.6-6c-1.1,0-2,1.1-2,2.6c0,1.2,0.4,1.9,1.5,2.5
			c0.2,0.1,0.7,0.5,1.5,1c0.6,0.4,1.1,0.8,1.5,1.1c0.5,0.4,1,0.9,1.4,1.4c0.8,1.2,1.3,3.1,1.3,5.2c0,4.8-2.5,8.4-6,8.4
			c-0.7,0-1.5-0.2-2.5-0.6c-0.9-0.3-0.9-0.4-1.1-0.4c-0.3,0-0.5,0.2-0.9,0.7l-0.4-9.7l0.3-0.1c0.3,2.4,0.7,3.8,1.5,5.1
			c0.9,1.6,1.9,2.5,3,2.5c1.5,0,2.8-1.7,2.8-4c0-1.8-0.5-2.6-2.7-4c-2.5-1.5-3-2-3.6-3.2c-0.6-1.1-0.9-2.4-0.9-4
			c0-4.2,2.1-7.1,5.1-7.1c0.6,0,1.1,0.1,2.1,0.4c0.6,0.2,0.8,0.2,1.1,0.2c0.3,0,0.5-0.1,0.7-0.4C54.5,2,54.5,1.9,54.5,1.8z"/>
		<path class="st14" d="M76.6,22.9c0,2.1-0.7,2.7-1.5,2.7c-0.8,0-1.5-0.5-1.5-2.7V5.1c0-2.6,1.3-2.6,1.5-2.5l0,0c0,0,0,0,0,0l0,0
			l0,0c0.1,0,1.5,0,1.5,2.5V22.9z M85.7,17.4c-0.9,4.2-2.5,6.5-4.4,6.5c-1,0-1.3-0.6-1.3-2.5V10.9h0.8c1.1,0,1.8,1.3,2.1,3.7
			l0.3-0.1l-0.5-8.4l-0.2,0l0,0.4c-0.2,1.7-0.6,2.3-1.5,2.3h-0.9V6.2c0-1.5,0.3-2,1.3-2c1.7,0,3.1,2.1,3.5,5.4l0.3-0.1l-0.7-8
			c-0.2,0.6-0.4,0.7-1,0.7H64.5v0.4c0,0,1.1,0.3,1,1.8c0,0.2,0,0.6-0.1,1.1l-2.2,14L61.3,5.6c-0.1-0.6-0.1-1-0.1-1.3
			c-0.2-1.5,1.1-1.8,1.1-1.8V2.1h-6.3v0.4c0,0,1.1,0.3,1.4,2.6l2.9,17.8c0.1,0.9,0.2,1,0.2,1.3c0,1.4-1.2,1.4-1.2,1.4V26h6v-0.4
			c0,0-1.3-0.1-1.1-1.4c0-0.1,0.2-1,0.2-1l3-16.9c0.4-2.8,0.6-3.6,1.4-3.7c0.8,0,1.3,0.4,1.3,3v17.5c0,2.4-1.5,2.5-1.5,2.5V26h15.1
			c0.8,0,1,0.1,1.1,0.6l1.3-9.1L85.7,17.4"/>
		<path class="st14" d="M97.8,19l1.6-13.5c0.1-0.8,0.1-1,0.1-1.3c0.2-1.5-1-1.7-1-1.7V2.1h3.9v0.4c0,0-0.9-0.1-1.4,3.2l-2,16.9
			c-0.1,0.7-0.1,1.2-0.1,1.5c0,1.5,0.5,1.4,0.9,1.5V26h-5.5v-0.4c0,0,0.8,0,0.8-1.3c0-0.2,0-0.5,0-0.8L93.7,7.1l-1.6,15.8l-0.1,1
			c0,0.2,0,0.4,0,0.5c0,1.2,0.8,1.2,0.8,1.2V26h-5.1v-0.4c0,0,0.9,0,0.9-1.4c0-0.2,0-0.3-0.1-0.8L86.6,5.2c-0.3-2.6-1.3-2.6-1.3-2.6
			V2.1h5.8v0.4l-0.2,0c-0.4,0.1-0.7,1.2-0.7,2c0,0.2,0,0.5,0.1,1.1l1,13l1.3-14c0-0.1,0-0.3,0-0.5c0.1-1.6-1-1.7-1-1.7V2.1h5.7v0.4
			c0,0-0.9,0-0.9,1.5c0,0.1,0,0.2,0,0.5l0.1,0.6L97.8,19z"/>
		<path class="st14" d="M103.1,23.5c-0.1,0-0.2,0-0.3,0h-0.1v0.6h0.2c0.1,0,0.2,0,0.3-0.1c0.1-0.1,0.1-0.1,0.1-0.3
			C103.3,23.7,103.2,23.6,103.1,23.5z M102.1,25.3v-2.2c0.1,0,0.3,0,0.6,0c0.3,0,0.4,0,0.5,0c0.2,0,0.3,0.1,0.4,0.1
			c0.2,0.1,0.3,0.3,0.3,0.5c0,0.2-0.1,0.3-0.2,0.4c-0.1,0.1-0.2,0.1-0.4,0.1c0.1,0,0.3,0.1,0.3,0.1c0.1,0.1,0.2,0.3,0.2,0.5v0.2
			c0,0,0,0,0,0.1c0,0,0,0,0,0.1l0,0.1h-0.6c0-0.1,0-0.2,0-0.3c0-0.1,0-0.2,0-0.3c0-0.1-0.1-0.1-0.2-0.2c0,0-0.1,0-0.2,0l-0.1,0h-0.1
			v0.8H102.1 M101.8,23.1c-0.3,0.3-0.5,0.7-0.5,1.2c0,0.5,0.2,0.9,0.5,1.2c0.3,0.3,0.7,0.5,1.2,0.5c0.5,0,0.8-0.2,1.2-0.5
			c0.3-0.3,0.5-0.7,0.5-1.2c0-0.4-0.2-0.8-0.5-1.2c-0.3-0.3-0.7-0.5-1.2-0.5C102.5,22.6,102.1,22.7,101.8,23.1 M104.3,25.7
			c-0.4,0.4-0.9,0.6-1.4,0.6c-0.6,0-1-0.2-1.4-0.6c-0.4-0.4-0.6-0.9-0.6-1.4c0-0.6,0.2-1.1,0.6-1.5c0.4-0.4,0.8-0.5,1.4-0.5
			c0.6,0,1,0.2,1.4,0.6c0.4,0.4,0.6,0.9,0.6,1.4C104.9,24.8,104.7,25.3,104.3,25.7"/>
	</g>
	<g>
		<g>
			<g>
				<path class="st14" d="M55.1,34.1c0.1,0,0.2,0,0.3,0c1.3,0,1.6-1.1,1.6-1.4c0-0.4-0.2-0.8-0.4-0.9c-0.3-0.3-0.7-0.4-1.1-0.4
					c-0.1,0-0.2,0-0.3,0.1c-0.1,0-0.1,0.1-0.1,0.2L55.1,34.1z M55.1,34.8c0,0.5,0,1.4,0,1.6c0,0.2,0.1,0.3,0.2,0.3h0.4
					c0.1,0,0.1,0,0.1,0.1V37c0,0.1,0,0.1-0.1,0.1c-0.1,0-0.3,0-1.2,0c-0.8,0-1,0-1.1,0c-0.1,0-0.1,0-0.1-0.1v-0.2c0,0,0-0.1,0-0.1
					h0.3c0.2,0,0.3,0,0.3-0.3c0-0.8,0-1.6,0-2.4v-2.2c0-0.3-0.1-0.4-0.3-0.4h-0.3c0,0-0.1,0-0.1,0v-0.2c0,0,0-0.1,0.1-0.1
					c0.1,0,0.3,0,1.1,0c0.5,0,1.2,0,1.5,0c0.7,0,1.2,0.2,1.5,0.5c0.3,0.3,0.4,0.6,0.4,0.9c0,1.1-0.6,1.5-1.6,1.6v0
					c0.2,0.1,0.4,0.2,0.5,0.4c0.1,0.1,0.6,0.9,0.7,1c0.1,0.1,0.6,0.8,0.7,1c0.2,0.1,0.4,0.2,0.6,0.2c0,0,0.1,0,0.1,0.1v0.2
					c0,0.1,0,0.1-0.1,0.1c-0.1,0-0.3,0-0.8,0c-0.2,0-0.5,0-0.7,0c-0.1-0.1-0.3-0.3-0.4-0.5c-0.2-0.2-0.5-0.8-0.5-1
					c-0.1-0.2-0.3-0.5-0.5-0.7c-0.2-0.3-0.4-0.5-0.8-0.5c0,0-0.2,0-0.3,0V34.8"/>
			</g>
			<g>
				<path class="st14" d="M63.6,34.6c0,0.5,0,1.3,0,1.4c0,0.4,0.2,0.6,0.3,0.7c0.1,0,0.3,0.1,0.7,0.1c0.2,0,0.5,0,0.7,0
					c0.2,0,0.5-0.1,0.7-0.3c0.1-0.1,0.6-0.7,0.8-0.9c0,0,0.1-0.1,0.1,0l0.1,0.1c0,0,0,0,0,0.1l-0.4,1.3c0,0.1-0.1,0.1-0.2,0.1
					c-0.1,0-0.7,0-3.5,0c-0.6,0-0.9,0-1.1,0c0,0-0.1,0-0.1-0.1v-0.2c0-0.1,0-0.1,0.1-0.1h0.3c0.4,0,0.4,0,0.4-0.4v-2v-0.8
					c0-0.7,0-1.7,0-1.8c0-0.2-0.1-0.3-0.4-0.3h-0.3c0,0,0,0,0-0.1v-0.2c0,0,0-0.1,0-0.1c0.2,0,0.5,0,1.2,0h0.2c0.4,0,2.3,0,2.7,0
					c0.1,0,0.3,0,0.3,0c0,0,0.1,0,0.1,0c0,0.1,0.3,1.2,0.4,1.3c0,0,0,0.1,0,0.1l-0.1,0.1c0,0,0,0-0.1,0c0-0.1-0.7-0.8-0.9-0.9
					c-0.2-0.1-0.4-0.2-0.6-0.2l-1.3,0l0,2.4c0.2,0,0.9,0,1,0c0.2,0,0.3-0.1,0.4-0.3c0.1-0.1,0.1-0.3,0.1-0.5c0,0,0-0.1,0.1-0.1
					l0.2,0c0,0,0.1,0,0.1,0.1c0,0.1,0,0.7,0,0.9c0,0.3,0,0.7,0,0.9c0,0,0,0.1-0.1,0.1l-0.2,0c0,0-0.1,0-0.1-0.1
					c0-0.1-0.1-0.3-0.1-0.4c-0.1-0.2-0.2-0.3-0.4-0.3c-0.3,0-0.7,0-1,0L63.6,34.6z"/>
			</g>
			<g>
				<path class="st14" d="M70.5,35.1C70.5,35.1,70.5,35.2,70.5,35.1c0.1,0.3,0.1,0.7,0.4,1c0.3,0.4,0.7,0.6,1.1,0.6
					c0.5,0,1.1-0.3,1.1-1c0-0.8-0.4-1-1.2-1.4c-0.3-0.1-0.8-0.3-1.2-0.7c-0.3-0.3-0.4-0.7-0.4-1.2c0-0.5,0.2-0.9,0.6-1.2
					c0.3-0.3,0.7-0.4,1.2-0.4c0.5,0,0.9,0.1,1.1,0.2c0.1,0,0.1,0,0.2,0l0.1-0.1c0,0,0.1,0,0.1,0c0.1,0,0.1,0,0.1,0.1
					c0,0.1,0.1,1.3,0.1,1.4c0,0,0,0-0.1,0.1l-0.1,0c0,0-0.1,0-0.1-0.1c-0.1-0.2-0.2-0.6-0.5-0.9c-0.2-0.2-0.5-0.3-0.9-0.3
					c-0.7,0-0.9,0.5-0.9,0.8c0,0.3,0,0.5,0.2,0.8c0.2,0.2,0.7,0.4,1,0.5c0.5,0.1,0.9,0.3,1.2,0.7c0.3,0.3,0.4,0.6,0.4,1.2
					c0,1-0.7,1.9-1.8,1.9c-0.7,0-1.1-0.2-1.4-0.4c-0.1-0.1-0.2-0.1-0.2-0.1c0,0-0.1,0.1-0.1,0.2c-0.1,0.1-0.1,0.1-0.2,0.1
					c-0.1,0-0.1-0.1-0.1-0.1c0-0.1,0.1-1.5,0.2-1.6c0,0,0-0.1,0-0.1L70.5,35.1z"/>
			</g>
			<g>
				<path class="st14" d="M79.1,31.8c-0.5,0.5-0.8,1.4-0.8,2c0,2.2,1.3,3,2,3c1.7,0,2-1.9,2-2.6c0-1.8-1.2-2.9-2-2.9
					C80.2,31.3,79.7,31.2,79.1,31.8z M82.4,31.6c0.6,0.5,1.1,1.3,1.1,2.5c0,0.6-0.2,1.3-0.6,1.8c-0.5,0.7-1.3,1.2-2.5,1.2
					c-0.5,0-1.2-0.2-1.9-0.6c-0.6-0.4-1.2-1.3-1.2-2.5c0-0.5,0.1-1.3,0.8-2.1c0.7-0.9,1.6-1.1,2.4-1.1C81,30.9,81.7,31.1,82.4,31.6"
					/>
			</g>
			<g>
				<path class="st14" d="M88.6,34.1c0.1,0,0.2,0,0.3,0c1.3,0,1.6-1.1,1.6-1.4c0-0.4-0.2-0.8-0.4-0.9c-0.3-0.3-0.7-0.4-1.1-0.4
					c-0.1,0-0.2,0-0.3,0.1c-0.1,0-0.1,0.1-0.1,0.2L88.6,34.1z M88.6,34.8c0,0.5,0,1.4,0,1.6c0,0.2,0.1,0.3,0.2,0.3h0.4
					c0,0,0.1,0,0.1,0.1V37c0,0.1,0,0.1-0.1,0.1c-0.1,0-0.3,0-1.1,0c-0.8,0-1,0-1.1,0c-0.1,0-0.1,0-0.1-0.1v-0.2c0,0,0-0.1,0-0.1h0.3
					c0.2,0,0.3,0,0.3-0.3c0-0.8,0-1.6,0-2.4v-2.2c0-0.3-0.1-0.4-0.3-0.4H87c0,0-0.1,0-0.1,0v-0.2c0,0,0-0.1,0.1-0.1
					c0.1,0,0.3,0,1.2,0c0.5,0,1.2,0,1.5,0c0.7,0,1.2,0.2,1.5,0.5c0.3,0.3,0.5,0.6,0.5,0.9c0,1.1-0.6,1.5-1.6,1.6v0
					c0.2,0.1,0.4,0.2,0.5,0.4c0.1,0.1,0.6,0.9,0.7,1c0.1,0.1,0.6,0.8,0.7,1c0.2,0.1,0.4,0.2,0.6,0.2c0.1,0,0.1,0,0.1,0.1v0.2
					c0,0.1,0,0.1-0.1,0.1c-0.1,0-0.3,0-0.8,0c-0.2,0-0.6,0-0.7,0c-0.1-0.1-0.3-0.3-0.4-0.5c-0.1-0.2-0.5-0.8-0.6-1
					c-0.1-0.2-0.3-0.5-0.5-0.7c-0.2-0.3-0.4-0.5-0.8-0.5c0,0-0.2,0-0.3,0V34.8"/>
			</g>
			<g>
				<path class="st14" d="M97.3,31.4h-0.2c-0.3,0-0.9,0-1.2,0.1c-0.3,0.1-0.6,0.7-0.7,1c0,0,0,0.1-0.1,0.1l-0.2-0.1c0,0,0,0,0-0.1
					c0.1-0.3,0.4-1.4,0.4-1.5c0-0.1,0.1-0.2,0.1-0.2c0.1,0,0.1,0,0.1,0.1C95.6,31,95.8,31,96,31c0.5,0,0.8,0,1.6,0h0.5
					c0.9,0,1.3,0,1.7,0c0.2,0,0.5-0.1,0.6-0.2c0.1-0.1,0.1-0.1,0.1-0.1c0.1,0,0.1,0,0.1,0.1c0,0.2,0.2,1.2,0.3,1.6c0,0,0,0.1,0,0.1
					l-0.2,0.1c0,0-0.1,0-0.1-0.1c-0.1-0.2-0.4-0.8-0.7-0.9c-0.2-0.1-1-0.1-1.3-0.1h-0.2v4.5c0,0.6,0.1,0.8,0.3,0.8h0.5
					c0,0,0.1,0,0.1,0.1v0.2c0,0.1,0,0.1-0.1,0.1c-0.1,0-0.3,0-1.2,0c-0.9,0-1.2,0-1.3,0c-0.1,0-0.1,0-0.1-0.1v-0.2
					c0-0.1,0-0.1,0.1-0.1H97c0.2,0,0.3-0.1,0.3-0.2c0-0.2,0-2.8,0-3V31.4z"/>
			</g>
		</g>
		<g>
			<g>
				<path class="st14" d="M6.4,35.6C6.4,35.6,6.4,35.6,6.4,35.6C5.9,36.4,5.1,37,3.9,37c-1.1,0-1.7-0.3-2.2-0.8
					c-0.6-0.6-0.9-1.5-0.9-2.3c0-0.8,0.3-1.6,0.9-2.2c0.5-0.5,1.2-0.9,2.2-0.9c0.8,0,1.4,0.2,1.7,0.4c0.1,0.1,0.2,0.1,0.2,0L5.8,31
					c0-0.1,0-0.1,0.1-0.1C6,31,6,31,6,31.1c0,0.2,0.2,1.5,0.2,1.7c0,0,0,0.1,0,0.1l-0.2,0C6,33,6,33,6,32.9
					c-0.1-0.3-0.3-0.7-0.7-1.1c-0.4-0.4-0.8-0.6-1.5-0.6c-1.3,0-1.9,1.2-1.9,2.4c0,0.5,0.2,1.5,0.8,2.2c0.6,0.6,1,0.7,1.4,0.7
					c0.9,0,1.6-0.5,2-1c0-0.1,0.1-0.1,0.1-0.1L6.4,35.6z"/>
			</g>
			<g>
				<path class="st14" d="M12.1,34.3c-0.1-0.2-0.6-2.2-0.7-2.3c0-0.1,0-0.2-0.1-0.2c0,0-0.1,0-0.1,0.1c0,0.1-0.8,2.2-0.8,2.4H12.1z
					 M10.3,34.6c-0.1,0.2-0.5,1.4-0.5,1.6c0,0.1,0,0.1,0,0.2c0,0.1,0.1,0.2,0.3,0.2h0.4c0.1,0,0.1,0,0.1,0v0.2c0,0,0,0.1-0.1,0.1
					c-0.1,0-0.5,0-1.1,0c-0.6,0-0.8,0-0.9,0c0,0,0-0.1,0-0.1v-0.2c0-0.1,0-0.1,0-0.1h0.3c0.2,0,0.4-0.1,0.5-0.4
					c0.1-0.2,0.7-1.7,0.9-2.4c0.1-0.2,0.7-2,0.8-2.2c0-0.1,0.1-0.2,0-0.3c0,0-0.1-0.1-0.1-0.1c0,0,0-0.1,0.1-0.1
					c0.3-0.1,0.7-0.3,0.8-0.4c0,0,0.1-0.1,0.1-0.1c0,0,0.1,0.1,0.1,0.2c0.2,0.5,0.8,2.4,1,2.9c0.2,0.7,0.7,2.2,0.9,2.4
					c0.2,0.3,0.4,0.4,0.5,0.4h0.3c0,0,0.1,0,0.1,0.1v0.2c0,0,0,0.1-0.1,0.1c-0.2,0-0.3,0-1.2,0c-0.7,0-1,0-1.2,0
					c-0.1,0-0.1-0.1-0.1-0.1v-0.2c0-0.1,0-0.1,0.1-0.1h0.2c0.2,0,0.3-0.1,0.2-0.3c-0.1-0.3-0.4-1.4-0.5-1.7H10.3"/>
			</g>
			<g>
				<path class="st14" d="M17.7,35.1C17.7,35.1,17.8,35.1,17.7,35.1c0.1,0.3,0.1,0.7,0.4,1c0.3,0.4,0.7,0.6,1.1,0.6
					c0.5,0,1.1-0.3,1.1-1c0-0.8-0.4-1-1.2-1.4c-0.3-0.1-0.8-0.3-1.2-0.7c-0.3-0.3-0.4-0.7-0.4-1.2c0-0.5,0.2-0.9,0.6-1.2
					c0.3-0.3,0.7-0.4,1.2-0.4c0.6,0,0.9,0.1,1.1,0.2c0.1,0,0.1,0,0.2,0l0.1-0.1c0,0,0.1,0,0.1,0c0.1,0,0.1,0,0.1,0.1
					c0,0.1,0.1,1.3,0.1,1.4c0,0,0,0-0.1,0.1l-0.1,0c0,0-0.1,0-0.1-0.1c-0.1-0.2-0.2-0.6-0.5-0.9c-0.2-0.2-0.5-0.4-0.9-0.4
					c-0.7,0-0.9,0.5-0.9,0.8c0,0.3,0,0.5,0.2,0.8c0.2,0.2,0.7,0.4,1,0.5c0.5,0.1,0.9,0.3,1.2,0.7c0.3,0.3,0.4,0.6,0.4,1.2
					c0,1-0.7,1.9-1.8,1.9c-0.7,0-1.1-0.2-1.4-0.4c-0.1-0.1-0.2-0.1-0.2-0.1c0,0-0.1,0.1-0.1,0.2c0,0.1-0.1,0.1-0.1,0.1
					c-0.1,0-0.1-0.1-0.1-0.1c0-0.1,0.1-1.5,0.1-1.6c0,0,0-0.1,0.1-0.1L17.7,35.1z"/>
			</g>
			<g>
				<path class="st14" d="M26.8,34.2c0,0.1,0,2,0,2.1c0,0.3,0.1,0.3,0.3,0.3h0.3c0,0,0.1,0,0.1,0.1v0.2c0,0.1,0,0.1-0.1,0.1
					c-0.1,0-0.4,0-1.2,0c-0.8,0-1.2,0-1.3,0c0,0-0.1,0-0.1-0.1v-0.2c0,0,0,0,0.1,0h0.3c0.2,0,0.4,0,0.4-0.2c0-0.1,0-1.9,0-2.4v-0.6
					c0-0.2,0-1.7,0-1.8c0-0.2-0.1-0.3-0.3-0.3h-0.4c-0.1,0-0.1,0-0.1-0.1V31c0,0,0-0.1,0.1-0.1c0.1,0,0.5,0,1.4,0c0.8,0,1.1,0,1.2,0
					c0.1,0,0.1,0,0.1,0.1v0.2c0,0.1,0,0.1-0.1,0.1h-0.3c-0.2,0-0.3,0.1-0.3,0.2c0,0.1,0,1.9,0,2V34.2z"/>
			</g>
			<g>
				<path class="st14" d="M32.5,33.1c0,1.4,0.1,2.6,0.1,2.9c0,0.4,0.1,0.6,0.4,0.6h0.2c0.1,0,0.1,0,0.1,0.1v0.2c0,0.1,0,0.1-0.1,0.1
					c-0.1,0-0.6,0-0.9,0c-0.2,0-0.8,0-0.9,0c0,0-0.1,0-0.1-0.1v-0.2c0,0,0,0,0.1,0h0.3c0.2,0,0.3-0.2,0.4-0.7c0-0.2,0.1-1.3,0.1-2.7
					v-1.1c0-0.5-0.3-0.9-0.7-0.9h-0.3c0,0,0,0,0-0.1V31c0,0,0,0,0,0c0,0,0.1,0,0.3,0c0.1,0,0.4,0,0.7,0c0.1,0,0.3,0,0.4,0
					c0.1,0,0.2,0,0.2,0c0.1,0,0.2,0,0.2,0.1c0.1,0.1,1.7,2.1,1.9,2.4c0.1,0.1,1.4,1.8,1.6,1.9h0v-0.9c0-0.7,0-1.2,0-1.6
					c0-0.3,0-1.1-0.1-1.3c-0.1-0.2-0.2-0.3-0.4-0.3h-0.3c0,0,0,0,0-0.1V31c0,0,0-0.1,0.1-0.1c0.1,0,0.4,0,0.9,0c0.5,0,0.7,0,0.8,0
					c0.1,0,0.1,0,0.1,0.1v0.2c0,0.1,0,0.1,0,0.1h-0.2c-0.2,0-0.3,0.1-0.3,0.4c0,0.6-0.1,2-0.1,2.8v2.2c0,0.1,0,0.2-0.1,0.2
					c-0.1,0-0.2-0.1-0.3-0.1c-0.1-0.1-0.5-0.6-1-1.2c-0.6-0.7-1.2-1.5-1.3-1.6c-0.1-0.1-1.5-1.8-1.6-1.9h-0.1V33.1z"/>
			</g>
			<g>
				<path class="st14" d="M42.2,31.7c-0.5,0.5-0.8,1.4-0.8,2c0,2.2,1.3,3,2,3c1.7,0,2-1.9,2-2.6c0-1.8-1.2-2.9-2-2.9
					C43.3,31.2,42.8,31.1,42.2,31.7z M45.5,31.5c0.6,0.5,1.1,1.3,1.1,2.5c0,0.6-0.2,1.3-0.6,1.8c-0.5,0.7-1.3,1.2-2.5,1.2
					c-0.5,0-1.2-0.2-1.9-0.6c-0.6-0.4-1.2-1.3-1.2-2.5c0-0.5,0.1-1.3,0.8-2.1c0.7-0.9,1.6-1.1,2.4-1.1C44.1,30.9,44.8,31,45.5,31.5"
					/>
			</g>
		</g>
	</g>
</g>
</svg>
