<?xml version="1.0" encoding="utf-8"?>
<!-- Generator: Adobe Illustrator 27.5.0, SVG Export Plug-In . SVG Version: 6.00 Build 0)  -->
<svg version="1.1" id="Layer_1" xmlns="http://www.w3.org/2000/svg" xmlns:xlink="http://www.w3.org/1999/xlink" x="0px" y="0px"
	 viewBox="0 0 105.4 37.2" style="enable-background:new 0 0 105.4 37.2;" xml:space="preserve">
<style type="text/css">
	.st0{fill:#4A473E;}
</style>
<g>
	<g>
		<path class="st0" d="M7.1,3.8c1.8,0,3.3,2,3.9,5.3L11.3,9l-0.8-7.8c-0.3,0.5-0.6,0.7-1.1,0.7H7.1H0.9H0.4v0.4c0,0,0.2,0,0.5,0.1
			c0.4,0.2,0.9,0.7,1,2c0,0.1,0,0.2,0,0.4v18v0c0,1.5-0.6,2.1-1,2.4c-0.3,0.1-0.5,0.2-0.5,0.2v0.4h0.5h5.9h0.4v-0.4
			c0,0-0.2,0-0.4-0.1c-0.4-0.2-1-0.8-1-2.4V10.6l0.9,0c1,0,1.8,1.3,2.1,3.8l0.3-0.1L8.5,5.8l-0.3,0c0,1.9-0.4,2.7-1.6,2.7H5.8V5.8
			C5.8,4.3,6.1,3.8,7.1,3.8z"/>
	</g>
	<g>
		<path class="st0" d="M22.7,25.2c-1.7,0-1.5-2.6-1.5-3.6l0-16.8c0-1.4,0.2-2.7,1.5-2.7c1.1,0,1.5,1.3,1.5,2.7v16.8
			C24.3,22.6,24.4,25.2,22.7,25.2z M17.6,13.1c-1.7,0.4-3.7,2.4-3.7,2.4C14.7,9.5,17.6,5,17.6,5S17.6,8.9,17.6,13.1 M33.5,16.1
			c-0.4,2.2-0.8,3.5-1.7,5.1c-0.9,1.6-1.7,2.4-2.5,2.4c-0.7,0-1.1-0.6-1.2-1.9V4.7c0-1.9,0.5-2.2,1-2.4c0,0,0.1,0,0.1,0l0.2-0.1V1.8
			h-0.3h-13c-1.6,1.6-5.8,11.4-5.8,21.4c0,1-0.4,2-1.3,2v0.4h4.8v-0.4c-0.7-0.4-1.1-1.3-1.1-2.8c0-0.9,0.3-1.6,0.3-1.6
			c0.2-0.7,0.4-1.3,0.7-1.8c1.2-2.6,2.9-3.5,4-3.8c0,3.7,0,7,0,7.5c0,2.5-1.4,2.5-1.4,2.5l0,0.4h13.2h1.8c0.6,0,0.8,0.1,1,0.5
			l1.4-10L33.5,16.1"/>
	</g>
	<g>
		<path class="st0" d="M44.2,16.1c-0.4,2.2-0.8,3.5-1.7,5.1c-0.8,1.6-1.7,2.4-2.5,2.4c-0.7,0-1.1-0.6-1.2-1.9V4.7
			c0-1.9,0.5-2.2,1-2.4c0,0,0.1,0,0.1,0l0.2-0.1V1.8h-0.3h-6h-0.4v0.4c0,0,0.2,0,0.4,0.1C34.4,2.5,35,3.1,35,4.7l0,0l0,0v18v0l0,0
			c0,0.1,0,0.3,0,0.4c0,0.1,0,0.2,0,0.3c-0.2,1-0.6,1.5-1,1.7c-0.3,0.1-0.5,0.2-0.5,0.2v0.4h0.5h6.2H42c0.6,0,0.8,0.1,1,0.5l1.4-10
			L44.2,16.1z"/>
	</g>
	<g>
		<path class="st0" d="M54.6,1.5l0.2,8.2l-0.3,0c-0.5-3.7-1.9-6-3.6-6c-1.1,0-2,1.2-2,2.7c0,1.2,0.4,1.8,1.5,2.5
			c0.2,0.1,0.7,0.5,1.5,1c0.6,0.4,1.1,0.8,1.5,1.1c0.5,0.4,1,0.9,1.4,1.4c0.8,1.2,1.3,3.1,1.3,5.2c0,4.8-2.5,8.4-6,8.4
			c-0.7,0-1.5-0.2-2.5-0.6c-0.9-0.3-0.9-0.4-1.1-0.4c-0.3,0-0.5,0.2-0.9,0.7l-0.4-9.7l0.3-0.1c0.3,2.4,0.7,3.8,1.5,5.1
			c0.9,1.6,1.9,2.5,3,2.5c1.5,0,2.8-1.7,2.8-4c0-1.8-0.5-2.6-2.7-4c-2.5-1.5-3-2-3.6-3.2c-0.6-1.1-0.9-2.4-0.9-4
			c0-4.2,2.2-7.2,5.2-7.2c0.6,0,1.1,0.1,2.1,0.4c0.6,0.2,0.8,0.2,1.1,0.2c0.3,0,0.5-0.1,0.7-0.4C54.6,1.6,54.6,1.5,54.6,1.5z"/>
	</g>
	<g>
		<path class="st0" d="M76.7,22.6c0,2.1-0.7,2.7-1.5,2.7c-0.8,0-1.5-0.5-1.5-2.6V4.7c0-2.6,1.3-2.5,1.5-2.5l0,0h0l0,0l0,0
			c0.1,0,1.5,0,1.5,2.5V22.6z M85.8,17.1c-0.9,4.2-2.5,6.5-4.4,6.5c-1,0-1.3-0.6-1.3-2.5V10.6H81c1.1,0,1.8,1.3,2.1,3.7l0.3-0.1
			l-0.5-8.4l-0.2,0l0,0.4C82.4,7.9,82,8.5,81,8.5h-0.9V5.8c0-1.5,0.3-2,1.3-2c1.7,0,3.1,2.1,3.5,5.4l0.3-0.1l-0.7-8
			c-0.2,0.6-0.4,0.7-1,0.7H64.6v0.4c0,0,1.1,0.3,1,1.8c0,0.2,0,0.6-0.1,1.1l-2.2,14L61.4,5.2c-0.1-0.6-0.1-1-0.1-1.3
			c-0.2-1.5,1.1-1.8,1.1-1.8V1.8H56v0.4c0,0,1.1,0.3,1.4,2.6l2.9,17.8c0.1,0.9,0.2,1,0.2,1.3c0,1.4-1.2,1.4-1.2,1.4v0.4h6.1v-0.4
			c0,0-1.3-0.1-1.1-1.4c0-0.1,0.2-1,0.2-1l3-16.9c0.3-2.8,0.6-3.6,1.4-3.7c0.8,0,1.3,0.4,1.3,3v17.5c0,2.4-1.5,2.5-1.5,2.5v0.4h15.1
			c0.8,0,0.9,0.1,1.1,0.6l1.3-9.1L85.8,17.1"/>
	</g>
	<g>
		<path class="st0" d="M97.9,18.6l1.6-13.5c0.1-0.8,0.1-1,0.1-1.3c0.2-1.5-1-1.7-1-1.7V1.8h3.9v0.4c0,0-0.9-0.1-1.4,3.2l-2.1,16.9
			C99,23,99,23.5,99,23.8c0,1.5,0.5,1.4,0.9,1.5v0.4h-5.5v-0.4c0,0,0.8,0,0.8-1.3c0-0.2,0-0.5,0-0.8L93.8,6.7l-1.6,15.8l-0.1,1
			c0,0.2,0,0.4,0,0.5c0,1.2,0.8,1.2,0.8,1.2v0.4h-5.1v-0.4c0,0,0.8,0,0.8-1.4c0-0.2,0-0.3-0.1-0.8L86.7,4.8
			c-0.3-2.6-1.2-2.7-1.2-2.7V1.8h5.8v0.4l-0.2,0c-0.4,0.1-0.7,1.2-0.7,2c0,0.2,0,0.5,0.1,1.2l1,13l1.3-14c0-0.1,0-0.3,0-0.5
			c0.1-1.6-1-1.7-1-1.7V1.8h5.7v0.4c0,0-0.9,0-0.9,1.5c0,0.1,0,0.2,0,0.5l0.1,0.6L97.9,18.6z"/>
	</g>
	<g>
		<path class="st0" d="M103.2,23.2c-0.1,0-0.2,0-0.3,0h-0.1v0.6h0.2c0.1,0,0.2,0,0.3-0.1c0.1-0.1,0.1-0.1,0.1-0.3
			C103.4,23.3,103.3,23.3,103.2,23.2z M102.1,25v-2.2c0.1,0,0.3,0,0.6,0c0.3,0,0.4,0,0.5,0c0.2,0,0.3,0,0.4,0.1
			c0.2,0.1,0.3,0.3,0.3,0.5c0,0.2-0.1,0.3-0.2,0.4c-0.1,0.1-0.2,0.1-0.4,0.1c0.1,0,0.2,0.1,0.3,0.1c0.1,0.1,0.2,0.3,0.2,0.5v0.2
			c0,0,0,0,0,0.1c0,0,0,0,0,0.1l0,0.1h-0.6c0-0.1,0-0.2,0-0.3c0-0.1,0-0.2,0-0.3c0-0.1-0.1-0.1-0.2-0.2c0,0-0.1,0-0.2,0h-0.1h-0.1
			V25L102.1,25 M101.8,22.7c-0.3,0.3-0.5,0.7-0.5,1.1c0,0.5,0.2,0.9,0.5,1.2s0.7,0.5,1.2,0.5c0.4,0,0.8-0.2,1.2-0.5
			c0.3-0.3,0.5-0.7,0.5-1.2c0-0.4-0.2-0.8-0.5-1.1c-0.3-0.3-0.7-0.5-1.2-0.5C102.6,22.2,102.2,22.4,101.8,22.7 M104.4,25.3
			c-0.4,0.4-0.8,0.6-1.4,0.6c-0.6,0-1-0.2-1.4-0.6c-0.4-0.4-0.6-0.9-0.6-1.4c0-0.6,0.2-1.1,0.6-1.5c0.4-0.4,0.8-0.5,1.4-0.5
			c0.6,0,1,0.2,1.4,0.6c0.4,0.4,0.6,0.9,0.6,1.4C105,24.5,104.8,24.9,104.4,25.3"/>
	</g>
	<g>
		<g>
			<g>
				<path class="st0" d="M55.2,33.7c0.1,0,0.2,0,0.3,0c1.3,0,1.6-1,1.6-1.4s-0.2-0.8-0.4-0.9C56.4,31.1,56,31,55.6,31
					c-0.1,0-0.2,0-0.3,0c-0.1,0-0.1,0.1-0.1,0.2L55.2,33.7z M55.2,34.5c0,0.5,0,1.4,0,1.6c0,0.2,0.1,0.3,0.2,0.3h0.4
					c0,0,0.1,0,0.1,0.1v0.2c0,0.1,0,0.1-0.1,0.1c-0.1,0-0.3,0-1.2,0c-0.8,0-1,0-1.1,0c0,0-0.1,0-0.1-0.1v-0.2c0,0,0-0.1,0-0.1h0.3
					c0.2,0,0.3,0,0.3-0.3c0-0.8,0-1.6,0-2.4v-2.2c0-0.3-0.1-0.4-0.3-0.4h-0.3c0,0-0.1,0-0.1,0v-0.2c0,0,0-0.1,0.1-0.1
					c0.1,0,0.3,0,1.2,0c0.5,0,1.2,0,1.5,0c0.7,0,1.2,0.2,1.5,0.5c0.3,0.3,0.5,0.6,0.5,0.9c0,1.1-0.6,1.5-1.6,1.7v0
					c0.2,0.1,0.4,0.2,0.5,0.4c0.1,0.1,0.6,0.9,0.7,1c0,0.1,0.6,0.8,0.7,1c0.2,0.1,0.4,0.2,0.6,0.2c0,0,0.1,0,0.1,0.1v0.2
					c0,0.1,0,0.1-0.1,0.1c-0.1,0-0.3,0-0.8,0c-0.2,0-0.5,0-0.7,0c-0.1-0.1-0.3-0.3-0.4-0.5c-0.2-0.2-0.5-0.8-0.5-1
					c-0.1-0.2-0.3-0.5-0.5-0.7C56,34.2,55.8,34,55.4,34c0,0-0.2,0-0.3,0L55.2,34.5"/>
			</g>
			<g>
				<path class="st0" d="M63.7,34.2c0,0.5,0,1.3,0,1.4c0,0.4,0.2,0.6,0.3,0.7c0.1,0,0.3,0.1,0.7,0.1c0.2,0,0.5,0,0.7,0
					c0.2,0,0.5-0.1,0.7-0.3c0.2-0.1,0.6-0.7,0.8-0.9c0,0,0.1,0,0.1,0l0.1,0.1c0,0,0,0,0,0.1l-0.4,1.2c0,0.1-0.1,0.1-0.2,0.1
					c-0.1,0-0.7,0-3.5,0c-0.6,0-0.9,0-1.1,0c0,0-0.1,0-0.1-0.1v-0.2c0,0,0-0.1,0.1-0.1h0.3c0.4,0,0.4,0,0.4-0.4v-2v-0.8
					c0-0.7,0-1.7,0-1.8c0-0.2-0.1-0.3-0.4-0.3h-0.3c0,0,0,0,0-0.1v-0.2c0,0,0-0.1,0-0.1c0.2,0,0.5,0,1.2,0h0.2c0.4,0,2.3,0,2.7,0
					c0.1,0,0.3,0,0.3,0s0.1,0,0.1,0c0,0.1,0.3,1.2,0.4,1.3c0,0,0,0.1,0,0.1l-0.2,0.1c0,0-0.1,0-0.1,0c0,0-0.7-0.8-0.9-0.9
					c-0.2-0.1-0.4-0.2-0.6-0.2l-1.2,0l0,2.4c0.2,0,0.8,0,0.9,0c0.2,0,0.3-0.1,0.4-0.3c0.1-0.1,0.1-0.3,0.1-0.5c0,0,0-0.1,0.1-0.1
					l0.2,0c0,0,0.1,0,0.1,0.1c0,0.1,0,0.7,0,0.9c0,0.3,0,0.7,0.1,0.9c0,0,0,0-0.1,0l-0.2,0c0,0-0.1,0-0.1-0.1c0-0.1-0.1-0.3-0.1-0.4
					c-0.1-0.2-0.2-0.3-0.4-0.3c-0.3,0-0.7,0-1,0L63.7,34.2z"/>
			</g>
			<g>
				<path class="st0" d="M70.6,34.8C70.6,34.8,70.6,34.8,70.6,34.8c0.1,0.3,0.1,0.7,0.4,1c0.2,0.4,0.7,0.6,1.1,0.6
					c0.5,0,1.1-0.3,1.1-1c0-0.8-0.3-1-1.2-1.4c-0.3-0.1-0.8-0.3-1.2-0.7c-0.3-0.3-0.4-0.7-0.4-1.2c0-0.5,0.2-0.9,0.6-1.2
					c0.3-0.3,0.7-0.4,1.2-0.4c0.6,0,0.9,0.1,1.1,0.2c0.1,0,0.1,0,0.2,0l0.1-0.1c0,0,0.1,0,0.1,0c0.1,0,0.1,0,0.1,0.1
					c0,0.1,0.1,1.3,0.1,1.4c0,0,0,0-0.1,0.1l-0.1,0c0,0-0.1,0-0.1,0c-0.1-0.2-0.2-0.6-0.5-0.9c-0.2-0.2-0.5-0.4-0.9-0.4
					c-0.7,0-0.9,0.5-0.9,0.8c0,0.3,0,0.5,0.2,0.8c0.2,0.2,0.7,0.4,1,0.5c0.5,0.2,0.9,0.3,1.2,0.7c0.3,0.3,0.4,0.6,0.4,1.2
					c0,1-0.7,1.9-1.8,1.9c-0.7,0-1.1-0.2-1.4-0.4c-0.1-0.1-0.2-0.1-0.2-0.1c-0.1,0-0.1,0.1-0.1,0.2c-0.1,0.1-0.1,0.1-0.2,0.1
					s-0.1,0-0.1-0.1c0-0.1,0.1-1.5,0.2-1.6c0,0,0-0.1,0.1-0.1L70.6,34.8z"/>
			</g>
			<g>
				<path class="st0" d="M79.2,31.4c-0.5,0.5-0.8,1.3-0.8,2c0,2.2,1.3,3,2,3c1.7,0,2-1.9,2-2.6c0-1.8-1.2-2.9-2.1-2.9
					C80.3,31,79.8,30.9,79.2,31.4z M82.4,31.3c0.6,0.5,1.1,1.3,1.1,2.5c0,0.6-0.2,1.3-0.6,1.8c-0.5,0.7-1.3,1.2-2.5,1.2
					c-0.5,0-1.2-0.2-1.9-0.6c-0.6-0.4-1.2-1.3-1.2-2.5c0-0.5,0.1-1.3,0.8-2.1c0.7-0.9,1.6-1.1,2.3-1.1
					C81.1,30.6,81.8,30.7,82.4,31.3"/>
			</g>
			<g>
				<path class="st0" d="M88.7,33.7c0.1,0,0.2,0,0.3,0c1.3,0,1.6-1,1.6-1.4s-0.2-0.8-0.4-0.9c-0.3-0.3-0.7-0.4-1.1-0.4
					c-0.1,0-0.2,0-0.3,0c-0.1,0-0.1,0.1-0.1,0.2L88.7,33.7z M88.7,34.5c0,0.5,0,1.4,0,1.6c0,0.2,0.1,0.3,0.2,0.3h0.4
					c0.1,0,0.1,0,0.1,0.1v0.2c0,0.1,0,0.1-0.1,0.1c-0.1,0-0.3,0-1.1,0c-0.8,0-1,0-1.1,0c-0.1,0-0.1,0-0.1-0.1v-0.2
					c0,0,0-0.1,0.1-0.1h0.3c0.2,0,0.3,0,0.3-0.3c0-0.8,0-1.6,0-2.4v-2.2c0-0.3-0.1-0.4-0.3-0.4h-0.3C87,31,87,31,87,31v-0.2
					c0,0,0-0.1,0.1-0.1c0.1,0,0.3,0,1.2,0c0.5,0,1.2,0,1.5,0c0.7,0,1.2,0.2,1.5,0.5c0.3,0.3,0.4,0.6,0.4,0.9c0,1.1-0.6,1.5-1.6,1.7
					v0c0.2,0.1,0.4,0.2,0.5,0.4c0.1,0.1,0.6,0.9,0.7,1c0.1,0.1,0.6,0.8,0.7,1c0.2,0.1,0.4,0.2,0.6,0.2c0.1,0,0.1,0,0.1,0.1v0.2
					c0,0.1,0,0.1-0.1,0.1c-0.1,0-0.3,0-0.8,0c-0.2,0-0.6,0-0.7,0c-0.1-0.1-0.3-0.3-0.4-0.5c-0.2-0.2-0.5-0.8-0.6-1
					c-0.1-0.2-0.3-0.5-0.4-0.7c-0.2-0.3-0.4-0.5-0.8-0.5c0,0-0.2,0-0.3,0L88.7,34.5"/>
			</g>
			<g>
				<path class="st0" d="M97.4,31.1h-0.2c-0.3,0-0.9,0-1.2,0.1c-0.3,0.1-0.6,0.7-0.8,1c0,0,0,0.1-0.1,0.1l-0.2-0.1c0,0,0,0,0-0.1
					c0.1-0.3,0.4-1.4,0.4-1.5c0-0.1,0.1-0.1,0.1-0.1c0.1,0,0.1,0,0.1,0.1c0.2,0.2,0.3,0.2,0.6,0.2c0.4,0,0.8,0,1.6,0h0.5
					c0.9,0,1.3,0,1.7,0c0.2,0,0.5-0.1,0.6-0.2c0.1,0,0.1-0.1,0.2-0.1s0.1,0,0.1,0.1c0,0.1,0.2,1.2,0.2,1.6c0,0,0,0.1,0,0.1l-0.2,0.1
					c0,0-0.1,0-0.1-0.1c-0.1-0.2-0.4-0.8-0.7-0.9c-0.2-0.1-1-0.1-1.3-0.1h-0.2v4.5c0,0.6,0.1,0.8,0.3,0.8h0.5c0,0,0.1,0,0.1,0.1v0.2
					c0,0,0,0.1-0.1,0.1c-0.1,0-0.3,0-1.2,0c-0.9,0-1.2,0-1.3,0c-0.1,0-0.1,0-0.1-0.1v-0.2c0,0,0-0.1,0.1-0.1h0.5
					c0.2,0,0.3-0.1,0.3-0.2c0-0.2,0-2.8,0-3L97.4,31.1L97.4,31.1z"/>
			</g>
		</g>
		<g>
			<g>
				<path class="st0" d="M6.5,35.2C6.5,35.2,6.6,35.2,6.5,35.2C6,36,5.2,36.7,4,36.7c-1.1,0-1.7-0.3-2.2-0.8
					c-0.6-0.5-0.9-1.5-0.9-2.3c0-0.8,0.3-1.6,0.9-2.2C2.2,30.9,3,30.5,4,30.5c0.8,0,1.4,0.2,1.7,0.4c0.1,0.1,0.2,0.1,0.2,0l0.1-0.2
					c0,0,0,0,0.1,0c0.1,0,0.1,0,0.1,0.1c0,0.1,0.2,1.5,0.2,1.7c0,0,0,0.1,0,0.1l-0.2,0c-0.1,0-0.1,0-0.1-0.1
					c-0.1-0.3-0.3-0.7-0.7-1.1c-0.4-0.4-0.8-0.6-1.5-0.6c-1.3,0-1.9,1.2-1.9,2.4c0,0.5,0.2,1.5,0.8,2.2c0.6,0.6,1,0.7,1.5,0.7
					c0.9,0,1.6-0.5,2-1c0-0.1,0.1-0.1,0.1-0.1L6.5,35.2z"/>
			</g>
			<g>
				<path class="st0" d="M12.2,33.9c-0.1-0.2-0.6-2.2-0.7-2.3c0-0.1-0.1-0.1-0.1-0.1c-0.1,0-0.1,0-0.1,0.1c0,0.1-0.8,2.2-0.9,2.4
					H12.2z M10.4,34.3c-0.1,0.2-0.5,1.4-0.5,1.6c0,0.1,0,0.1,0,0.2c0,0.1,0.1,0.2,0.3,0.2h0.4c0.1,0,0.1,0,0.1,0v0.2
					c0,0,0,0.1-0.1,0.1c-0.1,0-0.5,0-1.1,0c-0.6,0-0.8,0-0.9,0c-0.1,0-0.1-0.1-0.1-0.1v-0.2c0,0,0-0.1,0.1-0.1h0.2
					c0.2,0,0.4-0.1,0.5-0.4c0.1-0.2,0.7-1.7,0.9-2.4c0.1-0.2,0.7-2,0.8-2.2c0-0.1,0.1-0.2,0-0.3c0,0-0.1-0.1-0.1-0.1
					c0,0,0-0.1,0.1-0.1c0.3-0.1,0.7-0.3,0.8-0.4c0.1,0,0.1-0.1,0.1-0.1s0.1,0.1,0.1,0.1c0.1,0.5,0.8,2.4,0.9,2.9
					c0.2,0.7,0.7,2.2,0.9,2.4c0.1,0.3,0.4,0.4,0.5,0.4h0.3c0.1,0,0.1,0,0.1,0.1v0.2c0,0,0,0.1-0.1,0.1c-0.2,0-0.3,0-1.2,0
					c-0.7,0-1,0-1.2,0c-0.1,0-0.1-0.1-0.1-0.1v-0.2c0,0,0-0.1,0.1-0.1h0.2c0.2,0,0.3-0.1,0.2-0.3c-0.1-0.3-0.4-1.4-0.5-1.7
					L10.4,34.3"/>
			</g>
			<g>
				<path class="st0" d="M17.8,34.7C17.8,34.7,17.9,34.7,17.8,34.7c0.1,0.3,0.1,0.7,0.4,1c0.2,0.4,0.7,0.6,1.1,0.6
					c0.5,0,1.1-0.3,1.1-1c0-0.8-0.4-1-1.2-1.4c-0.3-0.1-0.8-0.3-1.2-0.7c-0.3-0.3-0.4-0.7-0.4-1.2c0-0.5,0.2-0.9,0.6-1.2
					c0.3-0.3,0.7-0.4,1.2-0.4c0.5,0,0.9,0.1,1,0.2c0.1,0,0.1,0,0.2,0l0.1-0.1c0,0,0.1,0,0.1,0c0,0,0.1,0,0.1,0.1
					c0,0.1,0.1,1.3,0.1,1.4c0,0,0,0,0,0.1l-0.1,0c0,0-0.1,0-0.1,0c-0.1-0.2-0.2-0.6-0.5-0.9c-0.2-0.2-0.5-0.4-0.9-0.4
					c-0.7,0-0.9,0.5-0.9,0.9c0,0.3,0,0.5,0.2,0.8c0.2,0.2,0.7,0.4,1,0.5c0.5,0.1,0.9,0.3,1.2,0.7c0.3,0.3,0.4,0.6,0.4,1.2
					c0,1-0.7,1.9-1.8,1.9c-0.7,0-1.1-0.2-1.4-0.4c-0.1-0.1-0.1-0.1-0.2-0.1c0,0-0.1,0.1-0.1,0.2c0,0.1-0.1,0.1-0.1,0.1
					s-0.1,0-0.1-0.1c0-0.1,0.1-1.5,0.1-1.6c0,0,0-0.1,0-0.1L17.8,34.7z"/>
			</g>
			<g>
				<path class="st0" d="M26.9,33.8c0,0.1,0,2,0,2.1c0,0.3,0.1,0.3,0.3,0.3h0.3c0,0,0.1,0,0.1,0.1v0.2c0,0,0,0.1-0.1,0.1
					c-0.1,0-0.4,0-1.2,0c-0.8,0-1.2,0-1.3,0c0,0-0.1,0-0.1-0.1v-0.2c0,0,0,0,0.1,0h0.3c0.2,0,0.4,0,0.4-0.2c0-0.1,0-1.9,0-2.4V33
					c0-0.2,0-1.7,0-1.8c0-0.2-0.1-0.3-0.4-0.3H25c0,0-0.1,0-0.1-0.1v-0.2c0,0,0-0.1,0-0.1c0.1,0,0.5,0,1.4,0s1.1,0,1.2,0
					c0,0,0.1,0,0.1,0.1v0.2c0,0.1,0,0.1-0.1,0.1h-0.3c-0.2,0-0.3,0.1-0.3,0.2c0,0.1,0,1.9,0,2L26.9,33.8L26.9,33.8z"/>
			</g>
			<g>
				<path class="st0" d="M32.6,32.8c0,1.4,0.1,2.6,0.1,2.8c0,0.4,0.1,0.6,0.4,0.6h0.2c0.1,0,0.1,0,0.1,0.1v0.2c0,0,0,0.1-0.1,0.1
					c-0.1,0-0.6,0-0.9,0c-0.2,0-0.8,0-0.9,0c0,0,0,0,0-0.1v-0.2c0,0,0,0,0,0h0.3c0.2,0,0.3-0.2,0.4-0.7c0-0.2,0.1-1.3,0.1-2.7v-1.1
					c0-0.5-0.3-0.9-0.6-0.9h-0.3c0,0,0,0,0-0.1v-0.2c0,0,0,0,0,0c0,0,0.1,0,0.3,0s0.4,0,0.7,0c0.2,0,0.3,0,0.4,0c0.1,0,0.2,0,0.2,0
					c0.1,0,0.2,0,0.2,0.1c0.1,0.1,1.7,2.2,1.9,2.4c0.1,0.1,1.4,1.8,1.6,1.9h0v-0.9c0-0.8,0-1.2,0-1.6c0-0.3,0-1.1-0.1-1.3
					c-0.1-0.2-0.2-0.3-0.5-0.3h-0.3c0,0,0,0,0-0.1v-0.2c0,0,0-0.1,0.1-0.1c0.1,0,0.4,0,0.9,0c0.5,0,0.7,0,0.8,0c0.1,0,0.1,0,0.1,0.1
					v0.2c0,0,0,0.1,0,0.1h-0.2c-0.2,0-0.2,0.1-0.3,0.5c0,0.6-0.1,2-0.1,2.8v2.2c0,0.1,0,0.2-0.1,0.2c-0.1,0-0.2-0.1-0.3-0.1
					c-0.1-0.1-0.5-0.6-1-1.2c-0.6-0.7-1.2-1.5-1.3-1.7c-0.1-0.1-1.5-1.8-1.6-1.9h0L32.6,32.8L32.6,32.8z"/>
			</g>
			<g>
				<path class="st0" d="M42.3,31.3c-0.5,0.5-0.8,1.4-0.8,2c0,2.2,1.3,3,2,3c1.7,0,2-1.9,2-2.6c0-1.8-1.2-2.9-2-2.9
					C43.4,30.9,42.9,30.8,42.3,31.3z M45.5,31.2c0.6,0.5,1.1,1.3,1.1,2.5c0,0.6-0.2,1.3-0.6,1.8c-0.5,0.7-1.2,1.2-2.5,1.2
					c-0.5,0-1.2-0.2-1.9-0.5c-0.6-0.4-1.2-1.3-1.2-2.5c0-0.5,0.1-1.3,0.8-2.1c0.7-0.9,1.6-1.1,2.4-1.1
					C44.2,30.5,44.9,30.6,45.5,31.2"/>
			</g>
		</g>
	</g>
</g>
<g>
	<g>
		<path class="st0" d="M155.7,32.7l1-0.2l-0.8-1.7L155.7,32.7z M143.1,4.5l-0.1,1.9l1-0.2L143.1,4.5z M163.2,8.9
			c0.6,0.3,1.2-0.1,1.5-0.9c0.3-0.6,0.4-1.4-0.3-1.7c-0.7-0.3-1.2,0.2-1.5,0.8C162.6,7.8,162.5,8.6,163.2,8.9z M161.3,29.4l-0.7,0.2
			l0.3,1l0.6-0.2c0.5-0.1,0.7-0.4,0.6-0.7C162,29.3,161.7,29.2,161.3,29.4z M143.9,32.6l1,0.2l-0.3-1.9L143.9,32.6z M166.6,29.6
			l0.9-0.5l-1.3-1.4L166.6,29.6z M150.4,0.4c-15.7,0-28.5,8.2-28.5,18.4s12.8,18.4,28.5,18.4s28.5-8.2,28.5-18.4
			S166.1,0.4,150.4,0.4z M161.5,6.4c0.7-1.4,2.1-1.9,3.5-1.2c1.6,0.8,1.8,2.3,1.2,3.5c-0.8,1.5-2.2,1.9-3.6,1.2
			C161.2,9.3,160.7,7.9,161.5,6.4z M155.9,2.5l1.5,0.3l1.2,3.1l0.2-1.1l0.3-1.6l1.6,0.3l-1.1,4.9L158,8.2l-1.2-3.1l-0.2,1.1
			l-0.3,1.6l-1.6-0.3L155.9,2.5z M152.5,2.3l1.6,0.1l-0.4,5l-1.6-0.1L152.5,2.3z M146.7,3.8c0-1.1,0.9-1.7,2.1-1.7
			c1.4-0.1,2.1,0.6,2.2,1.5l-1.6,0.1c0-0.2-0.1-0.3-0.2-0.3c-0.1-0.1-0.3-0.1-0.4-0.1c-0.4,0-0.5,0.1-0.5,0.3c0,0.8,2.9,0.2,3,2
			c0.1,1.2-0.9,1.8-2.3,1.8c-1.3,0.1-2.2-0.7-2.3-1.6l1.6-0.1c0,0.2,0.1,0.3,0.3,0.4s0.3,0.1,0.5,0.1c0.4,0,0.7-0.2,0.7-0.4
			C149.7,5.1,146.8,5.8,146.7,3.8z M141.9,3.2l1.6-0.3l2.8,4.6l-1.6,0.3l-0.3-0.6l-1.6,0.3l-0.1,0.7l-1.6,0.3L141.9,3.2z M136.4,5
			c1.4-0.7,2.5-0.3,3.2,0.8l-1.4,0.7c-0.3-0.5-0.7-0.6-1.2-0.4c-0.5,0.2-0.6,0.8-0.2,1.7c0.3,0.6,0.7,1.2,1.5,0.8
			c0.5-0.2,0.6-0.7,0.4-1.1l1.4-0.7c0.4,1.2-0.1,2.3-1.3,2.9c-1.5,0.7-2.9,0.2-3.6-1.3C134.5,6.9,135.1,5.6,136.4,5z M127.3,21.5
			l-1.9-2.8l1.9-2.8l1.9,2.8L127.3,21.5z M150.4,8.6c10.1,0,18.4,4.5,18.4,10.1s-8.2,10.1-18.4,10.1S132,24.2,132,18.7
			C132,13.1,140.3,8.6,150.4,8.6z M135.9,32.2l-0.6-3.2l-0.4,1.1l-0.6,1.5l-1.5-0.6l1.9-4.7l1.4,0.6l0.6,3.2l0.4-1.1l0.6-1.5
			l1.5,0.6l-1.9,4.7L135.9,32.2z M138.8,33.2l1.3-4.9l1.6,0.4l-1.3,4.9L138.8,33.2z M145.2,34.5l-0.1-0.7l-1.6-0.2l-0.3,0.6
			l-1.6-0.2l2.5-4.7l1.7,0.2l1.1,5.3L145.2,34.5z M152.8,34.8l-1.1,0l-0.1-0.5c-0.3,0.3-0.7,0.6-1.5,0.6c-1.3,0-2.4-0.8-2.4-2.6
			c0-1.6,1-2.7,2.7-2.7c1.2,0,2.2,0.6,2.4,1.9l-1.6,0c-0.1-0.4-0.4-0.6-0.9-0.6c-0.6,0-1,0.6-1,1.5c0,0.7,0.2,1.4,1.1,1.4
			c0.3,0,0.8-0.2,0.9-0.6h-0.7l0-1.1l2.3,0L152.8,34.8z M157.5,34.2l-0.3-0.6l-1.6,0.2l-0.1,0.7l-1.6,0.2l1.1-5.3l1.7-0.2l2.5,4.8
			L157.5,34.2z M163.1,32.9c-0.1-0.1-0.2-0.4-0.3-0.8c-0.2-0.6-0.4-0.8-1.1-0.6l-0.5,0.1l0.5,1.7l-1.6,0.5l-1.4-4.8l2.3-0.7
			c1.6-0.5,2.3-0.2,2.6,0.7c0.2,0.6,0.1,1.1-0.5,1.4c0.6,0,0.9,0.1,1.2,1c0.2,0.6,0.2,0.8,0.4,0.8l0,0.2L163.1,32.9z M168.8,30.5
			l-0.5-0.5l-1.5,0.7l0.1,0.7l-1.4,0.7l-0.6-5.3l1.5-0.8l3.9,3.7L168.8,30.5z M173.4,21.5l-1.9-2.8l1.9-2.8l1.9,2.8L173.4,21.5z"/>
	</g>
</g>
<path class="st0" d="M155.4,9.9l-1.3,1.2l1.7-1.2C155.7,9.9,155.6,9.9,155.4,9.9z M154.3,9.7l-1.1,1.4l1.5-1.4
	C154.6,9.7,154.4,9.7,154.3,9.7z M153,9.6l-0.7,1.5l1.2-1.5C153.3,9.6,153.2,9.6,153,9.6z M156.4,10.1l-1.4,1.1l1.7-1
	C156.7,10.1,156.6,10.1,156.4,10.1z M157.4,10.2l-1.4,0.9l1.7-0.8C157.6,10.3,157.5,10.3,157.4,10.2z M150.3,9.5l0.4,1.6l0.1-1.6
	C150.7,9.5,150.6,9.5,150.3,9.5C150.4,9.5,150.4,9.5,150.3,9.5z M158.8,11.1l0.9-0.2c-0.1,0-0.1,0-0.2-0.1L158.8,11.1z M158.9,10.6
	l-1,0.5l1.2-0.4C159.1,10.7,159,10.6,158.9,10.6z M158.2,10.4l-1.2,0.7l1.5-0.6C158.4,10.5,158.3,10.5,158.2,10.4z M151.4,11.1
	l0.8-1.6c-0.2,0-0.3,0-0.5,0L151.4,11.1z M141.3,10.8l1.1,0.3l-0.8-0.4C141.4,10.8,141.4,10.8,141.3,10.8z M149,9.5l0.8,1.6
	l-0.4-1.6C149.3,9.5,149.1,9.5,149,9.5z M141.9,10.6l1.4,0.5l-1.1-0.5C142.1,10.6,142,10.6,141.9,10.6z M140.8,11l0.6,0.1l-0.5-0.2
	C140.9,11,140.8,11,140.8,11z M142.6,10.4l1.6,0.7l-1.3-0.7C142.8,10.4,142.7,10.4,142.6,10.4z M146.4,9.7l1.5,1.4l-1.1-1.4
	C146.7,9.7,146.6,9.7,146.4,9.7z M147.7,9.6l1.2,1.5l-0.8-1.6C148,9.6,147.8,9.6,147.7,9.6z M145.3,9.9l1.7,1.2l-1.3-1.3
	C145.6,9.8,145.4,9.9,145.3,9.9z M144.3,10.1l1.8,1.1l-1.4-1.1C144.5,10,144.4,10,144.3,10.1z M143.4,10.2l1.8,0.9l-1.4-0.9
	C143.6,10.2,143.5,10.2,143.4,10.2z"/>
<g>
	<g>
		<g>
			<path class="st0" d="M142.4,26.8c-0.3-0.1-0.6-0.3-0.9-0.4c-0.2-0.1-0.6-0.1-0.9-0.2l0,0L142.4,26.8z M138.2,21.9
				c0-0.2,0-0.4,0-0.6C138.2,21.7,138.2,21.9,138.2,21.9L138.2,21.9z M167.2,16.1c-0.4-0.6-0.5-0.7-0.9-1.3
				c-0.4-0.6-1.6-1.7-1.6-1.7s-0.8-0.4-1.2-0.6s-1-0.3-1.3-0.5c-0.3-0.2-1.3-0.4-1.9-0.4s-0.9,0.3-1.3,0.3s-0.8-0.3-1.4-0.3
				c-0.6-0.1-1.3,0.3-1.3,0.3h0c-1.2-0.2-2.6-0.3-3.9-0.4c-1.8-0.1-3.6,0.1-5.4,0.1c-0.3,0-0.6,0-0.9,0c-0.4-0.1-1.1-0.4-1.5-0.3
				c-0.6,0.1-2,0.2-2.4,0.2s-0.7-0.2-1.2-0.2s-0.6,0.8-1.2,0.8s-1.1-0.4-1.5-0.3c-0.4,0.1-2.3,1.5-2.9,2c-0.4,0.4-0.9,0.8-1.1,1.1
				c-0.3,0.3-0.8,1.2-0.8,1.2l0.3,0.1l1.9,1.8c0,0,2.5,0.2,2.7,0.5c0,0,0,0.1,0,0.3c0.1-0.2,0.3-0.3,0.5-0.6
				c0.2-0.3-0.9-0.7-0.7-0.8c0.3-0.2,1.2,0.5,1.6,0.5c0.6-0.1-0.5-0.6-0.2-0.6s1.3,0.2,1.5,0.2s-0.4-0.5-0.2-0.5s1,0.3,1.1,0.3
				c0.2-0.1-0.4-0.4-0.3-0.6c0.4-0.4,0.3-0.3,0.8-0.4c0.1-0.5-1.5-0.8-1.4-1c0-0.2,1,0.4,1.4,0.6c0.4,0.1,0.5,0.3,0.9,0.3
				c-0.1-0.4-1.4-0.9-1.2-1c0.2-0.1,1,0.7,1.6,0.6c0.3,0,0.4,0.4,0.7,0.3c0.3-0.1-0.1-0.6,0.5-0.5c0.2,0,0.3,0.2,0.5,0.2
				c1,0,0.4-0.3,0.6-0.3c0.2,0,0.7,0.2,0.8,0c0.3-0.3-0.4-0.8-0.3-0.8c0.1-0.1,0.6,0.6,1.1,0.2c0.1-0.1,0.1-0.1,0.2-0.2
				c-0.1-0.1-0.2-0.2-0.3-0.2c-0.2-0.1-0.5-0.2-0.7-0.2c0.5-0.1,0.8,0.3,1.3,0.4c0.1,0,0.3-0.1,0.4-0.1c0.1,0,0.4,0,0.6,0
				c0.1,0-0.7-0.8-0.6-0.8c0.2,0,0.7,0.8,0.9,0.8c0.5,0.1,1.1,0.1,1.6-0.1c0.6-0.3,1.6-1,1.7-1s-0.4,0.4-0.7,0.6
				c-0.2,0.1-0.7,0.4-0.6,0.5c0.1,0,0.4,0.1,0.8-0.1c0.3-0.1,0.8-0.5,1.1-0.4c-0.2,0.2-0.5,0.4-0.6,0.7c0.2,0,0.4,0,0.6,0
				c0.2,0.1,0.3,0.2,0.7,0.2c0.6-0.1,1-0.7,1.6-0.8c-0.2,0.4-0.8,0.5-0.9,0.9c0.4,0.2,0.9,0.1,1.4,0.2c0.4,0.1,1.2-0.1,1,0.4
				c-0.1,0.4,0.9,0.2,1.2,0.5c0.2,0.2,0.1,0.6,0.5,0.5c0.2-0.5,1.5-0.7,2-0.8c-0.4,0.1-1.6,0.5-1.6,1c0.4,0,0.3,0.1,0.6,0
				c0.4-0.1,1-0.5,1.1-0.4c0.1,0-1.1,0.6-0.8,0.8s0.8-0.4,1.2-0.4c-0.1,0.2-0.8,0.4-0.7,0.6c0.5,0.7,0.8,0,1.2,0.6
				c0.3,0.4,0.3,0.6,0.8,0.9c0.4,0.2,0.4,0.5,0.3,0.9c0,0.1-0.1,0.5-0.2,0.6c-0.2,0.8-0.9,1-1.3,1.6c0,0-0.1,0.1-0.1,0.1l1.5-0.5
				l1-3.2c0,0,1.4-0.3,1.6-0.5c1.1-0.7,1.4,0.3,1.9-0.1c0.3-0.3,0.4-0.7,0.4-0.7S167.4,16.5,167.2,16.1z M138.3,19.7
				c0,0.4,0,1-0.1,1.7c0.1-0.7,0.2-1.8,0.2-2.4c0,0,0,0-0.1,0.1C138.3,19.2,138.3,19.5,138.3,19.7z M158,25.4c-0.3,0.7-0.8,2-0.8,2
				s-3.5,0.5-6.1,0.7c-2.1,0.1-4.4-0.2-5.3-0.3c1.3,0.2,2.6,0.4,3.8,0.4c1.3,0,2.8,0,4.1-0.1c0.6-0.1,2.2-0.4,2.8-0.5
				c0.5,0,0.6-0.1,1.1-0.2c0.5-0.1,0.1-0.5,0.2-1C157.9,26,157.9,25.7,158,25.4z M158.2,25c0,0-0.1,0.1-0.1,0.1
				c0.1-0.1,0.1-0.2,0.2-0.2c0.2-0.2,2.4-1.9,2.9-2.6l-0.2,0.1C161,22.4,158.5,24.6,158.2,25z M139.3,23.6c0.1,0.4,0.3,0.7,0.4,1.1
				c0.1,0.5,0,1,0.6,1.2c0,0.2,0.2,0.3,0.4,0.4l-0.5-1.9l-1.9-2.4c0,0.2,0,0.3,0,0.4C138.4,23,139.1,22.9,139.3,23.6z M145.5,27.6
				l-3.1-0.9c0.5,0.2,0.9,0.5,1.5,0.6C144.4,27.4,144.9,27.5,145.5,27.6z M145.6,27.6c0,0-0.1,0-0.1,0l0,0
				C145.5,27.6,145.5,27.6,145.6,27.6z"/>
		</g>
	</g>
	<path class="st0" d="M149.1,26.2c0,0-0.3,0-0.3,0.1c0,0,0.2,0.1,0.2,0.1c0,0,0.1,0,0.2,0c0,0,0.1,0,0,0.1c-0.1,0.1,0,0.1-0.1,0.1
		c-0.1,0-0.3,0.1-0.4,0.1c-0.1,0-0.2,0.1-0.3,0.1c-0.1,0.1-0.2,0.2-0.4,0.2c-0.2,0-0.3,0.1-0.3,0.2c0,0.1,0.1,0.1,0.2,0.2
		c0,0,0.7,0.2,0.6,0.3c0,0-0.8,0-0.9,0c-0.1,0-0.4,0.2-0.6,0.2c-0.1,0-0.3,0-0.4,0c-0.1,0-0.1-0.1-0.2-0.1c-0.1,0-0.1,0-0.2,0
		c-0.1,0-0.1-0.2-0.1-0.3c0-0.1,0.1-0.2,0.2-0.3s0.2-0.1,0.3-0.1c0.1,0,0.1,0,0.2-0.1c0.1,0,0.1,0,0.2-0.1c0.1,0,0.2,0,0.4,0
		c0.3,0,0.5-0.2,0.7-0.3c0.1,0,0.2-0.1,0.3-0.1c0.1-0.1,0-0.1,0-0.1c0,0,0.1,0,0.1-0.1c0.1,0,0.1,0,0.2-0.1
		C148.8,26.1,149,26.1,149.1,26.2c0.1-0.1,0.2-0.1,0.3-0.1c0,0,0.1,0,0.1,0c0,0-0.1,0-0.2,0C149.3,26.2,149.2,26.2,149.1,26.2
		L149.1,26.2z"/>
	<g>
		<path class="st0" d="M140.4,22c-0.1-1.7-0.8-2.7-0.9-2.8c-0.4-0.4-0.7-0.3-0.7-0.3l0,0c-0.1,0-0.1,0.1-0.1,0.2s0.1,0.1,0.2,0.1
			l0,0l0,0c0,0,0.2,0,0.4,0.2c0,0,0.7,1,0.8,2.6l0,0c0,0.1,0.1,0.1,0.1,0.1C140.3,22.1,140.4,22.1,140.4,22L140.4,22z"/>
	</g>
	<g>
		<path class="st0" d="M141.6,24.5c-0.1-0.1-0.1-0.1-0.2-0.1h0c0,0,0,0,0,0c-0.1-0.1-0.2-1.2-0.2-1.7c-0.2-2.2-1.1-3.7-1.1-3.8l0,0
			l0,0c-0.4-0.2-0.8-0.4-0.8-0.4l0,0c-0.1,0-0.2,0-0.2,0.1s0,0.1,0.1,0.2l0,0l0,0c0,0,0.4,0.2,0.8,0.4l-0.1,0c0,0,0.9,1.5,1.1,3.7
			c0.2,1.8,0.2,1.8,0.4,1.9h0l0,0c0,0,0,0,0,0l0,0c0.1,0.1,0.1,0.1,0.2,0C141.6,24.7,141.7,24.6,141.6,24.5L141.6,24.5z"/>
	</g>
	<path class="st0" d="M141.7,21c-0.3,0-0.5-2.3-0.8-2.5s0-0.4,0.2-0.3c0.2,0.1,0.3,0.2,0.6,0c0.3-0.1,0.3-0.1,0.6-0.3
		c0.6-0.3,0-0.6,0.4-0.8s0.9,0,1,0.2c0.1,0.2,0.3,1.3,0,1.2c-0.3,0,0,0-0.3-0.5c-0.3-0.4-0.1,0.1-0.3,0.3s-0.3,0.2-0.6,0
		s-0.6-0.2-0.6,0s0.3,0.8-0.1,0.6c-0.4-0.2-0.3,0.2-0.3,0.6C141.7,20,142,20.9,141.7,21z"/>
	<path class="st0" d="M144.7,16.5c-0.6-0.1-0.3,0.3-0.1,0.5c0.3,0.2,0.6,0.2,0.7,0.5c0.1,0.3,0.1,0.8,0.1,1.1c0.1,0.3,0.3,0.4,0.3,0
		c0-0.4,0.1-1.3-0.2-1.6s0.1-0.6,0.2-0.4c0.1,0.2,0.3,0.4,0.3,0.8c0.1,0.4-0.1,0.6,0.2,0.6c0.3,0,0.2-0.2,0.4-0.4
		c0.2-0.1,0.3-0.3,0.4,0s-0.2,0.6-0.1,0.9s0.4,0.6,0.4,0.3c0-0.2-0.1-0.3-0.1-0.6c0-0.2,0.1-0.2,0.2-0.6c0.1-0.4,0.1-0.7-0.3-0.7
		s-0.4,0.2-0.7-0.1s-0.1-0.6-0.5-0.6C145.6,16.1,145.3,16.6,144.7,16.5z"/>
	<g>
		<path class="st0" d="M148.3,19.3c0-1.2-0.1-2.1-0.3-2.6c-0.1-0.4-0.3-0.6-0.4-0.5l0.1,0.1c-0.2-0.4-0.6-0.4-0.7-0.4l0,0
			c-0.1,0-0.1,0.1-0.2,0.1c0,0.1,0.1,0.1,0.1,0.2l0,0l0,0c0,0,0.3,0,0.5,0.3l0,0l0.1,0c0,0,0,0,0,0s0.5,0.3,0.5,2.9l0,0
			c0,0.1,0.1,0.1,0.1,0.1C148.2,19.5,148.3,19.4,148.3,19.3L148.3,19.3z"/>
	</g>
	<g>
		<path class="st0" d="M154.7,15.9c-0.1,0-0.9,0.4-1,4.3l0,0c0,0.1,0.1,0.1,0.1,0.1s0.1-0.1,0.1-0.1l0,0c0.1-3.7,0.8-4.1,0.8-4.1
			l0,0c0,0,0,0,0,0l0,0c0.1,0,0.1-0.1,0.1-0.2C154.9,15.9,154.8,15.9,154.7,15.9L154.7,15.9z"/>
	</g>
	<g>
		<path class="st0" d="M154.5,18.6c0.1-2.2,0.8-2.4,0.8-2.4l-0.1,0l0.1,0c0.1,0,0.1-0.1,0.1-0.2c0-0.1-0.1-0.1-0.2-0.1l0,0
			c-0.1,0-0.9,0.2-1,2.6l0,0c0,0.1,0.1,0.1,0.1,0.1C154.5,18.8,154.5,18.7,154.5,18.6L154.5,18.6z"/>
	</g>
	<g>
		<path class="st0" d="M156.9,16.4c-0.1,0-0.6,0.3-0.7,2.5l0,0c0,0.1,0.1,0.1,0.1,0.1c0.1,0,0.1-0.1,0.1-0.1l0,0
			c0.1-2,0.5-2.3,0.5-2.3c0,0,0,0,0,0l0,0c0.1,0,0.1-0.1,0.1-0.2C157.1,16.4,157,16.4,156.9,16.4L156.9,16.4z"/>
	</g>
	<g>
		<path class="st0" d="M157.3,16.7c0,0-0.6,0.7-0.6,1.5l0,0c0,0.1,0.1,0.1,0.1,0.1c0.1,0,0.1-0.1,0.1-0.1l0,0c0-0.7,0.5-1.2,0.5-1.3
			l0,0c0.1-0.1,0.1-0.1,0-0.2C157.4,16.6,157.4,16.6,157.3,16.7L157.3,16.7z"/>
	</g>
	<g>
		<path class="st0" d="M157.6,18.9c0-0.5,0.2-0.7,0.4-0.8c0.1,0,0.1-0.1,0.2-0.1c0.5-0.3,0.7-0.4,0.7-0.5l0,0c0-0.1,0-0.1-0.1-0.2
			c-0.1,0-0.2,0.1-0.2,0.1c0,0,0,0,0,0c-0.1,0.1-0.8,0.5-0.8,0.5c-0.4,0.3-0.4,0.4-0.6,2.3c-0.1,0.8,0,1.8-0.1,2l0,0
			c0,0.1,0,0.1,0,0.2c0.1,0,0.1,0,0.2,0C157.4,22.4,157.6,19.2,157.6,18.9z"/>
	</g>
	<g>
		<path class="st0" d="M158.2,20.8c0-2.2,0-2.2,0.2-2.4c0.1-0.1,0.3-0.2,0.4-0.3c0.2-0.1,0.4-0.2,0.6-0.4l0,0c0-0.1,0-0.1-0.1-0.2
			s-0.1,0-0.2,0l0,0c-0.1,0.1-0.2,0.3-0.4,0.4c-0.2,0.1-0.4,0.2-0.6,0.4c-0.3,0.4-0.3,2.9-0.2,2.9C158.1,21.2,158.2,20.9,158.2,20.8
			L158.2,20.8z"/>
	</g>
	<g>
		<path class="st0" d="M159.6,18.1c-0.1,0.1-0.2,0.2-0.3,0.3c-0.3,0.2-0.6,0.4-0.6,1.2c0,0.2,0,0.4,0,0.6c0,0.2,0,0.5,0,0.6l0,0
			c0,0.1,0,0.2,0.1,0.2c0.1,0,0.1,0,0.2-0.1l0,0c0.1-0.2,0.1-0.4,0.1-0.7c0-0.2,0-0.4,0-0.6c0.1-0.6,0.3-0.8,0.5-1
			c0.1-0.1,0.2-0.2,0.4-0.3l0,0c0.1-0.1,0-0.1,0-0.2C159.8,18,159.7,18,159.6,18.1L159.6,18.1z"/>
	</g>
	<g>
		<path class="st0" d="M160.7,18.5c0,0-1,0.4-0.9,1.5c0,0-0.1,0.4,0,0.4c0.1,0,0.1-0.1,0.1-0.1l0,0c0-1,0.9-1.6,0.9-1.6l0,0
			c0.1,0,0.1-0.1,0.1-0.2C160.9,18.5,160.8,18.5,160.7,18.5L160.7,18.5z"/>
	</g>
	<g>
		<path class="st0" d="M161.2,18.9c-0.6,0.1-1.1,0.9-1.1,2.2l0,0c0,0.1,0.1,0.1,0.1,0.1c0.1,0,0.2-0.7,0.2-0.7
			c0.1-1.1,0.4-1.3,0.9-1.4l0,0c0.1,0,0.1-0.1,0.1-0.2C161.3,18.9,161.2,18.9,161.2,18.9L161.2,18.9z"/>
	</g>
	<g>
		<path class="st0" d="M155.8,16.1c0,0-0.8,0.5-0.8,2.6l0,0c0,0.1,0.1,0.1,0.1,0.1s0.1-0.1,0.1-0.1l0,0c0-2,0.7-2.4,0.7-2.4l0,0
			c0.1,0,0.1-0.1,0-0.2C156,16.1,155.9,16,155.8,16.1L155.8,16.1z"/>
	</g>
	<g>
		<path class="st0" d="M141.5,21.8c-0.4-2.6-1.1-3.3-1.1-3.3l0,0h0c-0.5-0.4-0.9-0.3-0.9-0.2l0,0c-0.1,0-0.1,0.1-0.1,0.2
			s0.1,0.1,0.2,0.1l0,0l0,0c0,0,0.2-0.1,0.6,0.2l0,0c0,0,0.7,0.7,1,3.2l0,0c0,0.1,0.1,0.1,0.2,0.1C141.5,22,141.6,21.9,141.5,21.8
			L141.5,21.8z"/>
	</g>
	<g>
		<path class="st0" d="M141.8,18.9L141.8,18.9c0,0,0.7,1.6,0.8,2.7c0,0,0.2,3,0.4,3.1l0,0c0.1,0,0.2,0,0.2-0.1c0-0.1,0-0.1-0.1-0.2
			l0,0c0,0,0,0,0,0c-0.1-0.2-0.2-1.7-0.2-2.7c0-1-0.8-3-0.8-3l0,0c0-0.1-0.1-0.1-0.2,0C141.7,18.8,141.7,18.9,141.8,18.9L141.8,18.9
			z"/>
	</g>
	<g>
		<path class="st0" d="M143.6,17.5L143.6,17.5c0,0,0.7,0.4,0.7,1.2l0,0.9c0,2.1,0,3.2,0.1,3.5l0,0c0,0.1,0.1,0.1,0.2,0.1
			c0.1,0,0.1-0.1,0.1-0.2l0,0c-0.1-0.2-0.1-2.4-0.1-3.4l0-1c0-0.9-0.7-1.3-0.7-1.3l0,0c-0.1,0-0.1,0-0.2,0
			C143.5,17.4,143.5,17.5,143.6,17.5L143.6,17.5z"/>
	</g>
	<g>
		<path class="st0" d="M148.1,16c0.2,0.1,0.6,1.9,0.4,3.5c-0.2,1.4-0.1,3.2-0.1,3.2l0,0c0,0.1,0.1,0.1,0.1,0.1c0.1,0-0.1-2,0.1-3.4
			c0.2-1.3,0.1-3.4-0.4-3.7l0,0c-0.1,0-0.2,0-0.2,0.1C148,15.8,148,15.9,148.1,16L148.1,16z"/>
	</g>
	<g>
		<path class="st0" d="M145.5,19.3c0,0-0.1,1.1-0.1,2.2c0,2.3,0.3,2.4,0.4,2.4l0,0c0.1,0,0.2,0,0.2-0.1c0-0.1-0.3-0.8-0.3-0.8
			c-0.3-0.2-0.1-1.8,0-3.7l0,0c0-0.1-0.1-0.1-0.1-0.1C145.6,19.2,145.5,19.2,145.5,19.3L145.5,19.3z"/>
	</g>
	<g>
		<path class="st0" d="M145,21.9c-0.1-1.2,0.1-3.2,0.1-3.2c-0.1-1-0.3-1.6-0.8-1.7l0,0c-0.1,0-0.1,0-0.2,0.1c0,0.1,0,0.1,0.1,0.2
			l0,0c0.3,0.1,0.6,0.6,0.6,1.5c0,0,0,2.3,0.1,3.6c0.1,0.9,0.1,0.8,0.3,1.7l0.1,0.8c0,0.1,0.1,0.1,0.2,0.1c0.1,0-0.2-0.9-0.2-1
			C145.4,23.8,145.1,23.1,145,21.9z"/>
	</g>
	<g>
		<path class="st0" d="M142.1,18.6L142.1,18.6c0,0,0.8,0.5,0.8,1.7c0.1,1.3,0.3,2.9,0.3,3.2l0,0c0,0.1,0.1,0.1,0.2,0.1
			c0.1,0,0.1-0.1,0.1-0.2l0,0c-0.1-0.4-0.3-1.9-0.3-3.2c-0.1-1.4-0.9-1.9-1-2l0,0c-0.1,0-0.2,0-0.2,0C142,18.5,142,18.5,142.1,18.6
			L142.1,18.6z"/>
	</g>
	<g>
		<path class="st0" d="M142.7,18.4L142.7,18.4c0.2,0.2,0.7,1,0.7,1.5c0,0.6,0.1,2.7,0.3,3.3l0,0c0,0.1,0.1,0.1,0.2,0.1
			c0.1,0-0.1-0.4-0.1-0.4c-0.2-0.5-0.2-2.3-0.2-2.9c0-0.6-0.7-1.7-0.7-1.8l0,0c-0.1-0.1-0.1-0.1-0.2,0
			C142.6,18.2,142.6,18.3,142.7,18.4L142.7,18.4z"/>
	</g>
	<g>
		<path class="st0" d="M140.5,22.4c0,0.1,0.1,2.6,0.4,3.2l0,0c0,0.1,0.1,0.1,0.2,0.1s0.1-0.1,0.1-0.2l0,0c-0.3-0.5-0.4-2.4-0.4-3.1
			l0,0c0-0.1-0.1-0.1-0.1-0.1C140.5,22.2,140.5,22.3,140.5,22.4L140.5,22.4z"/>
	</g>
	<g>
		<path class="st0" d="M141.9,21.3c0,0.1,0.1,2.5,0.1,2.6c0,0.5,0.1,1.1,0.4,1.6l0,0c0.1,0.1,0.1,0.1,0.2,0c0.1,0,0.1-0.1,0-0.2l0,0
			c-0.3-0.5-0.4-1.5-0.5-1.7c-0.1-0.6,0-2.3,0-2.4l0,0c0-0.1-0.1-0.1-0.1-0.1C142,21.1,141.9,21.2,141.9,21.3L141.9,21.3z"/>
	</g>
	<g>
		<path class="st0" d="M148.2,15.3L148.2,15.3c0.1,0.1,0.5,0.6,0.6,0.9l0,0.1c0.2,2,0.2,2.6,0.1,2.9c-0.1,0.5-0.1,2.3-0.1,2.7l0,0
			c0,0.1,0.1,0.1,0.2,0.1c0.1,0,0.1-0.1,0.1-0.2l0,0c-0.1-0.4-0.1-2.1,0-2.6c0.1-0.4,0.1-1.3-0.1-3l0-0.1c-0.1-0.5-0.6-1-0.6-1.1
			l0,0c-0.1-0.1-0.1-0.1-0.2,0C148.2,15.2,148.2,15.3,148.2,15.3L148.2,15.3z"/>
	</g>
	<path class="st0" d="M149.7,21.3c-0.1-0.5-0.4-1.5-0.1-2.5c0.2-1-0.1-2.6-0.1-2.7c0.1-0.2-0.3-0.8-0.3-0.8s-0.3-0.3,0.2-0.3
		c0.6,0,0.7,0.1,1,0.2c0.3,0.1,0.6,0,0.9-0.1s0.5,0,0.7,0.2c0.4,0.4,0.1,0.4-0.1,0.5c-0.2,0.1-0.4,0-0.9-0.1s-0.7-0.2-0.9,0
		c-0.2,0.2-0.2,0.5-0.1,0.7c0.1,0.3,0.2,1.4,0.1,1.6c-0.1,0.2-0.3,1.2-0.3,1.7c0,0.5,0.2,1.5,0.2,1.7
		C149.9,21.6,149.7,21.4,149.7,21.3z"/>
	<g>
		<path class="st0" d="M160.3,18.2c-0.4,0.1-0.9,0.8-1,1.4c-0.1,0.3-0.1,0.5-0.1,0.7c0,0.2-0.1,0.4-0.1,0.6
			c-0.1,0.7-0.4,1.6-0.7,1.7l0,0c-0.1,0-0.1,0.1-0.1,0.2s0.1,0.1,0.2,0.1l0,0c0.6-0.3,1-3.1,1.1-3.4c0.1-0.5,0.6-1,0.8-1l0,0
			c0.1,0,0.1-0.1,0.1-0.2C160.5,18.2,160.4,18.2,160.3,18.2L160.3,18.2z"/>
	</g>
	<g>
		<path class="st0" d="M150.1,16L150.1,16c0,0,0.4,1.1,0.1,2c-0.1,0.4-0.1,1.1-0.1,1.6l0,0c0,0.1,0.1,0.1,0.1,0.1
			c0.1,0,0.1-0.1,0.1-0.1l0,0c0-0.7,0.1-1.3,0.1-1.5c0.2-1-0.1-2.1-0.1-2.2l0,0c0-0.1-0.1-0.1-0.2-0.1
			C150.1,15.9,150.1,15.9,150.1,16L150.1,16z"/>
	</g>
	<g>
		<path class="st0" d="M150.7,16L150.7,16c0,0,0.1,0.4,0.1,0.9c0,0.3,0,0.6,0,0.9c0,0.3,0,0.6,0,0.8c0,0.1,0,0.3,0,0.5l0,0
			c0,0.1,0.1,0.1,0.1,0.1c0.1,0,0.1-0.1,0.1-0.1l0,0c0-0.2,0-0.4,0-0.5c0-0.2,0-0.5,0-0.8c0-0.3,0-0.6,0-0.9c0.1-0.5-0.1-1-0.1-1
			l0,0c0-0.1-0.1-0.1-0.2-0.1C150.7,15.8,150.7,15.9,150.7,16L150.7,16z"/>
	</g>
	<g>
		<path class="st0" d="M151.1,16L151.1,16c0,0,0.2,1.4,0.1,2.2l0,0c0,0.1,0,0.1,0.1,0.2c0.1,0,0.1,0,0.2-0.1l0,0
			c0.1-0.8-0.1-2.2-0.1-2.3l0,0c0-0.1-0.1-0.1-0.2-0.1C151.2,15.9,151.1,15.9,151.1,16L151.1,16z"/>
	</g>
	<g>
		<path class="st0" d="M156.7,21.4L156.7,21.4c-0.1,1-0.2,1.8-0.4,1.9l0,0c-0.1,0-0.1,0.1-0.1,0.2c0,0.1,0.1,0.1,0.2,0.1l0,0
			c0.4-0.2,0.5-1.5,0.6-2.1l0,0c0-0.1-0.1-0.1-0.1-0.1C156.8,21.3,156.7,21.4,156.7,21.4L156.7,21.4z"/>
	</g>
	<g>
		<path class="st0" d="M156.6,20.1c0,0-0.4,0.4-0.5,0.8c0,0.1,0,0.3,0,0.5c0,0.4,0,1-0.2,1.2l0,0c-0.1,0-0.1,0.1,0,0.2
			c0.1,0,0.1,0,0.2,0l0,0c0.3-0.3,0.3-1,0.3-1.5c0-0.2,0-0.4,0-0.5c0-0.4,0.4-0.7,0.4-0.7l0,0c0.1,0,0.1-0.1,0-0.2
			C156.8,20.1,156.7,20.1,156.6,20.1L156.6,20.1z"/>
	</g>
	<path class="st0" d="M156.7,15.8c-0.1-0.2-0.6-0.1-0.8-0.1s-0.4-0.1-0.8-0.2c-0.3-0.1-1-0.2-1.2,0.2c-0.3,0.4-0.3,0.6-0.5,1.4
		c-0.1,0.8-0.1,2.3-0.2,3.1c-0.1,0.9-0.3,2.3-0.5,2.5c0,0-0.1,0.2,0.1,0.2c0.2,0,0.5-1.5,0.5-1.5s0.1-0.8,0.1-2.2
		c0.2-3.2,0.7-3.3,0.8-3.3s0,0.2,0.1,0.3c0.2,0.2,0.4,0.1,0.7,0.1c0.1,0.3-0.3,0.8-0.1,0.9s0.6-0.2,0.9-0.4
		c-0.1,0.1-0.1,0.2-0.2,0.3c-0.1,0.3-0.2,2.9-0.1,3.1c0.1,0.2,0.2-0.3,0.2-0.3c-0.1-3.2,0.8-3.5,0.8-3.5S156.9,16,156.7,15.8z"/>
	<g>
		<path class="st0" d="M161.7,19.1c-0.7,0.1-1,0.8-1.1,1.2c0,0.1,0,0.1-0.1,0.1c0,0.1-0.1,0.3-0.1,0.5c-0.1,0.4-0.1,1.1-0.4,1.2l0,0
			c-0.1,0-0.1,0.1-0.1,0.2s0.1,0.1,0.2,0.1l0,0c0.4-0.2,0.7-2.2,0.7-2.3c0,0,0-0.1,0.1-0.2c0.1-0.4,0.3-0.5,0.8-0.6l0,0
			c0.1,0,0.1-0.1,0.1-0.1C161.9,19.2,161.8,19.1,161.7,19.1L161.7,19.1z"/>
	</g>
	<g>
		<path class="st0" d="M155.2,20.1c0,0.3-0.1,0.7-0.2,1.5c-0.1,0.8-0.3,1.2-0.4,1.7s0.2,0.3,0.6-1.5l0.1-0.3l0.1-0.4
			c0.1-0.3,0.1-0.7,0.2-1l0,0c0-0.1-0.1-0.1-0.1-0.1C155.3,20,155.2,20.1,155.2,20.1L155.2,20.1z"/>
	</g>
	<g>
		<path class="st0" d="M153.2,15.7c-0.1,0.3-0.2,0.6-0.3,1.1l-0.1,0.4c-0.1,0.8-0.4,3.4-0.4,3.4c0,0.1,0,0.3,0,0.4
			c0,0.1-0.1,0.1-0.1,0.2c0,0.1-0.1,0.1-0.1,0.2l0,0c0,0.1,0,0.2,0.1,0.2c0.1,0,0.3-0.4,0.4-0.5c0.1-0.2,0-0.6,0-0.7
			c0-0.3,0-0.6,0.1-0.9c0.1-0.8,0.2-2,0.4-2.8c0,0,0.2-0.8,0.4-1l0,0c0-0.1,0-0.1-0.1-0.2C153.4,15.6,153.3,15.6,153.2,15.7
			L153.2,15.7z"/>
	</g>
	<g>
		<path class="st0" d="M151.6,16.1c0,0.2,0,0.5,0.1,0.7c0,0.2,0.1,0.5,0.1,0.7c0,0.2,0,0.5-0.1,0.7c-0.1,0.5-0.2,1-0.3,1.6l0,0
			c0,0.1,0,0.1,0.1,0.2s0.1,0,0.2-0.1l0,0c0.1-0.6,0.2-1.1,0.3-1.6c0.1-0.3,0.1-0.5,0.1-0.8c0-0.2,0-0.5-0.1-0.7
			c0-0.2-0.1-0.5-0.1-0.7l0,0c0-0.1-0.1-0.1-0.1-0.1C151.6,15.9,151.6,16,151.6,16.1L151.6,16.1z"/>
	</g>
	<path class="st0" d="M146.7,26.2c0.2,0.1,0.5-0.1,0.8-0.2c0.2-0.1,0.5-0.1,0.7-0.2c0.2-0.1,0.4-0.1,0.6-0.2c0.3,0,0.8-0.1,1.1-0.2
		c0,0,0,0,0,0c-0.2,0-0.4,0-0.6,0c-0.1,0-0.2-0.1-0.2-0.1s-0.1,0-0.1,0.1c-0.2,0.1-0.4,0-0.6,0c0,0-0.1,0.1-0.1,0.1
		c-0.1,0-0.3,0-0.4,0c0.1,0.3-0.5,0.2-0.6,0.2c-0.1,0-0.1,0-0.2,0s0,0.1,0,0.1c-0.1,0-0.2,0-0.3,0c-0.1,0-0.2,0-0.3,0c0,0,0,0,0,0.1
		c-0.1,0-0.1,0-0.1,0c-0.1,0-0.3,0-0.4,0c0,0,0-0.1-0.1-0.1c-0.1,0,0,0.1,0,0.2c-0.1,0.1-0.2,0.1-0.3,0.2c-0.1,0.1,0,0.2,0.1,0.2
		c0,0,0,0,0.1,0.1c0.1,0,0.2,0,0.2,0C145.9,26.5,146.5,26.1,146.7,26.2z"/>
	<path class="st0" d="M153,24.3c0.2,0,0.3,0.2,0.5,0.2c0,0,0-0.1,0.2-0.1s0.2,0,0.4,0.1c0.2,0.1,0.2,0.1,0.5,0.1c0,0,0.1,0,0.1,0
		c0.2,0,0.4,0.1,0.6,0.2c0.3,0.2,0.5,0.3,0.6,0.3c0.2,0,0.3-0.1,0.5,0c0.2,0.1,0.5,0.4,0.5,0.5c-0.1,0.1-0.2-0.2-0.2,0s-0.4,0-0.5,0
		c-0.2-0.1-0.4-0.1-0.6-0.2c-0.2,0-0.3,0-0.5,0c-0.1,0-0.2,0-0.2,0c0,0-0.1-0.1-0.1-0.1c-0.1-0.1-0.2-0.1-0.3-0.1
		c-0.2,0-0.7-0.2-0.7-0.2c-0.2,0-0.3,0-0.5,0c-0.1,0-0.5,0-0.6,0c-0.2-0.1-0.1-0.4,0.2-0.3C152.7,24.3,152.8,24.2,153,24.3z"/>
	<path class="st0" d="M147.4,24.9c0.1-0.1,0.1-0.3,0.3-0.3c0.1,0,0.2,0.1,0.3,0.1c0.1,0,0.2-0.2,0.4-0.2c0.1,0,0.1,0.2,0.3,0.1
		c0,0,0-0.1,0-0.1c0.1,0,0.3,0,0.4,0c0,0,0-0.1-0.1-0.1c0.2,0,0.3,0,0.5,0c0.2,0,0.4,0.1,0.6,0c0.1,0,0-0.1,0.2-0.1
		c0.1,0,0.1,0,0.2,0.1c0.1,0.1,0.4,0.2,0.5,0.2c0,0.4-0.6,0.1-0.8,0.1c-0.4-0.1-1,0-1.4,0c-0.2,0-0.4,0-0.5,0.1
		c-0.2,0-0.3,0.1-0.5,0.2C147.7,25,147.3,25.1,147.4,24.9L147.4,24.9L147.4,24.9z"/>
	<path class="st0" d="M145.1,25.4c-0.3,0-0.8-0.2-1,0c-0.2,0.2-0.7,0-0.8,0.2s0.2,0.2,0.4,0.2c0.1,0,0,0.2,0.2,0.1
		c0.1,0,0.1-0.2,0.2-0.2c0.2-0.1,0.8,0,0.8-0.1s-0.1-0.1,0-0.2c0.2,0,0.4,0,0.4-0.1L145.1,25.4L145.1,25.4z"/>
	<path class="st0" d="M147,25c-0.2-0.1-0.2-0.3-0.4-0.3c0,0.1-0.1,0.1,0,0.2c-0.1,0-0.3-0.1-0.4,0.1c-0.1,0-0.5,0-0.5,0.1
		c-0.1,0-0.2,0-0.2,0c0,0.1,0.1,0.1,0.2,0.2c0,0,0,0,0,0c0.1,0.1,0.2,0,0.3,0c0.1,0,0.2,0.2,0.4,0.1c0-0.1,0-0.1-0.1-0.2
		c0.1-0.1,0.3-0.1,0.4,0c0,0,0.1-0.1,0.1-0.1c0.1,0,0.1,0,0.2,0c0,0.1,0.1,0,0.1,0L147,25z"/>
	<path class="st0" d="M151.2,24.9c0.1,0.1-0.1,0.2,0.2,0.2c0.1,0,0.3,0,0.3-0.1c0.2,0,0.4,0.1,0.6,0c0.2,0,0.7,0.1,0.9,0
		c0.1,0,0.2,0,0.4,0c0.2-0.1,0.1-0.1,0-0.1c0,0,0.1,0,0.1,0c0-0.1-0.3,0-0.5,0c-0.1,0,0-0.2-0.4-0.1c-0.1,0-0.2,0.1-0.2,0.1
		c-0.2,0-0.5,0-0.6,0c-0.1,0-0.2,0-0.3,0.1c-0.1,0-0.2,0-0.3,0c0,0,0,0-0.1,0L151.2,24.9z"/>
	<path class="st0" d="M147.3,26.4c-0.2,0-0.5,0.2-0.7,0.2c-0.1,0-0.4,0.1-0.4,0.2c0.1,0,0.3,0,0.4,0c0.2,0,0.3-0.1,0.5-0.1
		c0.2,0,0.4,0,0.6-0.2c0.1-0.1,0.4-0.2,0.4-0.2c-0.2,0-0.4,0.1-0.6,0.1L147.3,26.4z"/>
	<path class="st0" d="M156.8,26.3c-0.1,0-0.3,0-0.4,0c-0.1,0-0.1-0.1-0.1-0.1c0,0,0.1-0.1,0.1-0.1c0,0-0.1,0-0.1,0
		c0.2-0.3-0.3-0.2-0.5-0.3c-0.1,0-0.2-0.1-0.4-0.2c0,0,0,0,0,0c0.2,0,0.4,0,0.5,0c0.1,0,0.4,0,0.5,0.1c0.1,0,0.3,0.4,0.3,0.5
		c0.1,0,0.1,0,0.2,0L156.8,26.3z"/>
	<path class="st0" d="M151.1,26.4c1.2,0,1.2-0.1,2.5,0.1c0.4,0,0.8,0.1,1.2,0.2c-0.2,0.2-0.5,0.1-0.5,0.2c0,0.1,0.3,0.1,0.5,0.1
		c0.2,0,0.3,0,0.5,0.1c0.2,0,0,0.1,0.2,0.2c0.1,0,0.4,0.2,0.6,0.3c0.1,0,0.3,0.2,0.3,0.2l-3,0.4l-4,0c0,0-1.7-0.1-1.9-0.3
		c0.1-0.1,1.6-0.1,1.3-0.2c-0.3-0.1-0.9-0.3-0.9-0.5s0.4-0.1,0.4-0.1c0.2-0.1,0.5-0.2,0.7-0.3c0.1,0,0.4-0.2,0.4-0.2
		c0-0.1-0.3-0.2-0.4-0.3c0.2-0.1,0.3,0,0.7,0C150.2,26.2,151.1,26.4,151.1,26.4z"/>
	<g>
		<g>
			<path class="st0" d="M146.8,27.1l-0.3-0.3l-0.7-0.1l-0.4-0.2l-0.7-0.5l-0.9,0.1l-0.4,0.3l1.2,0.5l1.3,0.8l1.2,0l0.6,0L146.8,27.1
				z M144.9,26.6l-0.3-0.1l-0.3-0.1h-0.1l-0.4-0.1l0.2-0.1l0.4,0.1l0.1,0l0.1-0.1l0.9,0.6L144.9,26.6z M146.7,27.5l-0.1-0.1
				l-0.1-0.1l-0.1-0.2l-0.1-0.1l-0.3-0.1l0.4,0l0.2,0l0.1,0.2l0.3,0.2l0.5,0.3l-0.3-0.1L146.7,27.5z"/>
		</g>
	</g>
	<path class="st0" d="M153.7,26.3c0.2,0,0.3,0.1,0.6,0.1c0.2,0,0.5,0,0.7,0.1c-0.1,0-0.2,0.1-0.2,0.2c0.2,0.1,0.4,0.1,0.5,0.2
		c0.2,0.1,0,0.1,0,0.1c0.1,0,0.3,0.1,0.4,0.1c0.1,0.1,0,0.1,0.1,0.2c0.1,0.2,0.5,0.2,0.7,0.1c0.1,0,0.2,0,0.2-0.1c0,0,0-0.1,0-0.1
		c0.1-0.1,0.2,0,0.3,0c0.1,0,0.4,0.1,0.3-0.1c-0.1-0.1-0.3-0.2-0.4-0.2c-0.2,0-0.3-0.1-0.5-0.1c-0.2,0-0.4,0-0.6-0.1
		c-0.2-0.1-0.3-0.2-0.5-0.3c-0.2-0.1-0.4-0.2-0.5-0.3c-0.3-0.1-0.5-0.2-0.8-0.2c-0.4,0-1.5,0.1-1.5,0.1s0.6,0.1,0.7,0.1
		C153.4,26.4,153.7,26.3,153.7,26.3z"/>
	<path class="st0" d="M154.6,25.8c-0.1-0.4-1-0.1-1.2-0.2c0,0,0-0.1,0-0.1c-0.1,0.1-0.3,0.1-0.5,0.1c0,0,0,0.1-0.1,0.1
		c0,0-0.1,0-0.2,0c-0.1,0-0.1,0-0.1,0.1c0.3,0,0.7,0,1,0c0.2,0,0.5,0,0.7,0C154.4,25.8,154.5,25.9,154.6,25.8L154.6,25.8z"/>
	<path class="st0" d="M149.8,25.1c0,0.1,0.3,0,0.4,0c0.2,0,0.3,0.1,0.4,0.1c0,0.1,0.1,0.1,0.2,0.1c-0.1,0-0.2,0-0.3,0.1
		c0,0,0.1,0,0.1,0c-0.2,0-0.3,0-0.4,0.1c0.2,0.2,0.7,0,0.9,0c-0.1,0-0.1-0.1-0.2-0.1c0,0,0.1,0,0.1,0c0,0,0-0.1,0-0.1
		c0,0,0-0.1,0-0.1c-0.2,0-0.3-0.1-0.5-0.1c-0.1-0.1-0.3-0.1-0.4-0.1C150.2,25.1,149.8,25.1,149.8,25.1z"/>
	<path class="st0" d="M167.9,18.7c0-0.5-0.1-0.9-0.2-1.4c0,0,0,0,0,0l-3.9,0.8l-1,3.5l-2.5,1.1l-2.1,1.9l-0.9,0.3l-0.6,2.7
		C163.2,26.2,167.9,22.8,167.9,18.7z M165.6,21c-0.4,0.2-1.1,0.8-1.1,0.8s0.8-0.9,1.1-1.1s1-0.6,1-0.6S166,20.8,165.6,21z
		 M165.4,18.4c0.3-0.1,1-0.3,1-0.3c0,0.3-0.4,0.6-0.8,0.7c-0.4,0.1-0.6,0.9-0.6,0.9S165.1,18.5,165.4,18.4z M166.1,19.7
		c0,0-0.5,0.2-0.8,0.7s-1.1,1.2-1.1,1.2s0.4-0.4,0.8-1.1C165.4,19.7,166.1,19.7,166.1,19.7z M163.7,20.8c0,0,0.1-1.3,0.3-1.6
		s0.3-0.8,0.3-0.8s0.3,1,0.1,1.4c-0.1,0.4-0.9,1.9-0.9,1.9L163.7,20.8z M163.1,23.7c0.2-0.4,0.6-0.9,0.6-0.9l-0.3,1.1l-0.4,0.7
		l-0.9,0.1l-0.8,0.1C161.4,24.7,162.9,24.1,163.1,23.7z M162.5,22.3l0.4-0.2l-0.6,0.8L162.5,22.3z M160.5,23l1-0.3
		c0,0-0.4,0.5-0.8,0.6c-0.4,0.1-1.2,0.8-1.2,0.8L160.5,23z M157.6,25.2c0.5,0,1.5-0.8,1.5-0.8c-0.2,0.7-1,1-1,1l-0.9,0.9L157.6,25.2
		z"/>
	<path class="st0" d="M146.8,27.9l-1.2-0.8l-2.3-1.1l-2.7,0.2l-0.5-1.9l-1.9-2.4c0,0,0.2-1.5,0.3-2.9c0.1-0.9-0.8-0.8-0.8-0.8
		l-2.1-0.3c0,0,0,0.3-0.5-0.9c-0.3-0.7-1-0.9-1.6-0.9c-0.4,0.8-0.5,1.7-0.5,2.6C133,23.3,138.9,27,146.8,27.9z M143.1,26.3l1.5,0.8
		l-1.6-0.5l-1.2-0.2L143.1,26.3z M134.7,20.6l-0.9-1.2l1.3,0.5l1.5,0.1l0.4,0.4l-0.8,0L134.7,20.6z M137.7,23.5l-2.6-1.7l1.6-0.3
		l1.6,1.7l1.4,2.1L137.7,23.5z M138,19.1c0.3-0.6,0.3,0.2,0.3,0.2l-0.2,2.6l0.6,0.9l-0.9-0.9c0,0-0.2-2.4-0.2-2.5
		C137.6,19.4,137.8,19.5,138,19.1z M135.9,18.4l1.6,0.1l0.2,0.2c0,0-0.2,0.1-0.6,0.2l-1-0.2l0.8,0.5l-3.5-0.5l1.4-0.2L135.9,18.4z
		 M134.6,17.5l0.8,0.6l-1-0.3l-0.4-1.2L134.6,17.5z"/>
</g>
</svg>
