<?xml version="1.0" encoding="utf-8"?>
<!-- Generator: Adobe Illustrator 27.5.0, SVG Export Plug-In . SVG Version: 6.00 Build 0)  -->
<svg version="1.1" id="Layer_1" xmlns="http://www.w3.org/2000/svg" xmlns:xlink="http://www.w3.org/1999/xlink" x="0px" y="0px"
	 viewBox="0 0 104.8 35.7" style="enable-background:new 0 0 104.8 35.7;" xml:space="preserve">
<style type="text/css">
	.st0{fill:#FFFFFF;}
</style>
<g>
	<g>
		<path class="st0" d="M6.9,2.7c1.8,0,3.3,2,3.9,5.3l0.3-0.2l-0.8-7.8C9.9,0.6,9.7,0.7,9.2,0.7H7H0.7H0.2v0.4c0,0,0.2,0,0.5,0.1
			c0.4,0.2,0.9,0.7,1,2c0,0.1,0,0.2,0,0.4v18v0c0,1.5-0.6,2.1-1,2.3c-0.3,0.1-0.5,0.2-0.5,0.2v0.4h0.5h5.9H7v-0.4c0,0-0.2,0-0.4-0.1
			c-0.4-0.2-1-0.8-1-2.4V9.5l0.9,0c1,0,1.8,1.3,2.1,3.8l0.3-0.1L8.3,4.7L8,4.7c0,1.9-0.4,2.7-1.6,2.7H5.6V4.7
			C5.6,3.2,5.9,2.7,6.9,2.7z"/>
		<path class="st0" d="M22.5,24.2c-1.7,0-1.4-2.6-1.4-3.6l0-16.8c0-1.4,0.2-2.7,1.5-2.7c1.2,0,1.5,1.3,1.5,2.7v16.8
			C24.1,21.5,24.2,24.2,22.5,24.2z M17.4,12c-1.7,0.4-3.7,2.4-3.7,2.4c0.8-6,3.8-10.6,3.8-10.6S17.4,7.8,17.4,12 M33.3,15
			c-0.4,2.3-0.8,3.5-1.7,5.1c-0.8,1.6-1.7,2.4-2.5,2.4c-0.7,0-1.1-0.6-1.2-1.9V3.6c0-1.9,0.5-2.2,1-2.4c0,0,0.1,0,0.1-0.1l0.2-0.1
			V0.7H29h-13c-1.6,1.6-5.8,11.5-5.8,21.4c0,1-0.4,2-1.3,2l0,0.4h4.8v-0.4c-0.7-0.4-1.1-1.3-1.1-2.7c0-0.9,0.3-1.6,0.3-1.6
			c0.2-0.7,0.4-1.3,0.7-1.8c1.2-2.6,2.9-3.5,4-3.8c0,3.7,0,7,0,7.5c0,2.4-1.4,2.4-1.4,2.4l0,0.4h13.2h1.8c0.6,0,0.8,0.1,1,0.5
			l1.4-10L33.3,15"/>
		<path class="st0" d="M44,15c-0.4,2.3-0.8,3.5-1.7,5.1c-0.8,1.6-1.7,2.4-2.5,2.4c-0.7,0-1.1-0.6-1.2-1.9V3.6c0-1.9,0.5-2.2,1-2.4
			c0,0,0.1,0,0.1-0.1L40,1.1V0.7h-0.3h-6h-0.4v0.4c0,0,0.2,0,0.4,0.1c0.5,0.2,1.1,0.8,1.1,2.4l0,0l0,0v18v0l0,0c0,0.1,0,0.3,0,0.4
			c0,0.1,0,0.2,0,0.3c-0.2,1-0.6,1.5-1,1.7c-0.3,0.1-0.5,0.2-0.5,0.2v0.4h0.5H40h1.8c0.6,0,0.8,0.1,1.1,0.5l1.4-10L44,15z"/>
		<path class="st0" d="M54.5,0.4l0.2,8.2l-0.3,0c-0.5-3.7-1.9-6-3.6-6c-1.1,0-2,1.1-2,2.6c0,1.2,0.4,1.9,1.5,2.5
			c0.2,0.1,0.7,0.5,1.5,1c0.6,0.4,1.1,0.8,1.5,1.1c0.5,0.4,1,0.9,1.4,1.4c0.8,1.2,1.3,3.1,1.3,5.2c0,4.8-2.5,8.4-6,8.4
			c-0.7,0-1.5-0.2-2.5-0.6C46.5,24,46.5,24,46.3,24c-0.3,0-0.5,0.2-0.9,0.7L45,15l0.3-0.1c0.3,2.4,0.7,3.8,1.5,5.1
			c0.9,1.6,1.9,2.5,3,2.5c1.5,0,2.8-1.7,2.8-4c0-1.8-0.5-2.6-2.7-4c-2.5-1.5-3-2-3.6-3.2c-0.6-1.1-0.9-2.4-0.9-4
			c0-4.2,2.1-7.1,5.1-7.1c0.6,0,1.1,0.1,2.1,0.4C53.2,1,53.4,1,53.6,1c0.3,0,0.5-0.1,0.7-0.4C54.4,0.5,54.4,0.5,54.5,0.4z"/>
		<path class="st0" d="M76.5,21.5c0,2.1-0.7,2.7-1.5,2.7c-0.8,0-1.5-0.5-1.5-2.7V3.6c0-2.6,1.3-2.6,1.5-2.5l0,0c0,0,0,0,0,0l0,0l0,0
			c0.1,0,1.5,0,1.5,2.5V21.5z M85.6,16c-0.9,4.2-2.5,6.5-4.4,6.5c-1,0-1.3-0.6-1.3-2.5V9.5h0.8c1.1,0,1.8,1.3,2.1,3.7l0.3-0.1
			l-0.5-8.4l-0.2,0l0,0.4c-0.2,1.7-0.6,2.3-1.5,2.3H80V4.7c0-1.5,0.3-2,1.3-2c1.7,0,3.1,2.1,3.5,5.4L85,8l-0.7-8
			c-0.2,0.6-0.4,0.7-1,0.7H64.4v0.4c0,0,1.1,0.3,1,1.8c0,0.2,0,0.6-0.1,1.1l-2.2,14L61.2,4.1c-0.1-0.6-0.1-1-0.1-1.3
			c-0.2-1.5,1.1-1.8,1.1-1.8V0.7h-6.3v0.4c0,0,1.1,0.3,1.4,2.6l2.9,17.8c0.1,0.9,0.2,1,0.2,1.3c0,1.4-1.2,1.4-1.2,1.4v0.4h6v-0.4
			c0,0-1.3-0.1-1.1-1.4c0-0.1,0.2-1,0.2-1l3-16.9c0.4-2.8,0.6-3.6,1.4-3.7c0.8,0,1.3,0.4,1.3,3v17.5c0,2.4-1.5,2.5-1.5,2.5v0.4h15.1
			c0.8,0,1,0.1,1.1,0.6l1.3-9.1L85.6,16"/>
		<path class="st0" d="M97.8,17.5l1.6-13.5c0.1-0.8,0.1-1,0.1-1.3c0.2-1.5-1-1.7-1-1.7V0.7h3.9v0.4c0,0-0.9-0.1-1.4,3.2l-2,16.9
			c-0.1,0.7-0.1,1.2-0.1,1.5c0,1.5,0.5,1.4,0.9,1.5v0.4h-5.5v-0.4c0,0,0.8,0,0.8-1.3c0-0.2,0-0.5,0-0.8L93.6,5.6L92,21.5l-0.1,1
			c0,0.2,0,0.4,0,0.5c0,1.2,0.8,1.2,0.8,1.2v0.4h-5.1v-0.4c0,0,0.9,0,0.9-1.4c0-0.2,0-0.3-0.1-0.8L86.5,3.8
			c-0.3-2.6-1.3-2.6-1.3-2.6V0.7H91v0.4l-0.2,0c-0.4,0.1-0.7,1.2-0.7,2c0,0.2,0,0.5,0.1,1.1l1,13l1.3-14c0-0.1,0-0.3,0-0.5
			c0.1-1.6-1-1.7-1-1.7V0.7h5.7v0.4c0,0-0.9,0-0.9,1.5c0,0.1,0,0.2,0,0.5l0.1,0.6L97.8,17.5z"/>
		<path class="st0" d="M103,22.1c-0.1,0-0.2,0-0.3,0h-0.1v0.6h0.2c0.1,0,0.2,0,0.3-0.1c0.1-0.1,0.1-0.1,0.1-0.3
			C103.2,22.3,103.1,22.2,103,22.1z M102,23.9v-2.2c0.1,0,0.3,0,0.6,0c0.3,0,0.4,0,0.5,0c0.2,0,0.3,0.1,0.4,0.1
			c0.2,0.1,0.3,0.3,0.3,0.5c0,0.2-0.1,0.3-0.2,0.4c-0.1,0.1-0.2,0.1-0.4,0.1c0.1,0,0.3,0.1,0.3,0.1c0.1,0.1,0.2,0.3,0.2,0.5v0.2
			c0,0,0,0,0,0.1c0,0,0,0,0,0.1l0,0.1h-0.6c0-0.1,0-0.2,0-0.3c0-0.1,0-0.2,0-0.3c0-0.1-0.1-0.1-0.2-0.2c0,0-0.1,0-0.2,0l-0.1,0h-0.1
			v0.8H102 M101.7,21.6c-0.3,0.3-0.5,0.7-0.5,1.2c0,0.5,0.2,0.9,0.5,1.2c0.3,0.3,0.7,0.5,1.2,0.5c0.5,0,0.8-0.2,1.2-0.5
			c0.3-0.3,0.5-0.7,0.5-1.2c0-0.4-0.2-0.8-0.5-1.2c-0.3-0.3-0.7-0.5-1.2-0.5C102.4,21.1,102,21.3,101.7,21.6 M104.2,24.2
			c-0.4,0.4-0.9,0.6-1.4,0.6c-0.6,0-1-0.2-1.4-0.6c-0.4-0.4-0.6-0.9-0.6-1.4c0-0.6,0.2-1.1,0.6-1.5c0.4-0.4,0.8-0.5,1.4-0.5
			c0.6,0,1,0.2,1.4,0.6c0.4,0.4,0.6,0.9,0.6,1.4C104.8,23.4,104.6,23.8,104.2,24.2"/>
	</g>
	<g>
		<g>
			<g>
				<path class="st0" d="M55,32.6c0.1,0,0.2,0,0.3,0c1.3,0,1.6-1.1,1.6-1.4c0-0.4-0.2-0.8-0.4-0.9c-0.3-0.3-0.7-0.4-1.1-0.4
					c-0.1,0-0.2,0-0.3,0.1C55,30,55,30.1,55,30.2L55,32.6z M55,33.4c0,0.5,0,1.4,0,1.6c0,0.2,0.1,0.3,0.2,0.3h0.4
					c0.1,0,0.1,0,0.1,0.1v0.2c0,0.1,0,0.1-0.1,0.1c-0.1,0-0.3,0-1.2,0c-0.8,0-1,0-1.1,0c-0.1,0-0.1,0-0.1-0.1v-0.2c0,0,0-0.1,0-0.1
					h0.3c0.2,0,0.3,0,0.3-0.3c0-0.8,0-1.6,0-2.4v-2.2c0-0.3-0.1-0.4-0.3-0.4h-0.3c0,0-0.1,0-0.1,0v-0.2c0,0,0-0.1,0.1-0.1
					c0.1,0,0.3,0,1.1,0c0.5,0,1.2,0,1.5,0c0.7,0,1.2,0.2,1.5,0.5c0.3,0.3,0.4,0.6,0.4,0.9c0,1.1-0.6,1.5-1.6,1.6v0
					c0.2,0.1,0.4,0.2,0.5,0.4c0.1,0.1,0.6,0.9,0.7,1c0.1,0.1,0.6,0.8,0.7,1c0.2,0.1,0.4,0.2,0.6,0.2c0,0,0.1,0,0.1,0.1v0.2
					c0,0.1,0,0.1-0.1,0.1c-0.1,0-0.3,0-0.8,0c-0.2,0-0.5,0-0.7,0c-0.1-0.1-0.3-0.3-0.4-0.5c-0.2-0.2-0.5-0.8-0.5-1
					c-0.1-0.2-0.3-0.5-0.5-0.7c-0.2-0.3-0.4-0.5-0.8-0.5c0,0-0.2,0-0.3,0V33.4"/>
			</g>
			<g>
				<path class="st0" d="M63.5,33.2c0,0.5,0,1.3,0,1.4c0,0.4,0.2,0.6,0.3,0.7c0.1,0,0.3,0.1,0.7,0.1c0.2,0,0.5,0,0.7,0
					c0.2,0,0.5-0.1,0.7-0.3c0.1-0.1,0.6-0.7,0.8-0.9c0,0,0.1-0.1,0.1,0l0.1,0.1c0,0,0,0,0,0.1l-0.4,1.3c0,0.1-0.1,0.1-0.2,0.1
					c-0.1,0-0.7,0-3.5,0c-0.6,0-0.9,0-1.1,0c0,0-0.1,0-0.1-0.1v-0.2c0-0.1,0-0.1,0.1-0.1H62c0.4,0,0.4,0,0.4-0.4v-2v-0.8
					c0-0.7,0-1.7,0-1.8c0-0.2-0.1-0.3-0.4-0.3h-0.3c0,0,0,0,0-0.1v-0.2c0,0,0-0.1,0-0.1c0.2,0,0.5,0,1.2,0h0.2c0.4,0,2.3,0,2.7,0
					c0.1,0,0.3,0,0.3,0c0,0,0.1,0,0.1,0c0,0.1,0.3,1.2,0.4,1.3c0,0,0,0.1,0,0.1l-0.1,0.1c0,0,0,0-0.1,0c0-0.1-0.7-0.8-0.9-0.9
					C65.2,30.1,65,30,64.8,30l-1.3,0l0,2.4c0.2,0,0.9,0,1,0c0.2,0,0.3-0.1,0.4-0.3c0.1-0.1,0.1-0.3,0.1-0.5c0,0,0-0.1,0.1-0.1l0.2,0
					c0,0,0.1,0,0.1,0.1c0,0.1,0,0.7,0,0.9c0,0.3,0,0.7,0,0.9c0,0,0,0.1-0.1,0.1l-0.2,0c0,0-0.1,0-0.1-0.1c0-0.1-0.1-0.3-0.1-0.4
					c-0.1-0.2-0.2-0.3-0.4-0.3c-0.3,0-0.7,0-1,0L63.5,33.2z"/>
			</g>
			<g>
				<path class="st0" d="M70.4,33.7C70.4,33.7,70.5,33.7,70.4,33.7c0.1,0.3,0.1,0.7,0.4,1c0.3,0.4,0.7,0.6,1.1,0.6
					c0.5,0,1.1-0.3,1.1-1c0-0.8-0.4-1-1.2-1.4c-0.3-0.1-0.8-0.3-1.2-0.7c-0.3-0.3-0.4-0.7-0.4-1.2c0-0.5,0.2-0.8,0.6-1.2
					c0.3-0.3,0.7-0.4,1.2-0.4c0.5,0,0.9,0.1,1.1,0.2c0.1,0,0.1,0,0.2,0l0.1-0.1c0,0,0.1,0,0.1,0c0.1,0,0.1,0,0.1,0.1
					c0,0.1,0.1,1.3,0.1,1.4c0,0,0,0-0.1,0.1l-0.1,0c0,0-0.1,0-0.1-0.1c-0.1-0.2-0.2-0.6-0.5-0.9c-0.2-0.2-0.5-0.3-0.9-0.3
					c-0.7,0-0.9,0.5-0.9,0.8c0,0.3,0,0.5,0.2,0.8c0.2,0.2,0.7,0.4,1,0.5c0.5,0.1,0.9,0.3,1.2,0.7c0.3,0.3,0.4,0.6,0.4,1.2
					c0,1-0.7,1.9-1.8,1.9c-0.7,0-1.1-0.2-1.4-0.4c-0.1-0.1-0.2-0.1-0.2-0.1c0,0-0.1,0.1-0.1,0.2c-0.1,0.1-0.1,0.1-0.2,0.1
					c-0.1,0-0.1-0.1-0.1-0.1c0-0.1,0.1-1.5,0.2-1.6c0,0,0-0.1,0-0.1L70.4,33.7z"/>
			</g>
			<g>
				<path class="st0" d="M79.1,30.4c-0.5,0.5-0.8,1.4-0.8,2c0,2.2,1.3,3,2,3c1.7,0,2-1.9,2-2.6c0-1.8-1.2-2.9-2-2.9
					C80.1,29.9,79.6,29.8,79.1,30.4z M82.3,30.2c0.6,0.5,1.1,1.3,1.1,2.5c0,0.6-0.2,1.3-0.6,1.8c-0.5,0.7-1.3,1.2-2.5,1.2
					c-0.5,0-1.2-0.2-1.9-0.6c-0.6-0.4-1.2-1.3-1.2-2.5c0-0.5,0.1-1.3,0.8-2.1c0.7-0.9,1.6-1.1,2.4-1.1
					C80.9,29.5,81.6,29.6,82.3,30.2"/>
			</g>
			<g>
				<path class="st0" d="M88.5,32.6c0.1,0,0.2,0,0.3,0c1.3,0,1.6-1.1,1.6-1.4c0-0.4-0.2-0.8-0.4-0.9c-0.3-0.3-0.7-0.4-1.1-0.4
					c-0.1,0-0.2,0-0.3,0.1c-0.1,0-0.1,0.1-0.1,0.2L88.5,32.6z M88.5,33.4c0,0.5,0,1.4,0,1.6c0,0.2,0.1,0.3,0.2,0.3h0.4
					c0,0,0.1,0,0.1,0.1v0.2c0,0.1,0,0.1-0.1,0.1c-0.1,0-0.3,0-1.1,0c-0.8,0-1,0-1.1,0c-0.1,0-0.1,0-0.1-0.1v-0.2c0,0,0-0.1,0-0.1
					h0.3c0.2,0,0.3,0,0.3-0.3c0-0.8,0-1.6,0-2.4v-2.2c0-0.3-0.1-0.4-0.3-0.4h-0.3c0,0-0.1,0-0.1,0v-0.2c0,0,0-0.1,0.1-0.1
					c0.1,0,0.3,0,1.2,0c0.5,0,1.2,0,1.5,0c0.7,0,1.2,0.2,1.5,0.5c0.3,0.3,0.5,0.6,0.5,0.9c0,1.1-0.6,1.5-1.6,1.6v0
					c0.2,0.1,0.4,0.2,0.5,0.4c0.1,0.1,0.6,0.9,0.7,1c0.1,0.1,0.6,0.8,0.7,1c0.2,0.1,0.4,0.2,0.6,0.2c0.1,0,0.1,0,0.1,0.1v0.2
					c0,0.1,0,0.1-0.1,0.1c-0.1,0-0.3,0-0.8,0c-0.2,0-0.6,0-0.7,0c-0.1-0.1-0.3-0.3-0.4-0.5c-0.1-0.2-0.5-0.8-0.6-1
					c-0.1-0.2-0.3-0.5-0.5-0.7c-0.2-0.3-0.4-0.5-0.8-0.5c0,0-0.2,0-0.3,0V33.4"/>
			</g>
			<g>
				<path class="st0" d="M97.2,30H97c-0.3,0-0.9,0-1.2,0.1c-0.3,0.1-0.6,0.7-0.7,1c0,0,0,0.1-0.1,0.1l-0.2-0.1c0,0,0,0,0-0.1
					c0.1-0.3,0.4-1.4,0.4-1.5c0-0.1,0.1-0.2,0.1-0.2c0.1,0,0.1,0,0.1,0.1c0.2,0.2,0.3,0.2,0.6,0.2c0.5,0,0.8,0,1.6,0H98
					c0.9,0,1.3,0,1.7,0c0.2,0,0.5-0.1,0.6-0.2c0.1-0.1,0.1-0.1,0.1-0.1c0.1,0,0.1,0,0.1,0.1c0,0.2,0.2,1.2,0.3,1.6
					c0,0.1,0,0.1,0,0.1l-0.2,0.1c0,0-0.1,0-0.1-0.1c-0.1-0.2-0.4-0.8-0.7-0.9c-0.2-0.1-1-0.1-1.3-0.1h-0.2v4.5
					c0,0.6,0.1,0.8,0.3,0.8H99c0,0,0.1,0,0.1,0.1v0.2c0,0.1,0,0.1-0.1,0.1c-0.1,0-0.3,0-1.2,0c-0.9,0-1.2,0-1.3,0
					c-0.1,0-0.1,0-0.1-0.1v-0.2c0-0.1,0-0.1,0.1-0.1h0.5c0.2,0,0.3-0.1,0.3-0.2c0-0.2,0-2.8,0-3V30z"/>
			</g>
		</g>
		<g>
			<g>
				<path class="st0" d="M6.3,34.1C6.3,34.2,6.4,34.2,6.3,34.1c-0.5,0.8-1.3,1.5-2.5,1.5c-1.1,0-1.7-0.3-2.2-0.8
					c-0.6-0.6-0.9-1.5-0.9-2.3c0-0.8,0.3-1.6,0.9-2.2c0.5-0.5,1.2-0.9,2.2-0.9c0.8,0,1.4,0.2,1.7,0.4c0.1,0.1,0.2,0.1,0.2,0l0.1-0.2
					c0-0.1,0-0.1,0.1-0.1c0.1,0,0.1,0,0.1,0.1c0,0.2,0.2,1.5,0.2,1.7c0,0,0,0.1,0,0.1l-0.2,0c0,0-0.1,0-0.1-0.1
					c-0.1-0.3-0.3-0.7-0.7-1.1c-0.4-0.4-0.8-0.6-1.5-0.6c-1.3,0-1.9,1.2-1.9,2.4c0,0.5,0.2,1.5,0.8,2.2C3.2,35,3.7,35,4.1,35
					c0.9,0,1.6-0.5,2-1C6.1,34,6.2,34,6.2,34L6.3,34.1z"/>
			</g>
			<g>
				<path class="st0" d="M12.1,32.9c-0.1-0.2-0.6-2.2-0.7-2.3c0-0.1,0-0.2-0.1-0.2c0,0-0.1,0-0.1,0.1c0,0.1-0.8,2.2-0.8,2.4H12.1z
					 M10.2,33.2c-0.1,0.2-0.5,1.4-0.5,1.6c0,0.1,0,0.1,0,0.2c0,0.1,0.1,0.2,0.3,0.2h0.4c0.1,0,0.1,0,0.1,0v0.2c0,0,0,0.1-0.1,0.1
					c-0.1,0-0.5,0-1.1,0c-0.6,0-0.8,0-0.9,0c0,0,0-0.1,0-0.1v-0.2c0-0.1,0-0.1,0-0.1h0.3c0.2,0,0.4-0.1,0.5-0.4
					c0.1-0.2,0.7-1.7,0.9-2.4c0.1-0.2,0.7-2,0.8-2.2c0-0.1,0.1-0.2,0-0.3c0,0-0.1-0.1-0.1-0.1c0,0,0-0.1,0.1-0.1
					c0.3-0.1,0.7-0.3,0.8-0.4c0,0,0.1-0.1,0.1-0.1c0,0,0.1,0.1,0.1,0.2c0.2,0.5,0.8,2.4,1,2.9c0.2,0.7,0.7,2.2,0.9,2.4
					c0.2,0.3,0.4,0.4,0.5,0.4h0.3c0,0,0.1,0,0.1,0.1v0.2c0,0,0,0.1-0.1,0.1c-0.2,0-0.3,0-1.2,0c-0.7,0-1,0-1.2,0
					c-0.1,0-0.1-0.1-0.1-0.1v-0.2c0-0.1,0-0.1,0.1-0.1h0.2c0.2,0,0.3-0.1,0.2-0.3c-0.1-0.3-0.4-1.4-0.5-1.7H10.2"/>
			</g>
			<g>
				<path class="st0" d="M17.6,33.6C17.7,33.6,17.7,33.6,17.6,33.6c0.1,0.3,0.1,0.7,0.4,1c0.3,0.4,0.7,0.6,1.1,0.6
					c0.5,0,1.1-0.3,1.1-1c0-0.8-0.4-1-1.2-1.4c-0.3-0.1-0.8-0.3-1.2-0.7c-0.3-0.3-0.4-0.7-0.4-1.2c0-0.5,0.2-0.9,0.6-1.2
					c0.3-0.3,0.7-0.4,1.2-0.4c0.5,0,0.9,0.1,1.1,0.2c0.1,0,0.1,0,0.2,0l0.1-0.1c0,0,0.1,0,0.1,0c0.1,0,0.1,0,0.1,0.1
					c0,0.1,0.1,1.3,0.1,1.4c0,0,0,0-0.1,0.1l-0.1,0c0,0-0.1,0-0.1-0.1c-0.1-0.2-0.2-0.6-0.5-0.9c-0.2-0.2-0.5-0.3-0.9-0.3
					c-0.7,0-0.9,0.5-0.9,0.8c0,0.3,0,0.5,0.2,0.8c0.2,0.2,0.7,0.4,1,0.5c0.5,0.1,0.9,0.3,1.2,0.7c0.3,0.3,0.4,0.6,0.4,1.2
					c0,1-0.7,1.9-1.8,1.9c-0.7,0-1.1-0.2-1.4-0.4c-0.1-0.1-0.2-0.1-0.2-0.1c0,0-0.1,0.1-0.1,0.2c0,0.1-0.1,0.1-0.1,0.1
					c-0.1,0-0.1-0.1-0.1-0.1c0-0.1,0.1-1.5,0.1-1.6c0,0,0-0.1,0.1-0.1L17.6,33.6z"/>
			</g>
			<g>
				<path class="st0" d="M26.7,32.8c0,0.1,0,2,0,2.1c0,0.3,0.1,0.3,0.3,0.3h0.3c0,0,0.1,0,0.1,0.1v0.2c0,0.1,0,0.1-0.1,0.1
					c-0.1,0-0.4,0-1.2,0c-0.8,0-1.2,0-1.3,0c0,0-0.1,0-0.1-0.1v-0.2c0,0,0,0,0.1,0h0.3c0.2,0,0.4,0,0.4-0.2c0-0.1,0-1.9,0-2.4V32
					c0-0.2,0-1.7,0-1.8c0-0.2-0.1-0.3-0.3-0.3h-0.4c-0.1,0-0.1,0-0.1-0.1v-0.2c0,0,0-0.1,0.1-0.1c0.1,0,0.5,0,1.3,0
					c0.8,0,1.1,0,1.2,0c0.1,0,0.1,0,0.1,0.1v0.2c0,0.1,0,0.1-0.1,0.1H27c-0.2,0-0.3,0.1-0.3,0.2c0,0.1,0,1.9,0,2V32.8z"/>
			</g>
			<g>
				<path class="st0" d="M32.4,31.7c0,1.4,0.1,2.6,0.1,2.9c0,0.4,0.1,0.6,0.4,0.6h0.2c0.1,0,0.1,0,0.1,0.1v0.2c0,0.1,0,0.1-0.1,0.1
					c-0.1,0-0.6,0-0.9,0c-0.2,0-0.8,0-0.9,0c0,0-0.1,0-0.1-0.1v-0.2c0,0,0,0,0.1,0h0.3c0.2,0,0.3-0.2,0.4-0.7c0-0.2,0.1-1.3,0.1-2.7
					v-1.1c0-0.5-0.3-0.9-0.7-0.9h-0.3c0,0,0,0,0-0.1v-0.2c0,0,0,0,0,0c0,0,0.1,0,0.3,0c0.1,0,0.4,0,0.7,0c0.1,0,0.3,0,0.4,0
					c0.1,0,0.2,0,0.2,0c0.1,0,0.2,0,0.2,0.1c0.1,0.1,1.7,2.1,1.9,2.4c0.1,0.1,1.4,1.8,1.6,1.9h0v-0.9c0-0.7,0-1.2,0-1.6
					c0-0.3,0-1.1-0.1-1.3c-0.1-0.2-0.2-0.3-0.4-0.3h-0.3c0,0,0,0,0-0.1v-0.2c0,0,0-0.1,0.1-0.1c0.1,0,0.4,0,0.9,0c0.5,0,0.7,0,0.8,0
					c0.1,0,0.1,0,0.1,0.1v0.2c0,0.1,0,0.1,0,0.1h-0.2c-0.2,0-0.3,0.1-0.3,0.4c0,0.6-0.1,2-0.1,2.8v2.2c0,0.1,0,0.2-0.1,0.2
					c-0.1,0-0.2-0.1-0.3-0.1c-0.1-0.1-0.5-0.6-1-1.2c-0.6-0.7-1.2-1.5-1.3-1.6c-0.1-0.1-1.5-1.8-1.6-1.9h-0.1V31.7z"/>
			</g>
			<g>
				<path class="st0" d="M42.2,30.3c-0.5,0.5-0.8,1.4-0.8,2c0,2.2,1.3,3,2,3c1.7,0,2-1.9,2-2.6c0-1.8-1.2-2.9-2-2.9
					C43.2,29.8,42.7,29.7,42.2,30.3z M45.4,30.1c0.6,0.5,1.1,1.3,1.1,2.5c0,0.6-0.2,1.3-0.6,1.8c-0.5,0.7-1.3,1.2-2.5,1.2
					c-0.5,0-1.2-0.2-1.9-0.6c-0.6-0.4-1.2-1.3-1.2-2.5c0-0.5,0.1-1.3,0.8-2.1c0.7-0.9,1.6-1.1,2.4-1.1C44,29.4,44.7,29.6,45.4,30.1"
					/>
			</g>
		</g>
	</g>
</g>
</svg>
