<?xml version="1.0" encoding="utf-8"?>
<!-- Generator: Adobe Illustrator 27.5.0, SVG Export Plug-In . SVG Version: 6.00 Build 0)  -->
<svg version="1.1" id="Layer_1" xmlns="http://www.w3.org/2000/svg" xmlns:xlink="http://www.w3.org/1999/xlink" x="0px" y="0px"
	 viewBox="0 0 95.94 10.02" style="enable-background:new 0 0 95.94 10.02;" xml:space="preserve">
<style type="text/css">
	.st0{fill:#4A473E;}
</style>
<g>
	<g>
		<path class="st0" d="M76.39,1.2c-0.41,0.41-0.62,0.9-0.62,1.48v2.51c0,0.64-0.22,1.19-0.67,1.65c-0.45,0.47-0.99,0.7-1.62,0.7
			c-0.64,0-1.18-0.24-1.63-0.7c-0.45-0.46-0.67-1.02-0.67-1.65V2.68c0-0.19-0.03-0.36-0.07-0.54c-0.13,0.21-0.28,0.41-0.46,0.59
			c-0.53,0.53-1.15,0.86-1.84,1v1.46c0,1.28,0.46,2.37,1.37,3.27c0.91,0.9,2.01,1.35,3.29,1.35c1.28,0,2.38-0.45,3.29-1.36
			c0.91-0.9,1.37-1.99,1.37-3.27v-4.6C77.39,0.59,76.81,0.79,76.39,1.2z"/>
		<path class="st0" d="M70.57,1.2c-0.39-0.39-0.94-0.59-1.64-0.61h-0.1h-1h-8.79c0,0.73,0.2,1.29,0.59,1.68
			c0.39,0.39,0.86,0.59,1.41,0.59h1.46v4.86c0,0.57,0.21,1.06,0.62,1.47c0.41,0.41,1,0.62,1.75,0.62V2.86h2.96h1h0.16
			c0.55,0,1.02-0.19,1.41-0.59c0.2-0.21,0.35-0.46,0.45-0.75C70.76,1.41,70.67,1.31,70.57,1.2z"/>
		<path class="st0" d="M39.1,8.82c-0.41-0.41-0.62-0.91-0.62-1.48V4.84c0-0.64-0.22-1.2-0.66-1.66c-0.44-0.46-0.98-0.69-1.63-0.69
			c-0.64,0-1.18,0.23-1.63,0.7C34.12,3.65,33.9,4.2,33.9,4.84v4.6c-0.75,0-1.33-0.21-1.75-0.62c-0.41-0.41-0.62-0.91-0.62-1.48V4.84
			c0-0.64-0.22-1.2-0.66-1.66c-0.44-0.46-0.98-0.69-1.63-0.69c-0.64,0-1.18,0.23-1.63,0.7c-0.45,0.47-0.67,1.02-0.67,1.65v2.51
			c0,0.58-0.21,1.07-0.61,1.48c-0.41,0.41-0.99,0.61-1.75,0.61v-4.6c0-1.27,0.46-2.36,1.37-3.27c0.91-0.9,2.01-1.36,3.29-1.36
			c1.38,0,2.54,0.52,3.48,1.55c0.44-0.48,0.97-0.86,1.58-1.14c0.61-0.28,1.24-0.41,1.9-0.41c1.28,0,2.38,0.45,3.29,1.35
			c0.91,0.9,1.37,1.99,1.37,3.27v4.6C40.1,9.44,39.52,9.23,39.1,8.82z"/>
		<path class="st0" d="M93.79,8.82c-0.41-0.41-0.62-0.91-0.62-1.48V4.84c0-0.64-0.22-1.2-0.66-1.66c-0.44-0.46-0.98-0.69-1.63-0.69
			c-0.64,0-1.18,0.23-1.63,0.7c-0.45,0.47-0.67,1.02-0.67,1.65v4.6c-0.75,0-1.33-0.21-1.75-0.62c-0.41-0.41-0.62-0.91-0.62-1.48
			V4.84c0-0.64-0.22-1.2-0.66-1.66c-0.44-0.46-0.99-0.69-1.63-0.69c-0.64,0-1.18,0.23-1.63,0.7c-0.45,0.47-0.67,1.02-0.67,1.65v2.51
			c0,0.58-0.21,1.07-0.61,1.48c-0.41,0.41-0.99,0.61-1.75,0.61v-4.6c0-1.27,0.46-2.36,1.37-3.27c0.92-0.9,2.01-1.36,3.29-1.36
			c1.38,0,2.54,0.52,3.48,1.55c0.44-0.48,0.97-0.86,1.57-1.14c0.61-0.28,1.24-0.41,1.9-0.41c1.28,0,2.38,0.45,3.29,1.35
			s1.37,1.99,1.37,3.27v4.6C94.78,9.44,94.2,9.23,93.79,8.82z"/>
		<path class="st0" d="M16.75,5.06v-0.1c0-0.02,0-0.04,0-0.07c0,0.02-0.01,0.04-0.01,0.07C16.74,5,16.75,5.03,16.75,5.06z"/>
		<path class="st0" d="M14.38,4.9c0,0.02,0,0.04,0,0.07c0,0.06,0.01,0.13,0.01,0.19V4.96C14.38,4.94,14.38,4.92,14.38,4.9z"/>
		<path class="st0" d="M22.32,1.7c-0.92-0.91-2.01-1.36-3.29-1.36c-1.14,0-2.13,0.36-2.98,1.07c0.56,0.66,0.93,1.39,1.11,2.18
			c0.07-0.1,0.15-0.2,0.24-0.29c0.44-0.46,0.98-0.7,1.63-0.7c0.64,0,1.18,0.23,1.63,0.7c0.45,0.46,0.67,1.02,0.67,1.66
			c0,0.63-0.23,1.18-0.67,1.64c-0.45,0.46-0.99,0.69-1.63,0.69c-0.64,0-1.18-0.23-1.62-0.69c-0.04-0.04-0.06-0.08-0.09-0.12
			c-0.35-0.41-0.54-0.89-0.56-1.43c0-0.03-0.01-0.06-0.01-0.1c0-0.02,0.01-0.04,0.01-0.07c-0.01-1.16-0.41-2.16-1.18-3.01
			c-0.06-0.07-0.12-0.13-0.18-0.2c-0.1-0.1-0.2-0.19-0.31-0.28c-0.85-0.71-1.84-1.07-2.98-1.07c-0.66,0-1.29,0.14-1.9,0.41
			C9.59,1.03,9.06,1.4,8.62,1.89c-0.94-1.04-2.1-1.55-3.48-1.55c-1.28,0-2.38,0.45-3.29,1.36C0.93,2.6,0.47,3.69,0.47,4.96v4.6
			c0.76,0,1.34-0.2,1.75-0.61c0.41-0.41,0.61-0.9,0.61-1.48v-2.5c0-0.64,0.22-1.19,0.67-1.66c0.45-0.47,0.99-0.7,1.63-0.7
			c0.64,0,1.19,0.23,1.63,0.7c0.44,0.46,0.66,1.02,0.66,1.66v2.5c0,0.57,0.21,1.06,0.62,1.48c0.41,0.41,1,0.62,1.75,0.62v-4.6
			c0-0.64,0.23-1.19,0.67-1.66c0.45-0.47,0.99-0.7,1.63-0.7c0.64,0,1.19,0.23,1.63,0.7c0.09,0.09,0.16,0.19,0.24,0.29
			c0.27,0.38,0.41,0.81,0.42,1.3c0,0.02,0,0.04,0,0.07v0.19c0.05,1.19,0.5,2.21,1.36,3.06c0.31,0.31,0.65,0.56,1.01,0.76
			c0.18,0.1,0.37,0.19,0.56,0.27c0.53,0.21,1.1,0.32,1.72,0.32c1.28,0,2.38-0.45,3.29-1.34c0.91-0.9,1.37-1.98,1.37-3.26
			C23.7,3.69,23.24,2.6,22.32,1.7z"/>
		<path class="st0" d="M46.16,7.21c-0.64,0-1.19-0.23-1.63-0.7c-0.16-0.17-0.28-0.34-0.38-0.53H47c0.55,0,1.03-0.2,1.43-0.59
			c0.4-0.4,0.59-0.96,0.59-1.69h-4.86c0.1-0.18,0.22-0.35,0.37-0.51c0.45-0.47,0.99-0.7,1.63-0.7H47c0.55,0,1.03-0.2,1.43-0.59
			c0.4-0.39,0.59-0.96,0.59-1.69h-2.86c-1.29,0-2.39,0.45-3.31,1.37c-0.92,0.91-1.38,2.01-1.38,3.29c0,1.28,0.46,2.38,1.38,3.28
			c0.92,0.9,2.02,1.36,3.31,1.36h3.62c0.76,0,1.34-0.21,1.76-0.62c0.06-0.06,0.11-0.13,0.16-0.19c0.3-0.38,0.46-0.81,0.46-1.3V7.21
			H46.16z"/>
		<path class="st0" d="M57.78,1.57c-0.92-0.91-2.02-1.37-3.31-1.37s-2.39,0.45-3.32,1.36c-0.92,0.91-1.38,2-1.38,3.29v1.78h2.38
			V4.86c0-0.64,0.23-1.2,0.68-1.67c0.45-0.47,1-0.7,1.64-0.7c0.64,0,1.19,0.23,1.63,0.7c0.45,0.47,0.67,1.03,0.67,1.67v2.53
			c0,0.57,0.21,1.07,0.62,1.49c0.42,0.41,1,0.62,1.76,0.62V4.86C59.16,3.58,58.7,2.48,57.78,1.57z"/>
	</g>
</g>
</svg>
